<?xml version="1.0" standalone="no"?>
  <!DOCTYPE svg PUBLIC "-//W3C//DTD SVG 1.1//EN" "http://www.w3.org/Graphics/SVG/1.1/DTD/svg11.dtd" >
  <svg>
  <metadata>
  Created by font-carrier
  </metadata>
  <defs>
  <font id="Aileron-Regular" horiz-adv-x="1090" vert-adv-y="1090" >
    <font-face
      
      font-family="Aileron"
      
      font-weight="400"
      
      font-stretch="normal"
      
      units-per-em="1000"
      
      ascent="970"
      
      descent="-230"
      
    />
      <missing-glyph />

      

      
      <glyph glyph-name="uni21" unicode="&#x21;" d="M160 180L82 180L70 690L172 690L160 180M75 96Q75 96 84 105Q93 114 121 114Q149 114 167 96Q185 78 185 50Q185 22 167 4Q149-14 121-14Q93-14 75 4Q57 22 57 50Q57 78 75 96Z"  horiz-adv-x="242" vert-adv-y="1000"  />

      
      <glyph glyph-name="uni22" unicode="&#x22;" d="M166 485L96 485L86 735L176 735L166 485M306 485L236 485L226 735L316 735L306 485Z"  horiz-adv-x="339" vert-adv-y="1000"  />

      
      <glyph glyph-name="uni23" unicode="&#x23;" d="M408 415L379 275L480 275L480 219L367 219L320 0L262 0L309 219L218 219L171 0L113 0L160 219L70 219L70 275L172 275L201 415L100 415L100 471L213 471L260 690L318 690L271 471L362 471L409 690L467 690L420 471L510 471L510 415L408 415M351 415L260 415L230 275L321 275L351 415Z"  horiz-adv-x="580" vert-adv-y="1000"  />

      
      <glyph glyph-name="uni24" unicode="&#x24;" d="M526 181Q526 100 469.50 48.50Q413-3 325-12L325-90L267-90L267-13Q171-7 114 46Q57 99 53 186L145 186Q152 132 183 98Q214 64 267 56L267 312Q173 338 125.50 383.50Q78 429 78 511Q78 593 130 643Q182 693 267 702L267 780L325 780L325 703Q410 696 459.50 642.50Q509 589 519 509L427 509Q416 620 325 634L325 396Q434 361 480 310.50Q526 260 526 181M170 524Q170 475 192.50 448Q215 421 267 405L267 634Q221 626 195.50 598Q170 570 170 524M325 301L325 55Q376 61 405 90Q434 119 434 171Q434 265 325 301Z"  horiz-adv-x="580" vert-adv-y="1000"  />

      
      <glyph glyph-name="uni25" unicode="&#x25;" d="M81 657Q81 657 101 678.50Q121 700 189 700Q257 700 297 657Q337 614 337 541Q337 468 297 425Q257 382 189 382Q121 382 81 425Q41 468 41 541Q41 614 81 657M190 0L103 0L551 690L638 690L190 0M235.50 614.50Q235.50 614.50 226.75 627.25Q218 640 189 640Q160 640 142.50 614.50Q125 589 125 541Q125 494 142.50 468Q160 442 189 442Q218 442 235.50 468Q253 494 253 541Q253 589 235.50 614.50M443 261Q443 261 463 282.50Q483 304 551 304Q619 304 659 261Q699 218 699 145Q699 72 659 29Q619-14 551-14Q483-14 443 29Q403 72 403 145Q403 218 443 261M597.50 218.50Q597.50 218.50 588.75 231.25Q580 244 551 244Q522 244 504.50 218.50Q487 193 487 145Q487 98 504.50 72Q522 46 551 46Q580 46 597.50 72Q615 98 615 145Q615 193 597.50 218.50Z"  horiz-adv-x="740" vert-adv-y="1000"  />

      
      <glyph glyph-name="uni26" unicode="&#x26;" d="M622 385L622 315L526 315L526 7Q434-14 337-14Q206-14 135 28Q64 70 64 173Q64 237 107 287Q150 337 222 352Q163 366 127.50 406.50Q92 447 92 506Q92 594 160 649Q228 704 336 704Q402 704 456 694L456 625Q400 636 333 636Q265 636 226.50 602.50Q188 569 188 511Q188 445 222 417Q256 389 318 386Q336 385 380 385L440 385L440 497L526 497L526 385L622 385M160 186Q160 115 202 84.50Q244 54 339 54Q396 54 440 63L440 315L380 315Q339 315 319 313Q237 306 198.50 271.50Q160 237 160 186Z"  horiz-adv-x="654" vert-adv-y="1000"  />

      
      <glyph glyph-name="uni27" unicode="&#x27;" d="M123 485L53 485L43 735L133 735L123 485Z"  horiz-adv-x="176" vert-adv-y="1000"  />

      
      <glyph glyph-name="uni28" unicode="&#x28;" d="M221 780L279 780Q162 582 162 350Q162 118 279-80L221-80Q164 5 132 118.50Q100 232 100 350Q100 468 132 581.50Q164 695 221 780Z"  horiz-adv-x="315" vert-adv-y="1000"  />

      
      <glyph glyph-name="uni29" unicode="&#x29;" d="M30 780L88 780Q145 695 177 581.50Q209 468 209 350Q209 232 177 118.50Q145 5 88-80L30-80Q147 118 147 350Q147 582 30 780Z"  horiz-adv-x="315" vert-adv-y="1000"  />

      
      <glyph glyph-name="uni2a" unicode="&#x2a;" d="M301 296L456 357L475 298L316 257L429 119L379 82L280 235L181 82L131 119L244 257L85 298L104 357L259 296L249 475L311 475L301 296Z"  horiz-adv-x="560" vert-adv-y="1000"  />

      
      <glyph glyph-name="uni2b" unicode="&#x2b;" d="M500 287L319 287L319 85L261 85L261 287L80 287L80 343L261 343L261 549L319 549L319 343L500 343L500 287Z"  horiz-adv-x="580" vert-adv-y="1000"  />

      
      <glyph glyph-name="uni2c" unicode="&#x2c;" d="M140 90L50-120L-31-120L47 100L140 100L140 90Z"  horiz-adv-x="220" vert-adv-y="1000"  />

      
      <glyph glyph-name="uni2d" unicode="&#x2d;" d="M242 255L32 255L32 311L242 311L242 255Z"  horiz-adv-x="274" vert-adv-y="1000"  />

      
      <glyph glyph-name="uni2e" unicode="&#x2e;" d="M55 96Q55 96 64 105Q73 114 101 114Q129 114 147 96Q165 78 165 50Q165 22 147 4Q129-14 101-14Q73-14 55 4Q37 22 37 50Q37 78 55 96Z"  horiz-adv-x="220" vert-adv-y="1000"  />

      
      <glyph glyph-name="uni2f" unicode="&#x2f;" d="M57-30L-5-30L246 720L308 720L57-30Z"  horiz-adv-x="303" vert-adv-y="1000"  />

      
      <glyph glyph-name="uni30" unicode="&#x30;" d="M41 345Q41 345 41 524.50Q41 704 290 704Q539 704 539 345Q539-14 290-14Q41-14 41 345M137 345Q137 345 137 199.50Q137 54 290 54Q443 54 443 345Q443 636 290 636Q137 636 137 345Z"  horiz-adv-x="580" vert-adv-y="1000"  />

      
      <glyph glyph-name="uni31" unicode="&#x31;" d="M406 690L406 0L320 0L320 599L130 486L130 577L276 668Q311 690 351 690L406 690Z"  horiz-adv-x="580" vert-adv-y="1000"  />

      
      <glyph glyph-name="uni32" unicode="&#x32;" d="M185 70L523 70L523 0L60 0L60 49L310 304Q376 372 403 414.50Q430 457 430 504Q430 561 397.50 598.50Q365 636 306 636Q180 636 164 484L163 474L77 474L78 484Q88 591 150 647.50Q212 704 316 704Q417 704 471.50 650Q526 596 526 514Q526 447 489 390.50Q452 334 358 241L185 70Z"  horiz-adv-x="580" vert-adv-y="1000"  />

      
      <glyph glyph-name="uni33" unicode="&#x33;" d="M396 367Q461 349 497.50 303.50Q534 258 534 192Q534 99 461 42.50Q388-14 284-14Q67-14 46 194L45 204L131 204L132 194Q139 124 182.50 89Q226 54 292 54Q357 54 397.50 89.50Q438 125 438 187Q438 314 274 314L257 314L257 384L274 384Q338 384 380 420Q422 456 422 519Q422 571 388.50 603.50Q355 636 300 636Q243 636 204.50 601.50Q166 567 159 501L158 491L72 491L73 501Q83 596 145 650Q207 704 311 704Q406 704 462 656Q518 608 518 529Q518 471 484.50 427Q451 383 396 367Z"  horiz-adv-x="580" vert-adv-y="1000"  />

      
      <glyph glyph-name="uni34" unicode="&#x34;" d="M548 174L461 174L461 0L375 0L375 174L33 174L33 217L375 690L461 690L461 244L548 244L548 174M375 244L375 575Q346 525 318 487L142 244L375 244Z"  horiz-adv-x="580" vert-adv-y="1000"  />

      
      <glyph glyph-name="uni35" unicode="&#x35;" d="M307 455Q418 455 477.50 391Q537 327 537 224Q537 115 464.50 50.50Q392-14 291-14Q78-14 58 183L57 193L143 193L145 183Q171 54 290 54Q359 54 400 97.50Q441 141 441 218Q441 296 402 341.50Q363 387 294 387Q197 387 150 289L68 289L116 690L508 690L508 620L186 620L155 380L198 426Q246 455 307 455Z"  horiz-adv-x="580" vert-adv-y="1000"  />

      
      <glyph glyph-name="uni36" unicode="&#x36;" d="M302 466Q408 466 469.50 401.50Q531 337 531 232Q531 123 462 54.50Q393-14 287-14Q43-14 43 312Q43 509 118.50 606.50Q194 704 310 704Q399 704 457 653.50Q515 603 523 518L524 508L432 508L430 518Q406 636 303 636Q147 636 137 360L176 422Q229 466 302 466M287 54Q352 54 393.50 100.50Q435 147 435 222Q435 300 398.50 349Q362 398 287 398Q225 398 184 352.50Q143 307 143 224Q143 151 183 102.50Q223 54 287 54Z"  horiz-adv-x="580" vert-adv-y="1000"  />

      
      <glyph glyph-name="uni37" unicode="&#x37;" d="M538 690L538 650L194 0L102 0L433 620L50 620L50 690L538 690Z"  horiz-adv-x="580" vert-adv-y="1000"  />

      
      <glyph glyph-name="uni38" unicode="&#x38;" d="M404 365Q461 346 498.50 299.50Q536 253 536 193Q536 88 464 36.50Q392-15 290-15Q182-15 113 36Q44 87 44 193Q44 253 83.50 299.50Q123 346 181 364Q133 383 103.50 423Q74 463 74 518Q74 603 134.50 653.50Q195 704 296 704Q397 704 457.50 653.50Q518 603 518 518Q518 463 486.50 423Q455 383 404 365M391.50 601.50Q391.50 601.50 374.75 618.75Q358 636 296 636Q234 636 200.50 601.50Q167 567 167 515Q167 460 200 426Q233 392 295 392Q357 392 391 426Q425 460 425 515Q425 567 391.50 601.50M292 53Q365 53 402.50 90Q440 127 440 189Q440 247 403 285.50Q366 324 291 324Q215 324 177.50 285.50Q140 247 140 189Q140 128 179 90.50Q218 53 292 53Z"  horiz-adv-x="580" vert-adv-y="1000"  />

      
      <glyph glyph-name="uni39" unicode="&#x39;" d="M293 704Q537 704 537 378Q537 181 461.50 83.50Q386-14 270-14Q181-14 123 36.50Q65 87 57 172L56 182L148 182L150 172Q174 54 277 54Q433 54 443 330L404 268Q351 224 278 224Q172 224 110.50 288.50Q49 353 49 458Q49 567 118 635.50Q187 704 293 704M293 292Q355 292 396 337.50Q437 383 437 466Q437 539 397 587.50Q357 636 293 636Q228 636 186.50 589.50Q145 543 145 468Q145 390 181.50 341Q218 292 293 292Z"  horiz-adv-x="580" vert-adv-y="1000"  />

      
      <glyph glyph-name="uni3a" unicode="&#x3a;" d="M55 526Q55 526 64 535Q73 544 101 544Q129 544 147 526Q165 508 165 480Q165 452 147 434Q129 416 101 416Q73 416 55 434Q37 452 37 480Q37 508 55 526M55 96Q55 96 64 105Q73 114 101 114Q129 114 147 96Q165 78 165 50Q165 22 147 4Q129-14 101-14Q73-14 55 4Q37 22 37 50Q37 78 55 96Z"  horiz-adv-x="220" vert-adv-y="1000"  />

      
      <glyph glyph-name="uni3b" unicode="&#x3b;" d="M55 526Q55 526 64 535Q73 544 101 544Q129 544 147 526Q165 508 165 480Q165 452 147 434Q129 416 101 416Q73 416 55 434Q37 452 37 480Q37 508 55 526M141 98L51-120L-31-120L47 110L141 110L141 98Z"  horiz-adv-x="220" vert-adv-y="1000"  />

      
      <glyph glyph-name="uni3c" unicode="&#x3c;" d="M504 432L162 266L504 100L504 30L103 231L103 299L504 500L504 432Z"  horiz-adv-x="580" vert-adv-y="1000"  />

      
      <glyph glyph-name="uni3d" unicode="&#x3d;" d="M500 387L80 387L80 443L500 443L500 387M500 187L80 187L80 243L500 243L500 187Z"  horiz-adv-x="580" vert-adv-y="1000"  />

      
      <glyph glyph-name="uni3e" unicode="&#x3e;" d="M469 299L469 231L68 30L68 98L410 264L68 430L68 500L469 299Z"  horiz-adv-x="580" vert-adv-y="1000"  />

      
      <glyph glyph-name="uni3f" unicode="&#x3f;" d="M260 704Q358 704 413 652.50Q468 601 468 521Q468 422 363 317Q318 272 302 244.50Q286 217 284 180L198 180Q203 225 219.50 258.50Q236 292 278 340Q332 402 352 439.50Q372 477 372 521Q372 573 341 604.50Q310 636 257 636Q200 636 164.50 599.50Q129 563 125 494L35 494Q38 590 99.50 647Q161 704 260 704M195 96Q195 96 204 105Q213 114 241 114Q269 114 287 96Q305 78 305 50Q305 22 287 4Q269-14 241-14Q213-14 195 4Q177 22 177 50Q177 78 195 96Z"  horiz-adv-x="499" vert-adv-y="1000"  />

      
      <glyph glyph-name="uni40" unicode="&#x40;" d="M634 465L571 201Q567 184 567 169Q567 133 605 133Q655 133 691.50 184Q728 235 728 329Q728 461 653 533.50Q578 606 466 606Q402 606 340 581.50Q278 557 228 512.50Q178 468 147 397.50Q116 327 116 244Q116 105 196 29.50Q276-46 399-46Q463-46 530-25.50Q597-5 650 34L674-15Q543-104 396-104Q253-104 153.50-13.50Q54 77 54 243Q54 339 90 420Q126 501 185 553.50Q244 606 317.50 635Q391 664 469 664Q611 664 700.50 572Q790 480 790 331Q790 205 728 140Q666 75 585 75Q496 75 485 147L464 106Q418 67 364 67Q307 67 265 105.50Q223 144 223 228Q223 330 284.50 406.50Q346 483 439 483Q499 483 527 452L536 404L553 465L634 465M498 251L507 290Q522 357 503.50 387Q485 417 445 417Q387 417 352 362Q317 307 317 234Q317 133 385 133Q424 133 455.50 168Q487 203 498 251Z"  horiz-adv-x="852" vert-adv-y="1000"  />

      
      <glyph glyph-name="uni41" unicode="&#x41;" d="M456 244L202 244L121 0L29 0L277 690L393 690L631 0L538 0L456 244M226 314L433 314L333 622L226 314Z"  horiz-adv-x="639" vert-adv-y="1000"  />

      
      <glyph glyph-name="uni42" unicode="&#x42;" d="M446 367Q517 351 552.50 311.50Q588 272 588 203Q588 115 537 66Q486 17 410 5Q376 0 322 0L100 0L100 690L303 690Q360 690 393 686Q563 663 563 518Q563 407 446 367M186 620L186 393L319 393Q347 393 374 397Q471 412 471 511Q471 606 365 618Q347 620 310 620L186 620M383 72Q434 77 465 108Q496 139 496 194Q496 304 384 319Q353 323 329 323L186 323L186 70L335 70Q357 70 383 72Z"  horiz-adv-x="627" vert-adv-y="1000"  />

      
      <glyph glyph-name="uni43" unicode="&#x43;" d="M373 704Q500 704 571.50 640Q643 576 654 470L655 460L569 460L567 470Q533 636 371 636Q267 636 205 554.50Q143 473 143 346Q143 217 203.50 135.50Q264 54 365 54Q527 54 561 220L563 230L649 230L648 220Q638 119 563.50 52.50Q489-14 360-14Q213-14 130 86Q47 186 47 342Q47 501 137 602.50Q227 704 373 704Z"  horiz-adv-x="699" vert-adv-y="1000"  />

      
      <glyph glyph-name="uni44" unicode="&#x44;" d="M398 686Q523 670 597 586Q671 502 671 353Q671 205 594 112Q517 19 393 4Q358 0 305 0L100 0L100 690L310 690Q363 690 398 686M384 75Q474 90 525.50 161.50Q577 233 577 353Q577 466 527.50 533.50Q478 601 389 615Q362 620 305 620L186 620L186 70L300 70Q356 70 384 75Z"  horiz-adv-x="709" vert-adv-y="1000"  />

      
      <glyph glyph-name="uni45" unicode="&#x45;" d="M559 70L559 0L100 0L100 690L549 690L549 620L186 620L186 380L519 380L519 310L186 310L186 70L559 70Z"  horiz-adv-x="587" vert-adv-y="1000"  />

      
      <glyph glyph-name="uni46" unicode="&#x46;" d="M186 620L186 380L509 380L509 310L186 310L186 0L100 0L100 690L549 690L549 620L186 620Z"  horiz-adv-x="567" vert-adv-y="1000"  />

      
      <glyph glyph-name="uni47" unicode="&#x47;" d="M399 333L646 333L646 0L570 0L570 120L539 56Q477-14 360-14Q213-14 130 86Q47 186 47 342Q47 501 137 602.50Q227 704 373 704Q500 704 571.50 640Q643 576 654 470L655 460L569 460L567 470Q533 636 371 636Q267 636 205 554.50Q143 473 143 346Q143 217 203.50 135.50Q264 54 365 54Q449 54 504.50 112.50Q560 171 560 263L399 263L399 333Z"  horiz-adv-x="710" vert-adv-y="1000"  />

      
      <glyph glyph-name="uni48" unicode="&#x48;" d="M652 690L652 0L566 0L566 302L186 302L186 0L100 0L100 690L186 690L186 374L566 374L566 690L652 690Z"  horiz-adv-x="730" vert-adv-y="1000"  />

      
      <glyph glyph-name="uni49" unicode="&#x49;" d="M186 0L100 0L100 690L186 690L186 0Z"  horiz-adv-x="264" vert-adv-y="1000"  />

      
      <glyph glyph-name="uni4a" unicode="&#x4a;" d="M488 690L488 264Q488 215 486 181Q481 90 425 38Q369-14 263-14Q167-14 112.50 41.50Q58 97 56 194L55 235L141 235L143 194Q150 54 275 54Q391 54 401 186Q402 206 402 267L402 690L488 690Z"  horiz-adv-x="544" vert-adv-y="1000"  />

      
      <glyph glyph-name="uni4b" unicode="&#x4b;" d="M315 353L610 0L489 0L252 295L186 224L186 0L100 0L100 690L186 690L186 323L527 690L628 690L315 353Z"  horiz-adv-x="609" vert-adv-y="1000"  />

      
      <glyph glyph-name="uni4c" unicode="&#x4c;" d="M559 70L559 0L100 0L100 690L186 690L186 70L559 70Z"  horiz-adv-x="575" vert-adv-y="1000"  />

      
      <glyph glyph-name="uni4d" unicode="&#x4d;" d="M788 690L788 0L702 0L702 355Q702 537 704 612Q669 498 620 356L498 0L390 0L266 358Q211 518 184 610Q186 535 186 355L186 0L100 0L100 690L242 690L446 73L649 690L788 690Z"  horiz-adv-x="866" vert-adv-y="1000"  />

      
      <glyph glyph-name="uni4e" unicode="&#x4e;" d="M640 0L508 0L183 606Q186 484 186 345L186 0L100 0L100 690L232 690L557 84Q554 205 554 345L554 690L638 690L640 0Z"  horiz-adv-x="718" vert-adv-y="1000"  />

      
      <glyph glyph-name="uni4f" unicode="&#x4f;" d="M133 605.50Q133 605.50 176 654.75Q219 704 373 704Q527 704 613 605.50Q699 507 699 345Q699 184 613 85Q527-14 373-14Q219-14 133 85Q47 184 47 345Q47 507 133 605.50M204 132Q204 132 234.50 93Q265 54 373 54Q481 54 542 132Q603 210 603 345Q603 481 542 558.50Q481 636 373 636Q265 636 204 558.50Q143 481 143 345Q143 210 204 132Z"  horiz-adv-x="737" vert-adv-y="1000"  />

      
      <glyph glyph-name="uni50" unicode="&#x50;" d="M404 686Q488 675 535.50 623.50Q583 572 583 486Q583 401 532.50 348.50Q482 296 404 286Q373 282 314 282L186 282L186 0L100 0L100 690L314 690Q373 690 404 686M399 359Q491 380 491 486Q491 592 399 613Q375 618 322 618L186 618L186 354L322 354Q375 354 399 359Z"  horiz-adv-x="598" vert-adv-y="1000"  />

      
      <glyph glyph-name="uni51" unicode="&#x51;" d="M573 72Q634 63 701 7L652-52Q572 2 517 2Q486 2 444-7Q413-14 373-14Q219-14 133 85Q47 184 47 345Q47 507 133 605.50Q219 704 373 704Q527 704 613 605.50Q699 507 699 345Q699 164 573 72M143 345Q143 210 204 132Q265 54 373 54Q481 54 542 132Q603 210 603 345Q603 481 542 558.50Q481 636 373 636Q265 636 204 558.50Q143 481 143 345Z"  horiz-adv-x="733" vert-adv-y="1000"  />

      
      <glyph glyph-name="uni52" unicode="&#x52;" d="M554 181Q566 45 600 0L505 0Q480 57 468 173Q455 289 365 296Q349 297 316 297L186 297L186 0L100 0L100 690L326 690Q385 690 416 686Q496 676 542 630.50Q588 585 588 502Q588 438 553 397Q518 356 465 339Q543 303 554 181M186 367L318 367Q366 367 385 369Q435 374 465.50 406Q496 438 496 494Q496 600 395 616Q370 620 326 620L186 620L186 367Z"  horiz-adv-x="619" vert-adv-y="1000"  />

      
      <glyph glyph-name="uni53" unicode="&#x53;" d="M314 704Q417 704 476 648Q535 592 545 499L453 499Q447 565 409.50 600.50Q372 636 307 636Q249 636 212.50 609Q176 582 176 530Q176 475 209.50 446Q243 417 324 399Q441 372 496.50 321.50Q552 271 552 185Q552 96 484.50 41Q417-14 315-14Q201-14 132 41Q63 96 52 196L144 196Q159 128 204 91Q249 54 317 54Q378 54 419 85Q460 116 460 169Q460 231 421.50 264.50Q383 298 291 319Q191 342 137.50 386Q84 430 84 510Q84 597 150 650.50Q216 704 314 704Z"  horiz-adv-x="585" vert-adv-y="1000"  />

      
      <glyph glyph-name="uni54" unicode="&#x54;" d="M612 620L366 620L366 0L280 0L280 620L34 620L34 690L612 690L612 620Z"  horiz-adv-x="612" vert-adv-y="1000"  />

      
      <glyph glyph-name="uni55" unicode="&#x55;" d="M612 690L612 255Q612 213 610 193Q602 101 537.50 43.50Q473-14 353-14Q233-14 168.50 43.50Q104 101 96 193Q94 213 94 255L94 690L180 690L180 263Q180 220 182 202Q188 134 232 94Q276 54 353 54Q430 54 474 94Q518 134 524 202Q526 220 526 263L526 690L612 690Z"  horiz-adv-x="682" vert-adv-y="1000"  />

      
      <glyph glyph-name="uni56" unicode="&#x56;" d="M386 0L270 0L32 690L125 690L330 65L542 690L634 690L386 0Z"  horiz-adv-x="622" vert-adv-y="1000"  />

      
      <glyph glyph-name="uni57" unicode="&#x57;" d="M945 690L753 0L640 0L484 595L322 0L208 0L26 690L124 690L269 77L429 680L545 680L701 76L854 690L945 690Z"  horiz-adv-x="952" vert-adv-y="1000"  />

      
      <glyph glyph-name="uni58" unicode="&#x58;" d="M522 0L320 292L124 0L25 0L271 348L43 690L141 690L324 408L514 690L613 690L373 351L623 0L522 0Z"  horiz-adv-x="625" vert-adv-y="1000"  />

      
      <glyph glyph-name="uni59" unicode="&#x59;" d="M349 272L349 0L263 0L263 272L19 690L118 690L310 355L496 690L593 690L349 272Z"  horiz-adv-x="581" vert-adv-y="1000"  />

      
      <glyph glyph-name="uni5a" unicode="&#x5a;" d="M569 70L569 0L46 0L46 66L463 620L74 620L74 690L563 690L563 621L148 70L569 70Z"  horiz-adv-x="591" vert-adv-y="1000"  />

      
      <glyph glyph-name="uni5b" unicode="&#x5b;" d="M261 780L261 724L156 724L156-24L261-24L261-80L98-80L98 780L261 780Z"  horiz-adv-x="307" vert-adv-y="1000"  />

      
      <glyph glyph-name="uni5c" unicode="&#x5c;" d="M308-30L246-30L-5 720L57 720L308-30Z"  horiz-adv-x="303" vert-adv-y="1000"  />

      
      <glyph glyph-name="uni5d" unicode="&#x5d;" d="M197-80L34-80L34-24L139-24L139 724L34 724L34 780L197 780L197-80Z"  horiz-adv-x="295" vert-adv-y="1000"  />

      
      <glyph glyph-name="uni5e" unicode="&#x5e;" d="M432 215L291 560L150 215L80 215L256 616L324 616L500 215L432 215Z"  horiz-adv-x="580" vert-adv-y="1000"  />

      
      <glyph glyph-name="uni5f" unicode="&#x5f;" d="M450-86L50-86L50-30L450-30L450-86Z"  horiz-adv-x="500" vert-adv-y="1000"  />

      
      <glyph glyph-name="uni60" unicode="&#x60;" d="M182 580L126 580L41 690L121 690L182 580Z"  horiz-adv-x="300" vert-adv-y="1000"  />

      
      <glyph glyph-name="uni61" unicode="&#x61;" d="M378 0L369 76L340 19Q292-14 207-14Q132-14 84 26Q36 66 36 137Q36 228 108 273.50Q180 319 334 319L368 319L368 333Q368 377 366 397Q359 478 263 478Q158 478 149 366L59 366Q65 450 119.50 497Q174 544 263 544Q437 544 451 404Q454 373 454 334L454 135Q454 74 464 0L378 0M236 52Q297 52 332.50 91Q368 130 368 201L368 255Q130 273 130 144Q130 52 236 52Z"  horiz-adv-x="531" vert-adv-y="1000"  />

      
      <glyph glyph-name="uni62" unicode="&#x62;" d="M340 544Q453 544 517 468.50Q581 393 581 273Q581 134 506.50 60Q432-14 322-14Q287-14 250.50-4.50Q214 5 195 21L160 73L160 0L74 0L74 735L160 735L160 445L200 502Q250 544 340 544M322 52Q395 52 441 107Q487 162 487 263Q487 357 445.50 417.50Q404 478 327 478Q254 478 207 427.50Q160 377 160 270L160 241Q160 146 208.50 99Q257 52 322 52Z"  horiz-adv-x="611" vert-adv-y="1000"  />

      
      <glyph glyph-name="uni63" unicode="&#x63;" d="M279 544Q373 544 432 492Q491 440 503 352L413 352Q385 478 277 478Q211 478 167.50 425Q124 372 124 270Q124 161 165.50 106.50Q207 52 271 52Q324 52 359.50 82Q395 112 408 169L498 169Q479 79 418 32.50Q357-14 266-14Q160-14 95 55.50Q30 125 30 264Q30 393 102 468.50Q174 544 279 544Z"  horiz-adv-x="529" vert-adv-y="1000"  />

      
      <glyph glyph-name="uni64" unicode="&#x64;" d="M537 735L537 0L451 0L451 85L411 28Q361-14 271-14Q158-14 94 61.50Q30 137 30 257Q30 396 104.50 470Q179 544 289 544Q324 544 360.50 534.50Q397 525 416 509L451 457L451 735L537 735M284 52Q357 52 404 102.50Q451 153 451 260L451 289Q451 384 402.50 431Q354 478 289 478Q216 478 170 423Q124 368 124 267Q124 173 165.50 112.50Q207 52 284 52Z"  horiz-adv-x="615" vert-adv-y="1000"  />

      
      <glyph glyph-name="uni65" unicode="&#x65;" d="M509 280Q509 258 507 239L123 239Q129 140 170 96Q211 52 275 52Q328 52 365.50 83.50Q403 115 412 171L502 171Q487 80 422.50 33Q358-14 271-14Q163-14 96.50 57Q30 128 30 263Q30 390 101 467Q172 544 282 544Q389 544 449 471.50Q509 399 509 280M280 478Q216 478 173.50 433Q131 388 124 305L422 305Q409 478 280 478Z"  horiz-adv-x="549" vert-adv-y="1000"  />

      
      <glyph glyph-name="uni66" unicode="&#x66;" d="M167 632Q164 611 164 578L164 526L273 526L273 460L164 460L164 0L78 0L78 460L21 460L21 526L78 526L78 570Q78 607 81 634Q88 691 124.50 722.50Q161 754 221 754Q252 754 282 749L282 678Q178 697 167 632Z"  horiz-adv-x="290" vert-adv-y="1000"  />

      
      <glyph glyph-name="uni67" unicode="&#x67;" d="M537 530L537 130Q537 56 536 27Q532-88 466-149Q400-210 284-210Q64-210 47-35L46-25L133-25L134-34Q139-84 178-114Q217-144 284-144Q362-144 404.50-101.50Q447-59 450 18Q451 43 451 76L451 85L411 28Q361-14 271-14Q158-14 94 61.50Q30 137 30 257Q30 396 104.50 470Q179 544 289 544Q324 544 360.50 534.50Q397 525 416 509L451 457L451 530L537 530M284 52Q357 52 404 102.50Q451 153 451 260L451 289Q451 384 402.50 431Q354 478 289 478Q216 478 170 423Q124 368 124 267Q124 173 165.50 112.50Q207 52 284 52Z"  horiz-adv-x="615" vert-adv-y="1000"  />

      
      <glyph glyph-name="uni68" unicode="&#x68;" d="M520 389Q522 362 522 298L522 0L436 0L436 292Q436 341 434 368Q430 418 400.50 447.50Q371 477 313 476Q244 474 202 417Q160 360 160 233L160 0L74 0L74 740L160 740L160 439L193 500Q250 544 331 544Q416 544 465 502Q514 460 520 389Z"  horiz-adv-x="593" vert-adv-y="1000"  />

      
      <glyph glyph-name="uni69" unicode="&#x69;" d="M78 688Q78 688 86 696Q94 704 117 704Q140 704 156 688Q172 672 172 649Q172 626 156 610Q140 594 117 594Q94 594 78 610Q62 626 62 649Q62 672 78 688M160 0L74 0L74 530L160 530L160 0Z"  horiz-adv-x="238" vert-adv-y="1000"  />

      
      <glyph glyph-name="uni6a" unicode="&#x6a;" d="M73 688Q73 688 81 696Q89 704 112 704Q135 704 151 688Q167 672 167 649Q167 626 151 610Q135 594 112 594Q89 594 73 610Q57 626 57 649Q57 672 73 688M155 530L155-46Q155-83 152-110Q141-210 28-210Q0-210-13-208L-13-138Q61-145 67-94Q69-80 69-50L69 530L155 530Z"  horiz-adv-x="233" vert-adv-y="1000"  />

      
      <glyph glyph-name="uni6b" unicode="&#x6b;" d="M403 0L210 224L160 169L160 0L74 0L74 735L160 735L160 263L407 530L517 530L270 280L520 0L403 0Z"  horiz-adv-x="522" vert-adv-y="1000"  />

      
      <glyph glyph-name="uni6c" unicode="&#x6c;" d="M156 735L156 152Q156 119 157 102Q159 76 173 67Q187 58 222 62L222 0Q197-4 161-4Q119-4 96 14Q73 32 71 79Q70 97 70 149L70 735L156 735Z"  horiz-adv-x="247" vert-adv-y="1000"  />

      
      <glyph glyph-name="uni6d" unicode="&#x6d;" d="M779 415Q784 381 784 324L784 0L698 0L698 284Q698 351 694 387Q682 476 588 476Q472 476 472 262L472 0L386 0L386 284Q386 351 382 387Q370 476 276 476Q160 476 160 262L160 0L74 0L74 530L160 530L160 453L194 513Q232 544 306 544Q365 544 404 517Q443 490 459 445L506 513Q544 544 618 544Q686 544 728 508.50Q770 473 779 415Z"  horiz-adv-x="855" vert-adv-y="1000"  />

      
      <glyph glyph-name="uni6e" unicode="&#x6e;" d="M520 389Q522 362 522 298L522 0L436 0L436 292Q436 341 434 368Q425 476 313 476Q245 476 202.50 418Q160 360 160 233L160 0L74 0L74 530L160 530L160 439L193 500Q250 544 331 544Q416 544 465 502Q514 460 520 389Z"  horiz-adv-x="593" vert-adv-y="1000"  />

      
      <glyph glyph-name="uni6f" unicode="&#x6f;" d="M97.50 464.50Q97.50 464.50 131.25 504.25Q165 544 293 544Q421 544 488.50 464.50Q556 385 556 265Q556 145 488.50 65.50Q421-14 293-14Q165-14 97.50 65.50Q30 145 30 265Q30 385 97.50 464.50M169 111Q169 111 191.50 81.50Q214 52 293 52Q372 52 417 111Q462 170 462 265Q462 361 417 419.50Q372 478 293 478Q214 478 169 419.50Q124 361 124 265Q124 170 169 111Z"  horiz-adv-x="586" vert-adv-y="1000"  />

      
      <glyph glyph-name="uni70" unicode="&#x70;" d="M340 544Q453 544 517 468.50Q581 393 581 273Q581 134 506.50 60Q432-14 322-14Q287-14 250.50-4.50Q214 5 195 21L160 73L160-196L74-196L74 530L160 530L160 445L200 502Q250 544 340 544M322 52Q395 52 441 107Q487 162 487 263Q487 357 445.50 417.50Q404 478 327 478Q254 478 207 427.50Q160 377 160 270L160 241Q160 146 208.50 99Q257 52 322 52Z"  horiz-adv-x="611" vert-adv-y="1000"  />

      
      <glyph glyph-name="uni71" unicode="&#x71;" d="M537 530L537-196L451-196L451 85L411 28Q361-14 271-14Q158-14 94 61.50Q30 137 30 257Q30 396 104.50 470Q179 544 289 544Q324 544 360.50 534.50Q397 525 416 509L451 457L451 530L537 530M284 52Q357 52 404 102.50Q451 153 451 260L451 289Q451 384 402.50 431Q354 478 289 478Q216 478 170 423Q124 368 124 267Q124 173 165.50 112.50Q207 52 284 52Z"  horiz-adv-x="615" vert-adv-y="1000"  />

      
      <glyph glyph-name="uni72" unicode="&#x72;" d="M282 542Q304 542 318 535L318 470Q247 475 203.50 432Q160 389 160 302L160 0L74 0L74 530L160 530L160 447L208 518Q243 542 282 542Z"  horiz-adv-x="330" vert-adv-y="1000"  />

      
      <glyph glyph-name="uni73" unicode="&#x73;" d="M228 544Q315 544 364.50 499Q414 454 423 379L333 379Q314 478 221 478Q178 478 155.50 456.50Q133 435 133 399Q133 362 161 342Q189 322 249 306Q342 281 385.50 241.50Q429 202 429 136Q429 64 374.50 25Q320-14 232-14Q146-14 91 28Q36 70 24 156L114 156Q133 52 238 52Q283 52 312 72Q341 92 341 129Q341 167 312.50 190Q284 213 216 231Q134 253 89.50 289Q45 325 45 389Q45 461 95 502.50Q145 544 228 544Z"  horiz-adv-x="459" vert-adv-y="1000"  />

      
      <glyph glyph-name="uni74" unicode="&#x74;" d="M177 460L177 155Q177 128 178 114Q181 76 200 65Q219 54 270 60L270-3Q239-8 197-8Q147-8 121.50 14Q96 36 92 85Q91 99 91 151L91 460L20 460L20 526L91 526L91 649L177 649L177 526L276 526L276 460L177 460Z"  horiz-adv-x="313" vert-adv-y="1000"  />

      
      <glyph glyph-name="uni75" unicode="&#x75;" d="M514 530L514 0L428 0L428 90L395 28Q338-14 257-14Q178-14 129.50 24.50Q81 63 71 121Q66 155 66 212L66 530L152 530L152 228Q152 191 156 155Q162 109 194 81.50Q226 54 279 54Q347 54 387.50 111.50Q428 169 428 297L428 530L514 530Z"  horiz-adv-x="592" vert-adv-y="1000"  />

      
      <glyph glyph-name="uni76" unicode="&#x76;" d="M508 530L307 0L202 0L1 530L96 530L258 63L417 530L508 530Z"  horiz-adv-x="514" vert-adv-y="1000"  />

      
      <glyph glyph-name="uni77" unicode="&#x77;" d="M779 530L610 0L508 0L390 446L272 0L170 0L1 530L100 530L223 82L339 530L446 530L564 85L687 530L779 530Z"  horiz-adv-x="785" vert-adv-y="1000"  />

      
      <glyph glyph-name="uni78" unicode="&#x78;" d="M282 270L470 0L370 0L231 213L93 0L-6 0L184 268L1 530L103 530L236 325L369 530L468 530L282 270Z"  horiz-adv-x="482" vert-adv-y="1000"  />

      
      <glyph glyph-name="uni79" unicode="&#x79;" d="M507 530L289-45Q256-130 211.50-170Q167-210 103-210Q72-210 59-208L59-138Q72-139 90-139Q131-139 158-118Q185-97 205-46L212-27L1 530L98 530L256 64L413 530L507 530Z"  horiz-adv-x="513" vert-adv-y="1000"  />

      
      <glyph glyph-name="uni7a" unicode="&#x7a;" d="M433 68L433 0L20 0L20 66L328 458L42 458L42 526L428 526L428 457L122 68L433 68Z"  horiz-adv-x="462" vert-adv-y="1000"  />

      
      <glyph glyph-name="uni7b" unicode="&#x7b;" d="M270 724L258 724Q216 724 198.50 712Q181 700 181 675Q181 653 192 575Q205 484 205 452Q205 409 182 382.50Q159 356 118 351Q159 346 182 318.50Q205 291 205 248Q205 216 192 125Q181 47 181 25Q181 0 198.50-12Q216-24 258-24L270-24L270-80L259-80Q191-80 157-56.50Q123-33 123 26Q123 50 135 135Q146 211 146 245Q146 314 64 322L64 378Q146 386 146 455Q146 489 135 565Q123 650 123 674Q123 733 157 756.50Q191 780 259 780L270 780L270 724Z"  horiz-adv-x="303" vert-adv-y="1000"  />

      
      <glyph glyph-name="uni7c" unicode="&#x7c;" d="M154-200L96-200L96 800L154 800L154-200Z"  horiz-adv-x="250" vert-adv-y="1000"  />

      
      <glyph glyph-name="uni7d" unicode="&#x7d;" d="M239 378L239 322Q157 314 157 245Q157 211 168 135Q180 50 180 26Q180-33 146-56.50Q112-80 44-80L33-80L33-24L45-24Q87-24 104.50-12Q122 0 122 25Q122 47 111 125Q98 216 98 248Q98 291 121 317.50Q144 344 185 349Q144 354 121 381.50Q98 409 98 452Q98 484 111 575Q122 653 122 675Q122 700 104.50 712Q87 724 45 724L33 724L33 780L44 780Q112 780 146 756.50Q180 733 180 674Q180 650 168 565Q157 489 157 455Q157 386 239 378Z"  horiz-adv-x="303" vert-adv-y="1000"  />

      
      <glyph glyph-name="uni7e" unicode="&#x7e;" d="M446 356L502 356Q502 223 392 223Q365 223 343 231.50Q321 240 276 264Q211 299 182 299Q133 299 133 223L77 223Q77 356 187 356Q214 356 236 347.50Q258 339 303 315Q368 280 397 280Q446 280 446 356Z"  horiz-adv-x="580" vert-adv-y="1000"  />

      
      <glyph glyph-name="unia1" unicode="&#xa1;" d="M167 434Q167 434 158 425Q149 416 121 416Q93 416 75 434Q57 452 57 480Q57 508 75 526Q93 544 121 544Q149 544 167 526Q185 508 185 480Q185 452 167 434M82 350L160 350L172-160L70-160L82 350Z"  horiz-adv-x="242" vert-adv-y="1000"  />

      
      <glyph glyph-name="unia2" unicode="&#xa2;" d="M319 476L319 54Q404 70 427 169L517 169Q500 87 448.50 41.50Q397-4 319-12L319-90L261-90L261-13Q164-5 106.50 64Q49 133 49 264Q49 380 109.50 453.50Q170 527 261 541L261 620L319 620L319 543Q404 538 457.50 486.50Q511 435 522 352L432 352Q407 464 319 476M143 270Q143 174 175.50 120Q208 66 261 55L261 474Q208 461 175.50 409.50Q143 358 143 270Z"  horiz-adv-x="560" vert-adv-y="1000"  />

      
      <glyph glyph-name="unia3" unicode="&#xa3;" d="M518 70L518 0L68 0L68 62Q177 89 177 200Q177 257 150 317L77 317L77 373L123 373Q92 443 92 498Q92 589 153.50 646.50Q215 704 306 704Q403 704 456.50 650.50Q510 597 516 508L424 508Q415 573 385.50 604.50Q356 636 304 636Q248 636 218 600Q188 564 188 515Q188 477 195.50 449Q203 421 225 373L441 373L441 317L248 317Q268 266 268 215Q268 166 250 133Q232 100 192 70L518 70Z"  horiz-adv-x="580" vert-adv-y="1000"  />

      
      <glyph glyph-name="unia4" unicode="&#xa4;" d="M470 301Q470 243 437 196L497 136L456 95L396 155Q347 121 290 121Q230 121 185 155L125 96L84 137L144 196Q110 241 110 301Q110 358 144 407L84 467L125 508L185 448Q232 481 290 481Q350 481 395 447L456 508L497 467L436 406Q470 361 470 301M205.50 213.50Q205.50 213.50 222.25 196.25Q239 179 290 179Q341 179 374.50 213.50Q408 248 408 301Q408 354 374.50 388.50Q341 423 290 423Q239 423 205.50 388.50Q172 354 172 301Q172 248 205.50 213.50Z"  horiz-adv-x="580" vert-adv-y="1000"  />

      
      <glyph glyph-name="unia5" unicode="&#xa5;" d="M373 357L495 357L495 301L342 301L333 285L333 237L495 237L495 181L333 181L333 0L247 0L247 181L85 181L85 237L247 237L247 285L238 301L85 301L85 357L207 357L23 690L129 690L294 359L456 690L557 690L373 357Z"  horiz-adv-x="580" vert-adv-y="1000"  />

      
      <glyph glyph-name="unia6" unicode="&#xa6;" d="M154 350L96 350L96 690L154 690L154 350M154-160L96-160L96 180L154 180L154-160Z"  horiz-adv-x="250" vert-adv-y="1000"  />

      
      <glyph glyph-name="unia7" unicode="&#xa7;" d="M531 246Q531 198 504 160Q477 122 432 101Q473 55 473-13Q473-90 415.50-132Q358-174 275-174Q187-174 131-130.50Q75-87 65 0L155 0Q182-108 281-108Q325-108 353-85Q381-62 381-20Q381 25 348 55Q315 85 231 106Q141 128 87 175.50Q33 223 33 294Q33 405 137 444Q97 487 97 546Q97 619 147.50 661.50Q198 704 277 704Q364 704 414 660Q464 616 472 538L382 538Q373 585 345.50 611.50Q318 638 277 638Q238 638 213.50 616Q189 594 189 555Q189 513 221.50 484.50Q254 456 324 436Q433 406 482 361.50Q531 317 531 246M364 149Q398 156 418.50 181Q439 206 439 236Q439 280 405 307.50Q371 335 291 360Q243 375 206 394Q169 391 147 367Q125 343 125 298Q125 258 162.50 227.50Q200 197 264 182Q320 169 364 149Z"  horiz-adv-x="560" vert-adv-y="1000"  />

      
      <glyph glyph-name="unia8" unicode="&#xa8;" d="M44.50 661.50Q44.50 661.50 51.25 668.25Q58 675 77 675Q96 675 109.50 661.50Q123 648 123 629Q123 610 109.50 596.50Q96 583 77 583Q58 583 44.50 596.50Q31 610 31 629Q31 648 44.50 661.50M190.50 661.50Q190.50 661.50 197.25 668.25Q204 675 223 675Q242 675 255.50 661.50Q269 648 269 629Q269 610 255.50 596.50Q242 583 223 583Q204 583 190.50 596.50Q177 610 177 629Q177 648 190.50 661.50Z"  horiz-adv-x="300" vert-adv-y="1000"  />

      
      <glyph glyph-name="unia9" unicode="&#xa9;" d="M146.50 632Q146.50 632 201.75 688Q257 744 419 744Q581 744 691.50 632Q802 520 802 355Q802 190 691.50 78Q581-34 419-34Q257-34 146.50 78Q36 190 36 355Q36 520 146.50 632M647.50 590.50Q647.50 590.50 601.25 638.25Q555 686 419 686Q283 686 190.50 590.50Q98 495 98 355Q98 214 190.50 119Q283 24 419 24Q555 24 647.50 119Q740 214 740 355Q740 495 647.50 590.50M425 586Q505 586 556.50 542Q608 498 623 425L531 425Q513 518 425 518Q367 518 336 474.50Q305 431 305 356Q305 281 337.50 236.50Q370 192 425 192Q467 192 495.50 218.50Q524 245 530 285L622 285Q604 210 553 167Q502 124 416 124Q324 124 266.50 187Q209 250 209 353Q209 460 268 523Q327 586 425 586Z"  horiz-adv-x="838" vert-adv-y="1000"  />

      
      <glyph glyph-name="uniab" unicode="&#xab;" d="M330 414L193 248L330 82L257 82L120 248L257 414L330 414M500 414L363 248L500 82L427 82L290 248L427 414L500 414Z"  horiz-adv-x="557" vert-adv-y="1000"  />

      
      <glyph glyph-name="uniac" unicode="&#xac;" d="M469 210L411 210L411 328L100 328L100 384L469 384L469 210Z"  horiz-adv-x="580" vert-adv-y="1000"  />

      
      <glyph glyph-name="uniae" unicode="&#xae;" d="M103 705Q103 705 132.50 734.50Q162 764 254 764Q346 764 405 705Q464 646 464 554Q464 462 405 403Q346 344 254 344Q162 344 103 403Q44 462 44 554Q44 646 103 705M137.50 436Q137.50 436 160.25 413Q183 390 254 390Q325 390 370.50 436Q416 482 416 554Q416 626 370.50 672Q325 718 254 718Q183 718 137.50 672Q92 626 92 554Q92 482 137.50 436M300 553Q328 548 332 509Q336 475 345 455L288 455Q284 471 281 500Q278 523 252 523L229 523L229 455L179 455L179 659L249 659Q267 659 276 658Q343 651 343 603Q343 567 300 553M268 566Q288 570 288 592Q288 612 268 617Q262 618 249 618L229 618L229 565L249 565Q262 565 268 566Z"  horiz-adv-x="508" vert-adv-y="1000"  />

      
      <glyph glyph-name="uniaf" unicode="&#xaf;" d="M270 604L30 604L30 656L270 656L270 604Z"  horiz-adv-x="300" vert-adv-y="1000"  />

      
      <glyph glyph-name="unib0" unicode="&#xb0;" d="M62 671Q62 671 79 687.50Q96 704 149 704Q202 704 236 671Q270 638 270 585Q270 532 236 499Q202 466 149 466Q96 466 62 499Q28 532 28 585Q28 638 62 671M191.50 630.50Q191.50 630.50 183.25 639.25Q175 648 149 648Q123 648 106.50 630.50Q90 613 90 585Q90 557 106.50 539.50Q123 522 149 522Q175 522 191.50 539.50Q208 557 208 585Q208 613 191.50 630.50Z"  horiz-adv-x="298" vert-adv-y="1000"  />

      
      <glyph glyph-name="unib1" unicode="&#xb1;" d="M319 347L500 347L500 291L319 291L319 111L261 111L261 291L80 291L80 347L261 347L261 523L319 523L319 347M500 0L80 0L80 56L500 56L500 0Z"  horiz-adv-x="580" vert-adv-y="1000"  />

      
      <glyph glyph-name="unib4" unicode="&#xb4;" d="M172 580L116 580L177 690L257 690L172 580Z"  horiz-adv-x="300" vert-adv-y="1000"  />

      
      <glyph glyph-name="unib6" unicode="&#xb6;" d="M488 690L488-110L430-110L430 634L338 634L338-110L280-110L280 320L257 320Q218 320 201 321Q127 325 85.50 377.50Q44 430 44 505Q44 580 85.50 632.50Q127 685 201 689Q218 690 257 690L488 690Z"  horiz-adv-x="566" vert-adv-y="1000"  />

      
      <glyph glyph-name="unib7" unicode="&#xb7;" d="M52 354Q52 354 62 364Q72 374 101 374Q130 374 150 354Q170 334 170 305Q170 276 150 256Q130 236 101 236Q72 236 52 256Q32 276 32 305Q32 334 52 354Z"  horiz-adv-x="202" vert-adv-y="1000"  />

      
      <glyph glyph-name="unib8" unicode="&#xb8;" d="M185 9L158-40Q239-51 239-123Q239-164 205.50-187Q172-210 116-210Q87-210 66-201L66-157Q87-168 119-168Q181-168 181-124Q181-71 85-78L132 9L185 9Z"  horiz-adv-x="300" vert-adv-y="1000"  />

      
      <glyph glyph-name="unibb" unicode="&#xbb;" d="M267 248L130 82L57 82L194 248L57 414L130 414L267 248M437 248L300 82L227 82L364 248L227 414L300 414L437 248Z"  horiz-adv-x="557" vert-adv-y="1000"  />

      
      <glyph glyph-name="unibf" unicode="&#xbf;" d="M339 434Q339 434 330 425Q321 416 293 416Q265 416 247 434Q229 452 229 480Q229 508 247 526Q265 544 293 544Q321 544 339 526Q357 508 357 480Q357 452 339 434M274-174Q176-174 121-122.50Q66-71 66 9Q66 108 171 213Q216 258 232 285.50Q248 313 250 350L336 350Q331 305 314.50 271.50Q298 238 256 190Q202 128 182 90.50Q162 53 162 9Q162-43 193-74.50Q224-106 277-106Q334-106 369.50-69.50Q405-33 409 36L499 36Q496-60 434.50-117Q373-174 274-174Z"  horiz-adv-x="491" vert-adv-y="1000"  />

      
      <glyph glyph-name="unic0" unicode="&#xc0;" d="M311 736L233 830L313 830L367 736L311 736M456 244L202 244L121 0L29 0L277 690L393 690L631 0L538 0L456 244M226 314L433 314L333 622L226 314Z"  horiz-adv-x="639" vert-adv-y="1000"  />

      
      <glyph glyph-name="unic1" unicode="&#xc1;" d="M358 736L302 736L356 830L436 830L358 736M456 244L202 244L121 0L29 0L277 690L393 690L631 0L538 0L456 244M226 314L433 314L333 622L226 314Z"  horiz-adv-x="639" vert-adv-y="1000"  />

      
      <glyph glyph-name="unic2" unicode="&#xc2;" d="M305 736L239 736L306 830L365 830L432 736L365 736L335 791L305 736M456 244L202 244L121 0L29 0L277 690L393 690L631 0L538 0L456 244M226 314L433 314L333 622L226 314Z"  horiz-adv-x="639" vert-adv-y="1000"  />

      
      <glyph glyph-name="unic3" unicode="&#xc3;" d="M283 770Q267 770 267 750L229 750Q229 790 242 805.50Q255 821 281 821Q304 821 343 808Q376 797 387 797Q403 797 403 817L441 817Q441 777 428 761.50Q415 746 389 746Q366 746 327 759Q294 770 283 770M456 244L202 244L121 0L29 0L277 690L393 690L631 0L538 0L456 244M226 314L433 314L333 622L226 314Z"  horiz-adv-x="639" vert-adv-y="1000"  />

      
      <glyph glyph-name="unic4" unicode="&#xc4;" d="M297.50 750.50Q297.50 750.50 290.75 743.75Q284 737 265 737Q246 737 232.50 750.50Q219 764 219 783Q219 802 232.50 815.50Q246 829 265 829Q284 829 297.50 815.50Q311 802 311 783Q311 764 297.50 750.50M437.50 750.50Q437.50 750.50 430.75 743.75Q424 737 405 737Q386 737 372.50 750.50Q359 764 359 783Q359 802 372.50 815.50Q386 829 405 829Q424 829 437.50 815.50Q451 802 451 783Q451 764 437.50 750.50M456 244L202 244L121 0L29 0L277 690L393 690L631 0L538 0L456 244M226 314L433 314L333 622L226 314Z"  horiz-adv-x="639" vert-adv-y="1000"  />

      
      <glyph glyph-name="unic5" unicode="&#xc5;" d="M400.50 738Q400.50 738 387.75 727Q375 716 335 716Q295 716 269.50 738Q244 760 244 795Q244 830 269.50 852Q295 874 335 874Q375 874 400.50 852Q426 830 426 795Q426 760 400.50 738M364.50 826Q364.50 826 358.75 832Q353 838 335 838Q317 838 305.50 826Q294 814 294 795Q294 776 305.50 764Q317 752 335 752Q353 752 364.50 764Q376 776 376 795Q376 814 364.50 826M456 244L202 244L121 0L29 0L277 690L393 690L631 0L538 0L456 244M226 314L433 314L333 622L226 314Z"  horiz-adv-x="639" vert-adv-y="1000"  />

      
      <glyph glyph-name="unic6" unicode="&#xc6;" d="M880 70L880 0L445 0L431 244L196 244L58 0L-35 0L363 690L870 690L870 620L495 620L509 380L840 380L840 310L513 310L527 70L880 70M426 314L409 621L235 314L426 314Z"  horiz-adv-x="908" vert-adv-y="1000"  />

      
      <glyph glyph-name="unic7" unicode="&#xc7;" d="M563 230L649 230L648 220Q638 121 566 54.50Q494-12 368-14L354-40Q435-51 435-123Q435-164 401.50-187Q368-210 312-210Q283-210 262-201L262-157Q283-168 315-168Q377-168 377-124Q377-71 281-78L317-12Q189 3 118 100.50Q47 198 47 342Q47 501 137 602.50Q227 704 373 704Q500 704 571.50 640Q643 576 654 470L655 460L569 460L567 470Q533 636 371 636Q267 636 205 554.50Q143 473 143 346Q143 217 203.50 135.50Q264 54 365 54Q527 54 561 220L563 230Z"  horiz-adv-x="699" vert-adv-y="1000"  />

      
      <glyph glyph-name="unic8" unicode="&#xc8;" d="M312 736L234 830L314 830L368 736L312 736M559 70L559 0L100 0L100 690L549 690L549 620L186 620L186 380L519 380L519 310L186 310L186 70L559 70Z"  horiz-adv-x="587" vert-adv-y="1000"  />

      
      <glyph glyph-name="unic9" unicode="&#xc9;" d="M359 736L303 736L357 830L437 830L359 736M559 70L559 0L100 0L100 690L549 690L549 620L186 620L186 380L519 380L519 310L186 310L186 70L559 70Z"  horiz-adv-x="587" vert-adv-y="1000"  />

      
      <glyph glyph-name="unica" unicode="&#xca;" d="M306 736L240 736L307 830L366 830L433 736L366 736L336 791L306 736M559 70L559 0L100 0L100 690L549 690L549 620L186 620L186 380L519 380L519 310L186 310L186 70L559 70Z"  horiz-adv-x="587" vert-adv-y="1000"  />

      
      <glyph glyph-name="unicb" unicode="&#xcb;" d="M298.50 750.50Q298.50 750.50 291.75 743.75Q285 737 266 737Q247 737 233.50 750.50Q220 764 220 783Q220 802 233.50 815.50Q247 829 266 829Q285 829 298.50 815.50Q312 802 312 783Q312 764 298.50 750.50M438.50 750.50Q438.50 750.50 431.75 743.75Q425 737 406 737Q387 737 373.50 750.50Q360 764 360 783Q360 802 373.50 815.50Q387 829 406 829Q425 829 438.50 815.50Q452 802 452 783Q452 764 438.50 750.50M559 70L559 0L100 0L100 690L549 690L549 620L186 620L186 380L519 380L519 310L186 310L186 70L559 70Z"  horiz-adv-x="587" vert-adv-y="1000"  />

      
      <glyph glyph-name="unicc" unicode="&#xcc;" d="M175 736L119 736L41 830L121 830L175 736M186 0L100 0L100 690L186 690L186 0Z"  horiz-adv-x="264" vert-adv-y="1000"  />

      
      <glyph glyph-name="unicd" unicode="&#xcd;" d="M166 736L110 736L164 830L244 830L166 736M186 0L100 0L100 690L186 690L186 0Z"  horiz-adv-x="264" vert-adv-y="1000"  />

      
      <glyph glyph-name="unice" unicode="&#xce;" d="M113 736L47 736L114 830L173 830L240 736L173 736L143 791L113 736M100 690L186 690L186 0L100 0L100 690Z"  horiz-adv-x="264" vert-adv-y="1000"  />

      
      <glyph glyph-name="unicf" unicode="&#xcf;" d="M40.50 815.50Q40.50 815.50 47.25 822.25Q54 829 73 829Q92 829 105.50 815.50Q119 802 119 783Q119 764 105.50 750.50Q92 737 73 737Q54 737 40.50 750.50Q27 764 27 783Q27 802 40.50 815.50M180.50 815.50Q180.50 815.50 187.25 822.25Q194 829 213 829Q232 829 245.50 815.50Q259 802 259 783Q259 764 245.50 750.50Q232 737 213 737Q194 737 180.50 750.50Q167 764 167 783Q167 802 180.50 815.50M186 0L100 0L100 690L186 690L186 0Z"  horiz-adv-x="264" vert-adv-y="1000"  />

      
      <glyph glyph-name="unid0" unicode="&#xd0;" d="M390 686Q515 670 589 586Q663 502 663 353Q663 205 586 112Q509 19 385 4Q350 0 297 0L92 0L92 305L33 305L33 361L92 361L92 690L302 690Q355 690 390 686M376 75Q466 90 517.50 161.50Q569 233 569 353Q569 466 519.50 533.50Q470 601 381 615Q353 620 297 620L178 620L178 361L314 361L314 305L178 305L178 70L292 70Q348 70 376 75Z"  horiz-adv-x="701" vert-adv-y="1000"  />

      
      <glyph glyph-name="unid1" unicode="&#xd1;" d="M316 821Q339 821 378 808Q411 797 422 797Q438 797 438 817L476 817Q476 777 463 761.50Q450 746 424 746Q401 746 362 759Q329 770 318 770Q302 770 302 750L264 750Q264 790 277 805.50Q290 821 316 821M640 0L508 0L183 606Q186 484 186 345L186 0L100 0L100 690L232 690L557 84Q554 205 554 345L554 690L638 690L640 0Z"  horiz-adv-x="718" vert-adv-y="1000"  />

      
      <glyph glyph-name="unid2" unicode="&#xd2;" d="M349 736L271 830L351 830L405 736L349 736M133 605.50Q133 605.50 176 654.75Q219 704 373 704Q527 704 613 605.50Q699 507 699 345Q699 184 613 85Q527-14 373-14Q219-14 133 85Q47 184 47 345Q47 507 133 605.50M204 132Q204 132 234.50 93Q265 54 373 54Q481 54 542 132Q603 210 603 345Q603 481 542 558.50Q481 636 373 636Q265 636 204 558.50Q143 481 143 345Q143 210 204 132Z"  horiz-adv-x="737" vert-adv-y="1000"  />

      
      <glyph glyph-name="unid3" unicode="&#xd3;" d="M396 736L340 736L394 830L474 830L396 736M133 605.50Q133 605.50 176 654.75Q219 704 373 704Q527 704 613 605.50Q699 507 699 345Q699 184 613 85Q527-14 373-14Q219-14 133 85Q47 184 47 345Q47 507 133 605.50M204 132Q204 132 234.50 93Q265 54 373 54Q481 54 542 132Q603 210 603 345Q603 481 542 558.50Q481 636 373 636Q265 636 204 558.50Q143 481 143 345Q143 210 204 132Z"  horiz-adv-x="737" vert-adv-y="1000"  />

      
      <glyph glyph-name="unid4" unicode="&#xd4;" d="M343 736L277 736L344 830L403 830L470 736L403 736L373 791L343 736M133 605.50Q133 605.50 176 654.75Q219 704 373 704Q527 704 613 605.50Q699 507 699 345Q699 184 613 85Q527-14 373-14Q219-14 133 85Q47 184 47 345Q47 507 133 605.50M204 132Q204 132 234.50 93Q265 54 373 54Q481 54 542 132Q603 210 603 345Q603 481 542 558.50Q481 636 373 636Q265 636 204 558.50Q143 481 143 345Q143 210 204 132Z"  horiz-adv-x="737" vert-adv-y="1000"  />

      
      <glyph glyph-name="unid5" unicode="&#xd5;" d="M321 770Q305 770 305 750L267 750Q267 790 280 805.50Q293 821 319 821Q342 821 381 808Q414 797 425 797Q441 797 441 817L479 817Q479 777 466 761.50Q453 746 427 746Q404 746 365 759Q332 770 321 770M133 605.50Q133 605.50 176 654.75Q219 704 373 704Q527 704 613 605.50Q699 507 699 345Q699 184 613 85Q527-14 373-14Q219-14 133 85Q47 184 47 345Q47 507 133 605.50M204 132Q204 132 234.50 93Q265 54 373 54Q481 54 542 132Q603 210 603 345Q603 481 542 558.50Q481 636 373 636Q265 636 204 558.50Q143 481 143 345Q143 210 204 132Z"  horiz-adv-x="737" vert-adv-y="1000"  />

      
      <glyph glyph-name="unid6" unicode="&#xd6;" d="M335.50 750.50Q335.50 750.50 328.75 743.75Q322 737 303 737Q284 737 270.50 750.50Q257 764 257 783Q257 802 270.50 815.50Q284 829 303 829Q322 829 335.50 815.50Q349 802 349 783Q349 764 335.50 750.50M475.50 750.50Q475.50 750.50 468.75 743.75Q462 737 443 737Q424 737 410.50 750.50Q397 764 397 783Q397 802 410.50 815.50Q424 829 443 829Q462 829 475.50 815.50Q489 802 489 783Q489 764 475.50 750.50M133 605.50Q133 605.50 176 654.75Q219 704 373 704Q527 704 613 605.50Q699 507 699 345Q699 184 613 85Q527-14 373-14Q219-14 133 85Q47 184 47 345Q47 507 133 605.50M204 132Q204 132 234.50 93Q265 54 373 54Q481 54 542 132Q603 210 603 345Q603 481 542 558.50Q481 636 373 636Q265 636 204 558.50Q143 481 143 345Q143 210 204 132Z"  horiz-adv-x="737" vert-adv-y="1000"  />

      
      <glyph glyph-name="unid7" unicode="&#xd7;" d="M331 314L469 176L428 135L290 273L152 135L111 176L249 314L111 452L152 493L290 355L428 493L469 452L331 314Z"  horiz-adv-x="580" vert-adv-y="1000"  />

      
      <glyph glyph-name="unid8" unicode="&#xd8;" d="M711 638L644 571Q703 480 703 345Q703 184 617 85Q531-14 377-14Q233-14 147 74L84 11L43 52L111 120Q51 210 51 345Q51 507 137 605.50Q223 704 377 704Q521 704 607 616L670 679L711 638M147 345Q147 252 176 185L548 557Q486 636 377 636Q269 636 208 558.50Q147 481 147 345M607 345Q607 438 578 505L207 134Q267 54 377 54Q485 54 546 132Q607 210 607 345Z"  horiz-adv-x="745" vert-adv-y="1000"  />

      
      <glyph glyph-name="unid9" unicode="&#xd9;" d="M385 736L329 736L251 830L331 830L385 736M612 690L612 255Q612 213 610 193Q602 101 537.50 43.50Q473-14 353-14Q233-14 168.50 43.50Q104 101 96 193Q94 213 94 255L94 690L180 690L180 263Q180 220 182 202Q188 134 232 94Q276 54 353 54Q430 54 474 94Q518 134 524 202Q526 220 526 263L526 690L612 690Z"  horiz-adv-x="682" vert-adv-y="1000"  />

      
      <glyph glyph-name="unida" unicode="&#xda;" d="M376 736L320 736L374 830L454 830L376 736M612 690L612 255Q612 213 610 193Q602 101 537.50 43.50Q473-14 353-14Q233-14 168.50 43.50Q104 101 96 193Q94 213 94 255L94 690L180 690L180 263Q180 220 182 202Q188 134 232 94Q276 54 353 54Q430 54 474 94Q518 134 524 202Q526 220 526 263L526 690L612 690Z"  horiz-adv-x="682" vert-adv-y="1000"  />

      
      <glyph glyph-name="unidb" unicode="&#xdb;" d="M323 736L257 736L324 830L383 830L450 736L383 736L353 791L323 736M612 690L612 255Q612 213 610 193Q602 101 537.50 43.50Q473-14 353-14Q233-14 168.50 43.50Q104 101 96 193Q94 213 94 255L94 690L180 690L180 263Q180 220 182 202Q188 134 232 94Q276 54 353 54Q430 54 474 94Q518 134 524 202Q526 220 526 263L526 690L612 690Z"  horiz-adv-x="682" vert-adv-y="1000"  />

      
      <glyph glyph-name="unidc" unicode="&#xdc;" d="M250.50 815.50Q250.50 815.50 257.25 822.25Q264 829 283 829Q302 829 315.50 815.50Q329 802 329 783Q329 764 315.50 750.50Q302 737 283 737Q264 737 250.50 750.50Q237 764 237 783Q237 802 250.50 815.50M390.50 815.50Q390.50 815.50 397.25 822.25Q404 829 423 829Q442 829 455.50 815.50Q469 802 469 783Q469 764 455.50 750.50Q442 737 423 737Q404 737 390.50 750.50Q377 764 377 783Q377 802 390.50 815.50M612 690L612 255Q612 213 610 193Q602 101 537.50 43.50Q473-14 353-14Q233-14 168.50 43.50Q104 101 96 193Q94 213 94 255L94 690L180 690L180 263Q180 220 182 202Q188 134 232 94Q276 54 353 54Q430 54 474 94Q518 134 524 202Q526 220 526 263L526 690L612 690Z"  horiz-adv-x="682" vert-adv-y="1000"  />

      
      <glyph glyph-name="unidd" unicode="&#xdd;" d="M329 736L273 736L327 830L407 830L329 736M349 272L349 0L263 0L263 272L19 690L118 690L310 355L496 690L593 690L349 272Z"  horiz-adv-x="581" vert-adv-y="1000"  />

      
      <glyph glyph-name="unide" unicode="&#xde;" d="M409 598Q487 588 535 539Q583 490 583 408Q583 326 535 275.50Q487 225 409 215Q378 211 319 211L186 211L186 0L100 0L100 690L186 690L186 602L319 602Q378 602 409 598M396 288Q491 309 491 406Q491 504 396 525Q372 530 319 530L186 530L186 283L319 283Q372 283 396 288Z"  horiz-adv-x="630" vert-adv-y="1000"  />

      
      <glyph glyph-name="unidf" unicode="&#xdf;" d="M306 754Q407 754 466.50 706Q526 658 526 579Q526 526 495 476Q418 435 418 398Q418 372 432 352Q446 332 483 302Q528 265 548 229.50Q568 194 568 142Q568 75 514 35.50Q460-4 380-4Q331-4 282 6L282 75Q334 62 376 62Q424 62 448 85.50Q472 109 472 149Q472 176 459 200Q446 224 408 257Q359 300 340.50 328.50Q322 357 322 398Q322 470 412 514Q430 545 430 578Q430 629 397.50 657.50Q365 686 302 686Q244 686 205.50 649Q167 612 162 542Q160 514 160 488L160 0L74 0L74 480Q74 508 76 544Q82 647 145.50 700.50Q209 754 306 754Z"  horiz-adv-x="608" vert-adv-y="1000"  />

      
      <glyph glyph-name="unie0" unicode="&#xe0;" d="M240 580L155 690L235 690L296 580L240 580M378 0L369 76L340 19Q292-14 207-14Q132-14 84 26Q36 66 36 137Q36 228 108 273.50Q180 319 334 319L368 319L368 333Q368 377 366 397Q359 478 263 478Q158 478 149 366L59 366Q65 450 119.50 497Q174 544 263 544Q437 544 451 404Q454 373 454 334L454 135Q454 74 464 0L378 0M236 52Q297 52 332.50 91Q368 130 368 201L368 255Q130 273 130 144Q130 52 236 52Z"  horiz-adv-x="531" vert-adv-y="1000"  />

      
      <glyph glyph-name="unie1" unicode="&#xe1;" d="M286 580L230 580L291 690L371 690L286 580M378 0L369 76L340 19Q292-14 207-14Q132-14 84 26Q36 66 36 137Q36 228 108 273.50Q180 319 334 319L368 319L368 333Q368 377 366 397Q359 478 263 478Q158 478 149 366L59 366Q65 450 119.50 497Q174 544 263 544Q437 544 451 404Q454 373 454 334L454 135Q454 74 464 0L378 0M236 52Q297 52 332.50 91Q368 130 368 201L368 255Q130 273 130 144Q130 52 236 52Z"  horiz-adv-x="531" vert-adv-y="1000"  />

      
      <glyph glyph-name="unie2" unicode="&#xe2;" d="M231 580L168 580L235 690L294 690L361 580L297 580L264 643L231 580M378 0L369 76L340 19Q292-14 207-14Q132-14 84 26Q36 66 36 137Q36 228 108 273.50Q180 319 334 319L368 319L368 333Q368 377 366 397Q359 478 263 478Q158 478 149 366L59 366Q65 450 119.50 497Q174 544 263 544Q437 544 451 404Q454 373 454 334L454 135Q454 74 464 0L378 0M236 52Q297 52 332.50 91Q368 130 368 201L368 255Q130 273 130 144Q130 52 236 52Z"  horiz-adv-x="531" vert-adv-y="1000"  />

      
      <glyph glyph-name="unie3" unicode="&#xe3;" d="M212 620Q196 620 196 600L158 600Q158 640 171 655.50Q184 671 210 671Q233 671 272 658Q305 647 316 647Q332 647 332 667L370 667Q370 627 357 611.50Q344 596 318 596Q295 596 256 609Q223 620 212 620M378 0L369 76L340 19Q292-14 207-14Q132-14 84 26Q36 66 36 137Q36 228 108 273.50Q180 319 334 319L368 319L368 333Q368 377 366 397Q359 478 263 478Q158 478 149 366L59 366Q65 450 119.50 497Q174 544 263 544Q437 544 451 404Q454 373 454 334L454 135Q454 74 464 0L378 0M236 52Q297 52 332.50 91Q368 130 368 201L368 255Q130 273 130 144Q130 52 236 52Z"  horiz-adv-x="531" vert-adv-y="1000"  />

      
      <glyph glyph-name="unie4" unicode="&#xe4;" d="M223.50 596.50Q223.50 596.50 216.75 589.75Q210 583 191 583Q172 583 158.50 596.50Q145 610 145 629Q145 648 158.50 661.50Q172 675 191 675Q210 675 223.50 661.50Q237 648 237 629Q237 610 223.50 596.50M369.50 596.50Q369.50 596.50 362.75 589.75Q356 583 337 583Q318 583 304.50 596.50Q291 610 291 629Q291 648 304.50 661.50Q318 675 337 675Q356 675 369.50 661.50Q383 648 383 629Q383 610 369.50 596.50M378 0L369 76L340 19Q292-14 207-14Q132-14 84 26Q36 66 36 137Q36 228 108 273.50Q180 319 334 319L368 319L368 333Q368 377 366 397Q359 478 263 478Q158 478 149 366L59 366Q65 450 119.50 497Q174 544 263 544Q437 544 451 404Q454 373 454 334L454 135Q454 74 464 0L378 0M236 52Q297 52 332.50 91Q368 130 368 201L368 255Q130 273 130 144Q130 52 236 52Z"  horiz-adv-x="531" vert-adv-y="1000"  />

      
      <glyph glyph-name="unie5" unicode="&#xe5;" d="M329.50 588.50Q329.50 588.50 316.75 576.75Q304 565 264 565Q224 565 198.50 588.50Q173 612 173 649Q173 686 198.50 709.50Q224 733 264 733Q304 733 329.50 709.50Q355 686 355 649Q355 612 329.50 588.50M293.50 684Q293.50 684 287.75 690.50Q282 697 264 697Q246 697 234.50 684Q223 671 223 649Q223 627 234.50 614Q246 601 264 601Q282 601 293.50 614Q305 627 305 649Q305 671 293.50 684M378 0L369 76L340 19Q292-14 207-14Q132-14 84 26Q36 66 36 137Q36 228 108 273.50Q180 319 334 319L368 319L368 333Q368 377 366 397Q359 478 263 478Q158 478 149 366L59 366Q65 450 119.50 497Q174 544 263 544Q437 544 451 404Q454 373 454 334L454 135Q454 74 464 0L378 0M236 52Q297 52 332.50 91Q368 130 368 201L368 255Q130 273 130 144Q130 52 236 52Z"  horiz-adv-x="531" vert-adv-y="1000"  />

      
      <glyph glyph-name="unie6" unicode="&#xe6;" d="M848 280Q848 258 846 239L464 239Q470 145 511 98.50Q552 52 614 52Q667 52 704.50 83.50Q742 115 751 171L841 171Q826 80 761.50 33Q697-14 610-14Q468-14 411 101L384 47Q314-14 214-14Q138-14 87 26Q36 66 36 137Q36 226 111 265.50Q186 305 344 305L378 305L378 333Q378 478 263 478Q154 478 149 366L59 366Q61 450 115.50 497Q170 544 263 544Q400 544 439 448Q502 544 621 544Q728 544 788 471.50Q848 399 848 280M464 305L761 305Q747 478 619 478Q554 478 513 433.50Q472 389 464 305M378 209L378 239Q251 244 190.50 224.50Q130 205 130 144Q130 52 236 52Q297 52 337.50 95Q378 138 378 209Z"  horiz-adv-x="888" vert-adv-y="1000"  />

      
      <glyph glyph-name="unie7" unicode="&#xe7;" d="M271 52Q324 52 359.50 82Q395 112 408 169L498 169Q480 82 423 36Q366-10 281-14L267-40Q348-51 348-123Q348-164 314.50-187Q281-210 225-210Q196-210 175-201L175-157Q196-168 228-168Q290-168 290-124Q290-71 194-78L230-12Q138-1 84 68Q30 137 30 264Q30 393 102 468.50Q174 544 279 544Q373 544 432 492Q491 440 503 352L413 352Q385 478 277 478Q211 478 167.50 425Q124 372 124 270Q124 161 165.50 106.50Q207 52 271 52Z"  horiz-adv-x="529" vert-adv-y="1000"  />

      
      <glyph glyph-name="unie8" unicode="&#xe8;" d="M253 580L168 690L248 690L309 580L253 580M509 280Q509 258 507 239L123 239Q129 140 170 96Q211 52 275 52Q328 52 365.50 83.50Q403 115 412 171L502 171Q487 80 422.50 33Q358-14 271-14Q163-14 96.50 57Q30 128 30 263Q30 390 101 467Q172 544 282 544Q389 544 449 471.50Q509 399 509 280M280 478Q216 478 173.50 433Q131 388 124 305L422 305Q409 478 280 478Z"  horiz-adv-x="549" vert-adv-y="1000"  />

      
      <glyph glyph-name="unie9" unicode="&#xe9;" d="M299 580L243 580L304 690L384 690L299 580M509 280Q509 258 507 239L123 239Q129 140 170 96Q211 52 275 52Q328 52 365.50 83.50Q403 115 412 171L502 171Q487 80 422.50 33Q358-14 271-14Q163-14 96.50 57Q30 128 30 263Q30 390 101 467Q172 544 282 544Q389 544 449 471.50Q509 399 509 280M280 478Q216 478 173.50 433Q131 388 124 305L422 305Q409 478 280 478Z"  horiz-adv-x="549" vert-adv-y="1000"  />

      
      <glyph glyph-name="uniea" unicode="&#xea;" d="M244 580L181 580L248 690L307 690L374 580L310 580L277 643L244 580M509 280Q509 258 507 239L123 239Q129 140 170 96Q211 52 275 52Q328 52 365.50 83.50Q403 115 412 171L502 171Q487 80 422.50 33Q358-14 271-14Q163-14 96.50 57Q30 128 30 263Q30 390 101 467Q172 544 282 544Q389 544 449 471.50Q509 399 509 280M280 478Q216 478 173.50 433Q131 388 124 305L422 305Q409 478 280 478Z"  horiz-adv-x="549" vert-adv-y="1000"  />

      
      <glyph glyph-name="unieb" unicode="&#xeb;" d="M236.50 596.50Q236.50 596.50 229.75 589.75Q223 583 204 583Q185 583 171.50 596.50Q158 610 158 629Q158 648 171.50 661.50Q185 675 204 675Q223 675 236.50 661.50Q250 648 250 629Q250 610 236.50 596.50M382.50 596.50Q382.50 596.50 375.75 589.75Q369 583 350 583Q331 583 317.50 596.50Q304 610 304 629Q304 648 317.50 661.50Q331 675 350 675Q369 675 382.50 661.50Q396 648 396 629Q396 610 382.50 596.50M509 280Q509 258 507 239L123 239Q129 140 170 96Q211 52 275 52Q328 52 365.50 83.50Q403 115 412 171L502 171Q487 80 422.50 33Q358-14 271-14Q163-14 96.50 57Q30 128 30 263Q30 390 101 467Q172 544 282 544Q389 544 449 471.50Q509 399 509 280M280 478Q216 478 173.50 433Q131 388 124 305L422 305Q409 478 280 478Z"  horiz-adv-x="549" vert-adv-y="1000"  />

      
      <glyph glyph-name="uniec" unicode="&#xec;" d="M149 580L93 580L8 690L88 690L149 580M160 0L74 0L74 530L160 530L160 0Z"  horiz-adv-x="238" vert-adv-y="1000"  />

      
      <glyph glyph-name="unied" unicode="&#xed;" d="M139 580L83 580L144 690L224 690L139 580M160 0L74 0L74 530L160 530L160 0Z"  horiz-adv-x="238" vert-adv-y="1000"  />

      
      <glyph glyph-name="uniee" unicode="&#xee;" d="M84 580L21 580L88 690L147 690L214 580L150 580L117 643L84 580M74 530L160 530L160 0L74 0L74 530Z"  horiz-adv-x="238" vert-adv-y="1000"  />

      
      <glyph glyph-name="unief" unicode="&#xef;" d="M11.50 661.50Q11.50 661.50 18.25 668.25Q25 675 44 675Q63 675 76.50 661.50Q90 648 90 629Q90 610 76.50 596.50Q63 583 44 583Q25 583 11.50 596.50Q-2 610-2 629Q-2 648 11.50 661.50M157.50 661.50Q157.50 661.50 164.25 668.25Q171 675 190 675Q209 675 222.50 661.50Q236 648 236 629Q236 610 222.50 596.50Q209 583 190 583Q171 583 157.50 596.50Q144 610 144 629Q144 648 157.50 661.50M160 0L74 0L74 530L160 530L160 0Z"  horiz-adv-x="238" vert-adv-y="1000"  />

      
      <glyph glyph-name="unif0" unicode="&#xf0;" d="M483 662L441 645Q538 533 538 307Q538 143 464 64.50Q390-14 277-14Q157-14 93.50 61Q30 136 30 257Q30 387 101 465.50Q172 544 272 544Q340 544 389 515L434 455Q427 552 366 614L228 557L208 609L317 654Q282 675 241 690L295 745Q352 722 396 687L463 714L483 662M444 260L444 289Q444 384 395.50 431Q347 478 282 478Q212 478 168 419.50Q124 361 124 267Q124 166 164.50 109Q205 52 283 52Q353 52 398.50 105Q444 158 444 260Z"  horiz-adv-x="585" vert-adv-y="1000"  />

      
      <glyph glyph-name="unif1" unicode="&#xf1;" d="M253 620Q237 620 237 600L199 600Q199 640 212 655.50Q225 671 251 671Q274 671 313 658Q346 647 357 647Q373 647 373 667L411 667Q411 627 398 611.50Q385 596 359 596Q336 596 297 609Q264 620 253 620M520 389Q522 362 522 298L522 0L436 0L436 292Q436 341 434 368Q425 476 313 476Q245 476 202.50 418Q160 360 160 233L160 0L74 0L74 530L160 530L160 439L193 500Q250 544 331 544Q416 544 465 502Q514 460 520 389Z"  horiz-adv-x="593" vert-adv-y="1000"  />

      
      <glyph glyph-name="unif2" unicode="&#xf2;" d="M269 580L184 690L264 690L325 580L269 580M97.50 464.50Q97.50 464.50 131.25 504.25Q165 544 293 544Q421 544 488.50 464.50Q556 385 556 265Q556 145 488.50 65.50Q421-14 293-14Q165-14 97.50 65.50Q30 145 30 265Q30 385 97.50 464.50M169 111Q169 111 191.50 81.50Q214 52 293 52Q372 52 417 111Q462 170 462 265Q462 361 417 419.50Q372 478 293 478Q214 478 169 419.50Q124 361 124 265Q124 170 169 111Z"  horiz-adv-x="586" vert-adv-y="1000"  />

      
      <glyph glyph-name="unif3" unicode="&#xf3;" d="M315 580L259 580L320 690L400 690L315 580M97.50 464.50Q97.50 464.50 131.25 504.25Q165 544 293 544Q421 544 488.50 464.50Q556 385 556 265Q556 145 488.50 65.50Q421-14 293-14Q165-14 97.50 65.50Q30 145 30 265Q30 385 97.50 464.50M169 111Q169 111 191.50 81.50Q214 52 293 52Q372 52 417 111Q462 170 462 265Q462 361 417 419.50Q372 478 293 478Q214 478 169 419.50Q124 361 124 265Q124 170 169 111Z"  horiz-adv-x="586" vert-adv-y="1000"  />

      
      <glyph glyph-name="unif4" unicode="&#xf4;" d="M260 580L197 580L264 690L323 690L390 580L326 580L293 643L260 580M97.50 464.50Q97.50 464.50 131.25 504.25Q165 544 293 544Q421 544 488.50 464.50Q556 385 556 265Q556 145 488.50 65.50Q421-14 293-14Q165-14 97.50 65.50Q30 145 30 265Q30 385 97.50 464.50M169 111Q169 111 191.50 81.50Q214 52 293 52Q372 52 417 111Q462 170 462 265Q462 361 417 419.50Q372 478 293 478Q214 478 169 419.50Q124 361 124 265Q124 170 169 111Z"  horiz-adv-x="586" vert-adv-y="1000"  />

      
      <glyph glyph-name="unif5" unicode="&#xf5;" d="M241 620Q225 620 225 600L187 600Q187 640 200 655.50Q213 671 239 671Q262 671 301 658Q334 647 345 647Q361 647 361 667L399 667Q399 627 386 611.50Q373 596 347 596Q324 596 285 609Q252 620 241 620M97.50 464.50Q97.50 464.50 131.25 504.25Q165 544 293 544Q421 544 488.50 464.50Q556 385 556 265Q556 145 488.50 65.50Q421-14 293-14Q165-14 97.50 65.50Q30 145 30 265Q30 385 97.50 464.50M169 111Q169 111 191.50 81.50Q214 52 293 52Q372 52 417 111Q462 170 462 265Q462 361 417 419.50Q372 478 293 478Q214 478 169 419.50Q124 361 124 265Q124 170 169 111Z"  horiz-adv-x="586" vert-adv-y="1000"  />

      
      <glyph glyph-name="unif6" unicode="&#xf6;" d="M252.50 596.50Q252.50 596.50 245.75 589.75Q239 583 220 583Q201 583 187.50 596.50Q174 610 174 629Q174 648 187.50 661.50Q201 675 220 675Q239 675 252.50 661.50Q266 648 266 629Q266 610 252.50 596.50M398.50 596.50Q398.50 596.50 391.75 589.75Q385 583 366 583Q347 583 333.50 596.50Q320 610 320 629Q320 648 333.50 661.50Q347 675 366 675Q385 675 398.50 661.50Q412 648 412 629Q412 610 398.50 596.50M97.50 464.50Q97.50 464.50 131.25 504.25Q165 544 293 544Q421 544 488.50 464.50Q556 385 556 265Q556 145 488.50 65.50Q421-14 293-14Q165-14 97.50 65.50Q30 145 30 265Q30 385 97.50 464.50M169 111Q169 111 191.50 81.50Q214 52 293 52Q372 52 417 111Q462 170 462 265Q462 361 417 419.50Q372 478 293 478Q214 478 169 419.50Q124 361 124 265Q124 170 169 111Z"  horiz-adv-x="586" vert-adv-y="1000"  />

      
      <glyph glyph-name="unif7" unicode="&#xf7;" d="M252 517Q252 517 260 525Q268 533 292 533Q316 533 332 517Q348 501 348 477Q348 453 332 437Q316 421 292 421Q268 421 252 437Q236 453 236 477Q236 501 252 517M500 291L80 291L80 347L500 347L500 291M252 197Q252 197 260 205Q268 213 292 213Q316 213 332 197Q348 181 348 157Q348 133 332 117Q316 101 292 101Q268 101 252 117Q236 133 236 157Q236 181 252 197Z"  horiz-adv-x="580" vert-adv-y="1000"  />

      
      <glyph glyph-name="unif8" unicode="&#xf8;" d="M594 508L520 434Q565 363 565 265Q565 145 497.50 65.50Q430-14 302-14Q197-14 129 43L67-19L26 22L90 86Q39 159 39 265Q39 385 106.50 464.50Q174 544 302 544Q415 544 483 479L553 549L594 508M133 265Q133 198 155 151L425 421Q379 478 302 478Q223 478 178 419.50Q133 361 133 265M471 265Q471 322 454 368L187 101Q231 52 302 52Q381 52 426 111Q471 170 471 265Z"  horiz-adv-x="620" vert-adv-y="1000"  />

      
      <glyph glyph-name="unif9" unicode="&#xf9;" d="M266 580L181 690L261 690L322 580L266 580M514 530L514 0L428 0L428 90L395 28Q338-14 257-14Q178-14 129.50 24.50Q81 63 71 121Q66 155 66 212L66 530L152 530L152 228Q152 191 156 155Q162 109 194 81.50Q226 54 279 54Q347 54 387.50 111.50Q428 169 428 297L428 530L514 530Z"  horiz-adv-x="592" vert-adv-y="1000"  />

      
      <glyph glyph-name="unifa" unicode="&#xfa;" d="M312 580L256 580L317 690L397 690L312 580M514 530L514 0L428 0L428 90L395 28Q338-14 257-14Q178-14 129.50 24.50Q81 63 71 121Q66 155 66 212L66 530L152 530L152 228Q152 191 156 155Q162 109 194 81.50Q226 54 279 54Q347 54 387.50 111.50Q428 169 428 297L428 530L514 530Z"  horiz-adv-x="592" vert-adv-y="1000"  />

      
      <glyph glyph-name="unifb" unicode="&#xfb;" d="M257 580L194 580L261 690L320 690L387 580L323 580L290 643L257 580M514 530L514 0L428 0L428 90L395 28Q338-14 257-14Q178-14 129.50 24.50Q81 63 71 121Q66 155 66 212L66 530L152 530L152 228Q152 191 156 155Q162 109 194 81.50Q226 54 279 54Q347 54 387.50 111.50Q428 169 428 297L428 530L514 530Z"  horiz-adv-x="592" vert-adv-y="1000"  />

      
      <glyph glyph-name="unifc" unicode="&#xfc;" d="M249.50 596.50Q249.50 596.50 242.75 589.75Q236 583 217 583Q198 583 184.50 596.50Q171 610 171 629Q171 648 184.50 661.50Q198 675 217 675Q236 675 249.50 661.50Q263 648 263 629Q263 610 249.50 596.50M395.50 596.50Q395.50 596.50 388.75 589.75Q382 583 363 583Q344 583 330.50 596.50Q317 610 317 629Q317 648 330.50 661.50Q344 675 363 675Q382 675 395.50 661.50Q409 648 409 629Q409 610 395.50 596.50M514 530L514 0L428 0L428 90L395 28Q338-14 257-14Q178-14 129.50 24.50Q81 63 71 121Q66 155 66 212L66 530L152 530L152 228Q152 191 156 155Q162 109 194 81.50Q226 54 279 54Q347 54 387.50 111.50Q428 169 428 297L428 530L514 530Z"  horiz-adv-x="592" vert-adv-y="1000"  />

      
      <glyph glyph-name="unifd" unicode="&#xfd;" d="M279 580L223 580L284 690L364 690L279 580M507 530L289-45Q256-130 211.50-170Q167-210 103-210Q72-210 59-208L59-138Q72-139 90-139Q131-139 158-118Q185-97 205-46L212-27L1 530L98 530L256 64L413 530L507 530Z"  horiz-adv-x="513" vert-adv-y="1000"  />

      
      <glyph glyph-name="unife" unicode="&#xfe;" d="M340 544Q453 544 517 468.50Q581 393 581 273Q581 134 506.50 60Q432-14 322-14Q287-14 250.50-4.50Q214 5 195 21L160 73L160-196L74-196L74 735L160 735L160 445L200 502Q250 544 340 544M322 52Q395 52 441 107Q487 162 487 263Q487 357 445.50 417.50Q404 478 327 478Q254 478 207 427.50Q160 377 160 270L160 241Q160 146 208.50 99Q257 52 322 52Z"  horiz-adv-x="611" vert-adv-y="1000"  />

      
      <glyph glyph-name="uniff" unicode="&#xff;" d="M216.50 596.50Q216.50 596.50 209.75 589.75Q203 583 184 583Q165 583 151.50 596.50Q138 610 138 629Q138 648 151.50 661.50Q165 675 184 675Q203 675 216.50 661.50Q230 648 230 629Q230 610 216.50 596.50M362.50 596.50Q362.50 596.50 355.75 589.75Q349 583 330 583Q311 583 297.50 596.50Q284 610 284 629Q284 648 297.50 661.50Q311 675 330 675Q349 675 362.50 661.50Q376 648 376 629Q376 610 362.50 596.50M507 530L289-45Q256-130 211.50-170Q167-210 103-210Q72-210 59-208L59-138Q72-139 90-139Q131-139 158-118Q185-97 205-46L212-27L1 530L98 530L256 64L413 530L507 530Z"  horiz-adv-x="513" vert-adv-y="1000"  />

      
      <glyph glyph-name="uni0100" unicode="&#x0100;" d="M455 757L215 757L215 809L455 809L455 757M456 244L202 244L121 0L29 0L277 690L393 690L631 0L538 0L456 244M226 314L433 314L333 622L226 314Z"  horiz-adv-x="639" vert-adv-y="1000"  />

      
      <glyph glyph-name="uni0101" unicode="&#x0101;" d="M384 604L144 604L144 656L384 656L384 604M378 0L369 76L340 19Q292-14 207-14Q132-14 84 26Q36 66 36 137Q36 228 108 273.50Q180 319 334 319L368 319L368 333Q368 377 366 397Q359 478 263 478Q158 478 149 366L59 366Q65 450 119.50 497Q174 544 263 544Q437 544 451 404Q454 373 454 334L454 135Q454 74 464 0L378 0M236 52Q297 52 332.50 91Q368 130 368 201L368 255Q130 273 130 144Q130 52 236 52Z"  horiz-adv-x="531" vert-adv-y="1000"  />

      
      <glyph glyph-name="uni0102" unicode="&#x0102;" d="M437 830Q437 722 335 722Q233 722 233 830L286 830Q287 777 335 777Q383 777 384 830L437 830M456 244L202 244L121 0L29 0L277 690L393 690L631 0L538 0L456 244M226 314L433 314L333 622L226 314Z"  horiz-adv-x="639" vert-adv-y="1000"  />

      
      <glyph glyph-name="uni0103" unicode="&#x0103;" d="M264 566Q211 566 186.50 596.50Q162 627 162 690L215 690Q216 621 264 621Q312 621 313 690L366 690Q366 566 264 566M378 0L369 76L340 19Q292-14 207-14Q132-14 84 26Q36 66 36 137Q36 228 108 273.50Q180 319 334 319L368 319L368 333Q368 377 366 397Q359 478 263 478Q158 478 149 366L59 366Q65 450 119.50 497Q174 544 263 544Q437 544 451 404Q454 373 454 334L454 135Q454 74 464 0L378 0M236 52Q297 52 332.50 91Q368 130 368 201L368 255Q130 273 130 144Q130 52 236 52Z"  horiz-adv-x="531" vert-adv-y="1000"  />

      
      <glyph glyph-name="uni0104" unicode="&#x0104;" d="M504-119Q504-169 548-169Q578-169 604-149L604-198Q567-223 515-223Q422-223 422-138Q422-85 454-46Q486-7 534 11L456 244L202 244L121 0L29 0L277 690L393 690L631 0L598 0Q559-7 531.50-40Q504-73 504-119M226 314L433 314L333 622L226 314Z"  horiz-adv-x="639" vert-adv-y="1000"  />

      
      <glyph glyph-name="uni0105" unicode="&#x0105;" d="M347-119Q347-169 391-169Q421-169 447-149L447-198Q410-223 358-223Q265-223 265-138Q265-85 297-46.50Q329-8 377 11L369 76L340 19Q292-14 207-14Q132-14 84 26Q36 66 36 137Q36 228 108 273.50Q180 319 334 319L368 319L368 333Q368 377 366 397Q359 478 263 478Q158 478 149 366L59 366Q65 450 119.50 497Q174 544 263 544Q437 544 451 404Q454 373 454 334L454 135Q454 74 464 0L441 0Q402-7 374.50-40Q347-73 347-119M236 52Q297 52 332.50 91Q368 130 368 201L368 255Q130 273 130 144Q130 52 236 52Z"  horiz-adv-x="531" vert-adv-y="1000"  />

      
      <glyph glyph-name="uni0106" unicode="&#x0106;" d="M389 736L333 736L387 830L467 830L389 736M373 704Q500 704 571.50 640Q643 576 654 470L655 460L569 460L567 470Q533 636 371 636Q267 636 205 554.50Q143 473 143 346Q143 217 203.50 135.50Q264 54 365 54Q527 54 561 220L563 230L649 230L648 220Q638 119 563.50 52.50Q489-14 360-14Q213-14 130 86Q47 186 47 342Q47 501 137 602.50Q227 704 373 704Z"  horiz-adv-x="699" vert-adv-y="1000"  />

      
      <glyph glyph-name="uni0107" unicode="&#x0107;" d="M291 580L235 580L296 690L376 690L291 580M279 544Q373 544 432 492Q491 440 503 352L413 352Q385 478 277 478Q211 478 167.50 425Q124 372 124 270Q124 161 165.50 106.50Q207 52 271 52Q324 52 359.50 82Q395 112 408 169L498 169Q479 79 418 32.50Q357-14 266-14Q160-14 95 55.50Q30 125 30 264Q30 393 102 468.50Q174 544 279 544Z"  horiz-adv-x="529" vert-adv-y="1000"  />

      
      <glyph glyph-name="uni010A" unicode="&#x010A;" d="M333.50 815.50Q333.50 815.50 340.25 822.25Q347 829 366 829Q385 829 398.50 815.50Q412 802 412 783Q412 764 398.50 750.50Q385 737 366 737Q347 737 333.50 750.50Q320 764 320 783Q320 802 333.50 815.50M373 704Q500 704 571.50 640Q643 576 654 470L655 460L569 460L567 470Q533 636 371 636Q267 636 205 554.50Q143 473 143 346Q143 217 203.50 135.50Q264 54 365 54Q527 54 561 220L563 230L649 230L648 220Q638 119 563.50 52.50Q489-14 360-14Q213-14 130 86Q47 186 47 342Q47 501 137 602.50Q227 704 373 704Z"  horiz-adv-x="699" vert-adv-y="1000"  />

      
      <glyph glyph-name="uni010B" unicode="&#x010B;" d="M230 688Q230 688 238 696Q246 704 269 704Q292 704 308 688Q324 672 324 649Q324 626 308 610Q292 594 269 594Q246 594 230 610Q214 626 214 649Q214 672 230 688M279 544Q373 544 432 492Q491 440 503 352L413 352Q385 478 277 478Q211 478 167.50 425Q124 372 124 270Q124 161 165.50 106.50Q207 52 271 52Q324 52 359.50 82Q395 112 408 169L498 169Q479 79 418 32.50Q357-14 266-14Q160-14 95 55.50Q30 125 30 264Q30 393 102 468.50Q174 544 279 544Z"  horiz-adv-x="529" vert-adv-y="1000"  />

      
      <glyph glyph-name="uni010C" unicode="&#x010C;" d="M337 736L270 830L337 830L367 775L397 830L463 830L396 736L337 736M563 230L649 230L648 220Q638 119 563.50 52.50Q489-14 360-14Q213-14 130 86Q47 186 47 342Q47 501 137 602.50Q227 704 373 704Q500 704 571.50 640Q643 576 654 470L655 460L569 460L567 470Q533 636 371 636Q267 636 205 554.50Q143 473 143 346Q143 217 203.50 135.50Q264 54 365 54Q527 54 561 220L563 230Z"  horiz-adv-x="699" vert-adv-y="1000"  />

      
      <glyph glyph-name="uni010D" unicode="&#x010D;" d="M240 580L173 690L237 690L270 627L303 690L366 690L299 580L240 580M271 52Q324 52 359.50 82Q395 112 408 169L498 169Q479 79 418 32.50Q357-14 266-14Q160-14 95 55.50Q30 125 30 264Q30 393 102 468.50Q174 544 279 544Q373 544 432 492Q491 440 503 352L413 352Q385 478 277 478Q211 478 167.50 425Q124 372 124 270Q124 161 165.50 106.50Q207 52 271 52Z"  horiz-adv-x="529" vert-adv-y="1000"  />

      
      <glyph glyph-name="uni010E" unicode="&#x010E;" d="M341 736L274 830L341 830L371 775L401 830L467 830L400 736L341 736M398 686Q523 670 597 586Q671 502 671 353Q671 205 594 112Q517 19 393 4Q358 0 305 0L100 0L100 690L310 690Q363 690 398 686M384 75Q474 90 525.50 161.50Q577 233 577 353Q577 466 527.50 533.50Q478 601 389 615Q362 620 305 620L186 620L186 70L300 70Q356 70 384 75Z"  horiz-adv-x="709" vert-adv-y="1000"  />

      
      <glyph glyph-name="uni010F" unicode="&#x010F;" d="M451 735L537 735L537 0L451 0L451 85L411 28Q361-14 271-14Q158-14 94 61.50Q30 137 30 257Q30 396 104.50 470Q179 544 289 544Q324 544 360.50 534.50Q397 525 416 509L451 457L451 735M684 735L684 723L624 591L563 591L615 735L684 735M284 52Q357 52 404 102.50Q451 153 451 260L451 289Q451 384 402.50 431Q354 478 289 478Q216 478 170 423Q124 368 124 267Q124 173 165.50 112.50Q207 52 284 52Z"  horiz-adv-x="615" vert-adv-y="1000"  />

      
      <glyph glyph-name="uni0110" unicode="&#x0110;" d="M390 686Q515 670 589 586Q663 502 663 353Q663 205 586 112Q509 19 385 4Q350 0 297 0L92 0L92 305L33 305L33 361L92 361L92 690L302 690Q355 690 390 686M376 75Q466 90 517.50 161.50Q569 233 569 353Q569 466 519.50 533.50Q470 601 381 615Q353 620 297 620L178 620L178 361L314 361L314 305L178 305L178 70L292 70Q348 70 376 75Z"  horiz-adv-x="701" vert-adv-y="1000"  />

      
      <glyph glyph-name="uni0111" unicode="&#x0111;" d="M581 595L537 595L537 0L451 0L451 85L411 28Q361-14 271-14Q158-14 94 61.50Q30 137 30 257Q30 396 104.50 470Q179 544 289 544Q324 544 360.50 534.50Q397 525 416 509L451 457L451 595L335 595L335 651L451 651L451 735L537 735L537 651L581 651L581 595M284 52Q357 52 404 102.50Q451 153 451 260L451 289Q451 384 402.50 431Q354 478 289 478Q216 478 170 423Q124 368 124 267Q124 173 165.50 112.50Q207 52 284 52Z"  horiz-adv-x="619" vert-adv-y="1000"  />

      
      <glyph glyph-name="uni0112" unicode="&#x0112;" d="M456 757L216 757L216 809L456 809L456 757M559 70L559 0L100 0L100 690L549 690L549 620L186 620L186 380L519 380L519 310L186 310L186 70L559 70Z"  horiz-adv-x="587" vert-adv-y="1000"  />

      
      <glyph glyph-name="uni0113" unicode="&#x0113;" d="M397 604L157 604L157 656L397 656L397 604M509 280Q509 258 507 239L123 239Q129 140 170 96Q211 52 275 52Q328 52 365.50 83.50Q403 115 412 171L502 171Q487 80 422.50 33Q358-14 271-14Q163-14 96.50 57Q30 128 30 263Q30 390 101 467Q172 544 282 544Q389 544 449 471.50Q509 399 509 280M280 478Q216 478 173.50 433Q131 388 124 305L422 305Q409 478 280 478Z"  horiz-adv-x="549" vert-adv-y="1000"  />

      
      <glyph glyph-name="uni0116" unicode="&#x0116;" d="M368.50 750.50Q368.50 750.50 361.75 743.75Q355 737 336 737Q317 737 303.50 750.50Q290 764 290 783Q290 802 303.50 815.50Q317 829 336 829Q355 829 368.50 815.50Q382 802 382 783Q382 764 368.50 750.50M559 70L559 0L100 0L100 690L549 690L549 620L186 620L186 380L519 380L519 310L186 310L186 70L559 70Z"  horiz-adv-x="587" vert-adv-y="1000"  />

      
      <glyph glyph-name="uni0117" unicode="&#x0117;" d="M316 610Q316 610 308 602Q300 594 277 594Q254 594 238 610Q222 626 222 649Q222 672 238 688Q254 704 277 704Q300 704 316 688Q332 672 332 649Q332 626 316 610M509 280Q509 258 507 239L123 239Q129 140 170 96Q211 52 275 52Q328 52 365.50 83.50Q403 115 412 171L502 171Q487 80 422.50 33Q358-14 271-14Q163-14 96.50 57Q30 128 30 263Q30 390 101 467Q172 544 282 544Q389 544 449 471.50Q509 399 509 280M280 478Q216 478 173.50 433Q131 388 124 305L422 305Q409 478 280 478Z"  horiz-adv-x="549" vert-adv-y="1000"  />

      
      <glyph glyph-name="uni0118" unicode="&#x0118;" d="M510-169Q540-169 566-149L566-198Q529-223 477-223Q384-223 384-138Q384-47 473 0L100 0L100 690L549 690L549 620L186 620L186 380L519 380L519 310L186 310L186 70L559 70L559 0L560 0Q521-7 493.50-40Q466-73 466-119Q466-169 510-169Z"  horiz-adv-x="587" vert-adv-y="1000"  />

      
      <glyph glyph-name="uni0119" unicode="&#x0119;" d="M509 280Q509 258 507 239L123 239Q129 140 170 96Q211 52 275 52Q328 52 365.50 83.50Q403 115 412 171L502 171Q481 41 360 0L339-6Q307-19 286.50-49.50Q266-80 266-119Q266-169 310-169Q340-169 366-149L366-198Q329-223 277-223Q184-223 184-138Q184-62 251-13Q151-7 90.50 63.50Q30 134 30 263Q30 390 101 467Q172 544 282 544Q389 544 449 471.50Q509 399 509 280M280 478Q216 478 173.50 433Q131 388 124 305L422 305Q409 478 280 478Z"  horiz-adv-x="549" vert-adv-y="1000"  />

      
      <glyph glyph-name="uni011A" unicode="&#x011A;" d="M307 736L240 830L307 830L337 775L367 830L433 830L366 736L307 736M559 70L559 0L100 0L100 690L549 690L549 620L186 620L186 380L519 380L519 310L186 310L186 70L559 70Z"  horiz-adv-x="587" vert-adv-y="1000"  />

      
      <glyph glyph-name="uni011B" unicode="&#x011B;" d="M248 580L181 690L245 690L278 627L311 690L374 690L307 580L248 580M509 280Q509 258 507 239L123 239Q129 140 170 96Q211 52 275 52Q328 52 365.50 83.50Q403 115 412 171L502 171Q487 80 422.50 33Q358-14 271-14Q163-14 96.50 57Q30 128 30 263Q30 390 101 467Q172 544 282 544Q389 544 449 471.50Q509 399 509 280M280 478Q216 478 173.50 433Q131 388 124 305L422 305Q409 478 280 478Z"  horiz-adv-x="549" vert-adv-y="1000"  />

      
      <glyph glyph-name="uni011E" unicode="&#x011E;" d="M465 830Q465 722 363 722Q261 722 261 830L314 830Q315 777 363 777Q411 777 412 830L465 830M399 333L646 333L646 0L570 0L570 120L539 56Q477-14 360-14Q213-14 130 86Q47 186 47 342Q47 501 137 602.50Q227 704 373 704Q500 704 571.50 640Q643 576 654 470L655 460L569 460L567 470Q533 636 371 636Q267 636 205 554.50Q143 473 143 346Q143 217 203.50 135.50Q264 54 365 54Q449 54 504.50 112.50Q560 171 560 263L399 263L399 333Z"  horiz-adv-x="710" vert-adv-y="1000"  />

      
      <glyph glyph-name="uni011F" unicode="&#x011F;" d="M303 566Q250 566 225.50 596.50Q201 627 201 690L254 690Q255 621 303 621Q351 621 352 690L405 690Q405 566 303 566M537 530L537 130Q537 56 536 27Q532-88 466-149Q400-210 284-210Q64-210 47-35L46-25L133-25L134-34Q139-84 178-114Q217-144 284-144Q362-144 404.50-101.50Q447-59 450 18Q451 43 451 76L451 85L411 28Q361-14 271-14Q158-14 94 61.50Q30 137 30 257Q30 396 104.50 470Q179 544 289 544Q324 544 360.50 534.50Q397 525 416 509L451 457L451 530L537 530M284 52Q357 52 404 102.50Q451 153 451 260L451 289Q451 384 402.50 431Q354 478 289 478Q216 478 170 423Q124 368 124 267Q124 173 165.50 112.50Q207 52 284 52Z"  horiz-adv-x="615" vert-adv-y="1000"  />

      
      <glyph glyph-name="uni0120" unicode="&#x0120;" d="M395.50 750.50Q395.50 750.50 388.75 743.75Q382 737 363 737Q344 737 330.50 750.50Q317 764 317 783Q317 802 330.50 815.50Q344 829 363 829Q382 829 395.50 815.50Q409 802 409 783Q409 764 395.50 750.50M399 333L646 333L646 0L570 0L570 120L539 56Q477-14 360-14Q213-14 130 86Q47 186 47 342Q47 501 137 602.50Q227 704 373 704Q500 704 571.50 640Q643 576 654 470L655 460L569 460L567 470Q533 636 371 636Q267 636 205 554.50Q143 473 143 346Q143 217 203.50 135.50Q264 54 365 54Q449 54 504.50 112.50Q560 171 560 263L399 263L399 333Z"  horiz-adv-x="710" vert-adv-y="1000"  />

      
      <glyph glyph-name="uni0121" unicode="&#x0121;" d="M342 610Q342 610 334 602Q326 594 303 594Q280 594 264 610Q248 626 248 649Q248 672 264 688Q280 704 303 704Q326 704 342 688Q358 672 358 649Q358 626 342 610M537 530L537 130Q537 56 536 27Q532-88 466-149Q400-210 284-210Q64-210 47-35L46-25L133-25L134-34Q139-84 178-114Q217-144 284-144Q362-144 404.50-101.50Q447-59 450 18Q451 43 451 76L451 85L411 28Q361-14 271-14Q158-14 94 61.50Q30 137 30 257Q30 396 104.50 470Q179 544 289 544Q324 544 360.50 534.50Q397 525 416 509L451 457L451 530L537 530M284 52Q357 52 404 102.50Q451 153 451 260L451 289Q451 384 402.50 431Q354 478 289 478Q216 478 170 423Q124 368 124 267Q124 173 165.50 112.50Q207 52 284 52Z"  horiz-adv-x="615" vert-adv-y="1000"  />

      
      <glyph glyph-name="uni0122" unicode="&#x0122;" d="M399 333L646 333L646 0L570 0L570 120L539 56Q477-14 360-14Q213-14 130 86Q47 186 47 342Q47 501 137 602.50Q227 704 373 704Q500 704 571.50 640Q643 576 654 470L655 460L569 460L567 470Q533 636 371 636Q267 636 205 554.50Q143 473 143 346Q143 217 203.50 135.50Q264 54 365 54Q449 54 504.50 112.50Q560 171 560 263L399 263L399 333M336-51L405-51L405-63L345-195L284-195L336-51Z"  horiz-adv-x="710" vert-adv-y="1000"  />

      
      <glyph glyph-name="uni0123" unicode="&#x0123;" d="M334 581L265 581L265 593L325 725L386 725L334 581M537 530L537 130Q537 56 536 27Q532-88 466-149Q400-210 284-210Q64-210 47-35L46-25L133-25L134-34Q139-84 178-114Q217-144 284-144Q362-144 404.50-101.50Q447-59 450 18Q451 43 451 76L451 85L411 28Q361-14 271-14Q158-14 94 61.50Q30 137 30 257Q30 396 104.50 470Q179 544 289 544Q324 544 360.50 534.50Q397 525 416 509L451 457L451 530L537 530M284 52Q357 52 404 102.50Q451 153 451 260L451 289Q451 384 402.50 431Q354 478 289 478Q216 478 170 423Q124 368 124 267Q124 173 165.50 112.50Q207 52 284 52Z"  horiz-adv-x="615" vert-adv-y="1000"  />

      
      <glyph glyph-name="uni0126" unicode="&#x0126;" d="M692 502L652 502L652 0L566 0L566 302L186 302L186 0L100 0L100 502L60 502L60 558L100 558L100 690L186 690L186 558L566 558L566 690L652 690L652 558L692 558L692 502M566 502L186 502L186 374L566 374L566 502Z"  horiz-adv-x="730" vert-adv-y="1000"  />

      
      <glyph glyph-name="uni0127" unicode="&#x0127;" d="M536 389Q538 362 538 298L538 0L452 0L452 292Q452 341 450 368Q446 418 416.50 447.50Q387 477 329 476Q260 474 218 417Q176 360 176 233L176 0L90 0L90 595L34 595L34 651L90 651L90 740L176 740L176 651L280 651L280 595L176 595L176 439L209 500Q266 544 347 544Q432 544 481 502Q530 460 536 389Z"  horiz-adv-x="609" vert-adv-y="1000"  />

      
      <glyph glyph-name="uni012A" unicode="&#x012A;" d="M263 757L23 757L23 809L263 809L263 757M186 0L100 0L100 690L186 690L186 0Z"  horiz-adv-x="264" vert-adv-y="1000"  />

      
      <glyph glyph-name="uni012B" unicode="&#x012B;" d="M237 604L-3 604L-3 656L237 656L237 604M160 0L74 0L74 530L160 530L160 0Z"  horiz-adv-x="238" vert-adv-y="1000"  />

      
      <glyph glyph-name="uni012E" unicode="&#x012E;" d="M186 0L162 0Q123-7 95.50-40Q68-73 68-119Q68-169 112-169Q142-169 168-149L168-198Q131-223 79-223Q-14-223-14-138Q-14-84 18.50-45.50Q51-7 99 11L100 11L100 690L186 690L186 0Z"  horiz-adv-x="264" vert-adv-y="1000"  />

      
      <glyph glyph-name="uni012F" unicode="&#x012F;" d="M156 610Q156 610 148 602Q140 594 117 594Q94 594 78 610Q62 626 62 649Q62 672 78 688Q94 704 117 704Q140 704 156 688Q172 672 172 649Q172 626 156 610M74 530L160 530L160 0L137 0Q98-7 70.50-40Q43-73 43-119Q43-169 87-169Q117-169 143-149L143-198Q106-223 54-223Q-39-223-39-138Q-39-84-6.50-45.50Q26-7 74 11L74 530Z"  horiz-adv-x="238" vert-adv-y="1000"  />

      
      <glyph glyph-name="uni0130" unicode="&#x0130;" d="M110.50 815.50Q110.50 815.50 117.25 822.25Q124 829 143 829Q162 829 175.50 815.50Q189 802 189 783Q189 764 175.50 750.50Q162 737 143 737Q124 737 110.50 750.50Q97 764 97 783Q97 802 110.50 815.50M186 0L100 0L100 690L186 690L186 0Z"  horiz-adv-x="264" vert-adv-y="1000"  />

      
      <glyph glyph-name="uni0131" unicode="&#x0131;" d="M160 0L74 0L74 530L160 530L160 0Z"  horiz-adv-x="238" vert-adv-y="1000"  />

      
      <glyph glyph-name="uni0132" unicode="&#x0132;" d="M186 0L100 0L100 690L186 690L186 0M752 690L752 264Q752 215 750 181Q745 90 689 38Q633-14 527-14Q431-14 376.50 41.50Q322 97 320 194L319 235L405 235L407 194Q414 54 539 54Q655 54 665 186Q666 206 666 267L666 690L752 690Z"  horiz-adv-x="808" vert-adv-y="1000"  />

      
      <glyph glyph-name="uni0133" unicode="&#x0133;" d="M78 688Q78 688 86 696Q94 704 117 704Q140 704 156 688Q172 672 172 649Q172 626 156 610Q140 594 117 594Q94 594 78 610Q62 626 62 649Q62 672 78 688M311 688Q311 688 319 696Q327 704 350 704Q373 704 389 688Q405 672 405 649Q405 626 389 610Q373 594 350 594Q327 594 311 610Q295 626 295 649Q295 672 311 688M160 0L74 0L74 530L160 530L160 0M393 530L393-46Q393-83 390-110Q379-210 266-210Q238-210 225-208L225-138Q299-145 305-94Q307-80 307-50L307 530L393 530Z"  horiz-adv-x="471" vert-adv-y="1000"  />

      
      <glyph glyph-name="uni0136" unicode="&#x0136;" d="M315 353L610 0L489 0L252 295L186 224L186 0L100 0L100 690L186 690L186 323L527 690L628 690L315 353M309-51L378-51L378-63L318-195L257-195L309-51Z"  horiz-adv-x="609" vert-adv-y="1000"  />

      
      <glyph glyph-name="uni0137" unicode="&#x0137;" d="M520 0L403 0L210 224L160 169L160 0L74 0L74 735L160 735L160 263L407 530L517 530L270 280L520 0M242-51L311-51L311-63L251-195L190-195L242-51Z"  horiz-adv-x="522" vert-adv-y="1000"  />

      
      <glyph glyph-name="uni0139" unicode="&#x0139;" d="M166 736L110 736L164 830L244 830L166 736M559 70L559 0L100 0L100 690L186 690L186 70L559 70Z"  horiz-adv-x="575" vert-adv-y="1000"  />

      
      <glyph glyph-name="uni013A" unicode="&#x013A;" d="M135 785L79 785L140 895L220 895L135 785M156 735L156 152Q156 119 157 102Q159 76 173 67Q187 58 222 62L222 0Q197-4 161-4Q119-4 96 14Q73 32 71 79Q70 97 70 149L70 735L156 735Z"  horiz-adv-x="247" vert-adv-y="1000"  />

      
      <glyph glyph-name="uni013B" unicode="&#x013B;" d="M559 70L559 0L100 0L100 690L186 690L186 70L559 70M305-51L374-51L374-63L314-195L253-195L305-51Z"  horiz-adv-x="575" vert-adv-y="1000"  />

      
      <glyph glyph-name="uni013C" unicode="&#x013C;" d="M156 735L156 152Q156 119 157 102Q159 76 173 67Q187 58 222 62L222 0Q197-4 161-4Q119-4 96 14Q73 32 71 79Q70 97 70 149L70 735L156 735M161-63L101-195L40-195L92-51L161-51L161-63Z"  horiz-adv-x="247" vert-adv-y="1000"  />

      
      <glyph glyph-name="uni013D" unicode="&#x013D;" d="M559 70L559 0L100 0L100 690L186 690L186 70L559 70Z"  horiz-adv-x="575" vert-adv-y="1000"  />

      
      <glyph glyph-name="uni013E" unicode="&#x013E;" d="M156 735L156 152Q156 119 157 102Q159 76 173 67Q187 58 222 62L222 0Q197-4 161-4Q119-4 96 14Q73 32 71 79Q70 97 70 149L70 735L156 735Z"  horiz-adv-x="247" vert-adv-y="1000"  />

      
      <glyph glyph-name="uni013F" unicode="&#x013F;" d="M559 70L559 0L100 0L100 690L186 690L186 70L559 70M431 361Q431 361 423 353Q415 345 392 345Q369 345 353 361Q337 377 337 400Q337 423 353 439Q369 455 392 455Q415 455 431 439Q447 423 447 400Q447 377 431 361Z"  horiz-adv-x="575" vert-adv-y="1000"  />

      
      <glyph glyph-name="uni0140" unicode="&#x0140;" d="M156 735L156 152Q156 119 157 102Q159 76 173 67Q187 58 222 62L222 0Q197-4 161-4Q119-4 96 14Q73 32 71 79Q70 97 70 149L70 735L156 735M242 439Q242 439 250 447Q258 455 281 455Q304 455 320 439Q336 423 336 400Q336 377 320 361Q304 345 281 345Q258 345 242 361Q226 377 226 400Q226 423 242 439Z"  horiz-adv-x="350" vert-adv-y="1000"  />

      
      <glyph glyph-name="uni0141" unicode="&#x0141;" d="M581 70L581 0L122 0L122 288L14 224L14 291L122 355L122 690L208 690L208 406L334 481L334 414L208 339L208 70L581 70Z"  horiz-adv-x="597" vert-adv-y="1000"  />

      
      <glyph glyph-name="uni0142" unicode="&#x0142;" d="M184 102Q186 76 200 67Q214 58 249 62L249 0Q224-4 188-4Q146-4 123 14Q100 32 98 79Q97 97 97 149L97 264L32 225L32 292L97 331L97 735L183 735L183 381L248 420L248 353L183 314L183 152Q183 119 184 102Z"  horiz-adv-x="284" vert-adv-y="1000"  />

      
      <glyph glyph-name="uni0143" unicode="&#x0143;" d="M393 736L337 736L391 830L471 830L393 736M640 0L508 0L183 606Q186 484 186 345L186 0L100 0L100 690L232 690L557 84Q554 205 554 345L554 690L638 690L640 0Z"  horiz-adv-x="718" vert-adv-y="1000"  />

      
      <glyph glyph-name="uni0144" unicode="&#x0144;" d="M412 690L327 580L271 580L332 690L412 690M520 389Q522 362 522 298L522 0L436 0L436 292Q436 341 434 368Q425 476 313 476Q245 476 202.50 418Q160 360 160 233L160 0L74 0L74 530L160 530L160 439L193 500Q250 544 331 544Q416 544 465 502Q514 460 520 389Z"  horiz-adv-x="593" vert-adv-y="1000"  />

      
      <glyph glyph-name="uni0145" unicode="&#x0145;" d="M640 0L508 0L183 606Q186 484 186 345L186 0L100 0L100 690L232 690L557 84Q554 205 554 345L554 690L638 690L640 0M414-63L354-195L293-195L345-51L414-51L414-63Z"  horiz-adv-x="718" vert-adv-y="1000"  />

      
      <glyph glyph-name="uni0146" unicode="&#x0146;" d="M520 389Q522 362 522 298L522 0L436 0L436 292Q436 341 434 368Q425 476 313 476Q245 476 202.50 418Q160 360 160 233L160 0L74 0L74 530L160 530L160 439L193 500Q250 544 331 544Q416 544 465 502Q514 460 520 389M213-195L265-51L334-51L334-63L274-195L213-195Z"  horiz-adv-x="593" vert-adv-y="1000"  />

      
      <glyph glyph-name="uni0147" unicode="&#x0147;" d="M341 736L274 830L341 830L371 775L401 830L467 830L400 736L341 736M508 0L183 606Q186 484 186 345L186 0L100 0L100 690L232 690L557 84Q554 205 554 345L554 690L638 690L640 0L508 0Z"  horiz-adv-x="718" vert-adv-y="1000"  />

      
      <glyph glyph-name="uni0148" unicode="&#x0148;" d="M335 580L276 580L209 690L273 690L306 627L339 690L402 690L335 580M520 389Q522 362 522 298L522 0L436 0L436 292Q436 341 434 368Q425 476 313 476Q245 476 202.50 418Q160 360 160 233L160 0L74 0L74 530L160 530L160 439L193 500Q250 544 331 544Q416 544 465 502Q514 460 520 389Z"  horiz-adv-x="593" vert-adv-y="1000"  />

      
      <glyph glyph-name="uni014A" unicode="&#x014A;" d="M640 690L640-67Q640-94 639-108Q633-171 593-197Q553-223 482-223L482-153Q521-153 537-135.50Q553-118 553-83L553-31L183 598Q186 477 186 345L186 0L100 0L100 690L232 690L557 124Q554 246 554 365L554 690L640 690Z"  horiz-adv-x="718" vert-adv-y="1000"  />

      
      <glyph glyph-name="uni014B" unicode="&#x014B;" d="M520 389Q522 362 522 298L522-54Q522-81 521-95Q516-162 476-186Q436-210 355-210L355-140Q397-140 414.50-129Q432-118 435-87Q436-79 436-60L436 292Q436 341 434 368Q425 476 313 476Q245 476 202.50 418Q160 360 160 233L160 0L74 0L74 530L160 530L160 439L193 500Q250 544 331 544Q416 544 465 502Q514 460 520 389Z"  horiz-adv-x="593" vert-adv-y="1000"  />

      
      <glyph glyph-name="uni014C" unicode="&#x014C;" d="M493 757L253 757L253 809L493 809L493 757M133 605.50Q133 605.50 176 654.75Q219 704 373 704Q527 704 613 605.50Q699 507 699 345Q699 184 613 85Q527-14 373-14Q219-14 133 85Q47 184 47 345Q47 507 133 605.50M204 132Q204 132 234.50 93Q265 54 373 54Q481 54 542 132Q603 210 603 345Q603 481 542 558.50Q481 636 373 636Q265 636 204 558.50Q143 481 143 345Q143 210 204 132Z"  horiz-adv-x="737" vert-adv-y="1000"  />

      
      <glyph glyph-name="uni014D" unicode="&#x014D;" d="M413 604L173 604L173 656L413 656L413 604M97.50 464.50Q97.50 464.50 131.25 504.25Q165 544 293 544Q421 544 488.50 464.50Q556 385 556 265Q556 145 488.50 65.50Q421-14 293-14Q165-14 97.50 65.50Q30 145 30 265Q30 385 97.50 464.50M169 111Q169 111 191.50 81.50Q214 52 293 52Q372 52 417 111Q462 170 462 265Q462 361 417 419.50Q372 478 293 478Q214 478 169 419.50Q124 361 124 265Q124 170 169 111Z"  horiz-adv-x="586" vert-adv-y="1000"  />

      
      <glyph glyph-name="uni0150" unicode="&#x0150;" d="M325 736L269 736L323 830L403 830L325 736M378 736L432 830L512 830L434 736L378 736M133 605.50Q133 605.50 176 654.75Q219 704 373 704Q527 704 613 605.50Q699 507 699 345Q699 184 613 85Q527-14 373-14Q219-14 133 85Q47 184 47 345Q47 507 133 605.50M204 132Q204 132 234.50 93Q265 54 373 54Q481 54 542 132Q603 210 603 345Q603 481 542 558.50Q481 636 373 636Q265 636 204 558.50Q143 481 143 345Q143 210 204 132Z"  horiz-adv-x="737" vert-adv-y="1000"  />

      
      <glyph glyph-name="uni0151" unicode="&#x0151;" d="M259 580L203 580L264 690L344 690L259 580M325 580L386 690L466 690L381 580L325 580M97.50 464.50Q97.50 464.50 131.25 504.25Q165 544 293 544Q421 544 488.50 464.50Q556 385 556 265Q556 145 488.50 65.50Q421-14 293-14Q165-14 97.50 65.50Q30 145 30 265Q30 385 97.50 464.50M169 111Q169 111 191.50 81.50Q214 52 293 52Q372 52 417 111Q462 170 462 265Q462 361 417 419.50Q372 478 293 478Q214 478 169 419.50Q124 361 124 265Q124 170 169 111Z"  horiz-adv-x="586" vert-adv-y="1000"  />

      
      <glyph glyph-name="uni0152" unicode="&#x0152;" d="M1062 70L1062 0L603 0L603 141L576 68Q504-14 363-14Q217-14 132 88Q47 190 47 345Q47 501 132 602.50Q217 704 363 704Q439 704 487.50 684.50Q536 665 576 618L603 547L603 690L1052 690L1052 620L689 620L689 380L1022 380L1022 310L689 310L689 70L1062 70M204.50 134Q204.50 134 235.25 94Q266 54 373 54Q480 54 541.50 134Q603 214 603 345Q603 477 541.50 556.50Q480 636 373 636Q266 636 204.50 556.50Q143 477 143 345Q143 214 204.50 134Z"  horiz-adv-x="1090" vert-adv-y="1000"  />

      
      <glyph glyph-name="uni0153" unicode="&#x0153;" d="M941 280Q941 258 939 239L557 239Q563 145 604 98.50Q645 52 707 52Q760 52 797.50 83.50Q835 115 844 171L934 171Q919 80 854.50 33Q790-14 703-14Q565-14 506 112Q444-14 293-14Q165-14 97.50 65.50Q30 145 30 265Q30 385 97.50 464.50Q165 544 293 544Q448 544 510 415Q572 544 714 544Q821 544 881 471.50Q941 399 941 280M169 111Q169 111 191.50 81.50Q214 52 293 52Q372 52 417 111Q462 170 462 265Q462 361 417 419.50Q372 478 293 478Q214 478 169 419.50Q124 361 124 265Q124 170 169 111M557 305L854 305Q840 478 712 478Q647 478 606 433.50Q565 389 557 305Z"  horiz-adv-x="981" vert-adv-y="1000"  />

      
      <glyph glyph-name="uni0154" unicode="&#x0154;" d="M345 736L289 736L343 830L423 830L345 736M554 181Q566 45 600 0L505 0Q480 57 468 173Q455 289 365 296Q349 297 316 297L186 297L186 0L100 0L100 690L326 690Q385 690 416 686Q496 676 542 630.50Q588 585 588 502Q588 438 553 397Q518 356 465 339Q543 303 554 181M186 367L318 367Q366 367 385 369Q435 374 465.50 406Q496 438 496 494Q496 600 395 616Q370 620 326 620L186 620L186 367Z"  horiz-adv-x="619" vert-adv-y="1000"  />

      
      <glyph glyph-name="uni0155" unicode="&#x0155;" d="M206 580L150 580L211 690L291 690L206 580M282 542Q304 542 318 535L318 470Q247 475 203.50 432Q160 389 160 302L160 0L74 0L74 530L160 530L160 447L208 518Q243 542 282 542Z"  horiz-adv-x="330" vert-adv-y="1000"  />

      
      <glyph glyph-name="uni0156" unicode="&#x0156;" d="M554 181Q566 45 600 0L505 0Q480 57 468 173Q455 289 365 296Q349 297 316 297L186 297L186 0L100 0L100 690L326 690Q385 690 416 686Q496 676 542 630.50Q588 585 588 502Q588 438 553 397Q518 356 465 339Q543 303 554 181M186 367L318 367Q366 367 385 369Q435 374 465.50 406Q496 438 496 494Q496 600 395 616Q370 620 326 620L186 620L186 367M292-51L361-51L361-63L301-195L240-195L292-51Z"  horiz-adv-x="619" vert-adv-y="1000"  />

      
      <glyph glyph-name="uni0157" unicode="&#x0157;" d="M282 542Q304 542 318 535L318 470Q247 475 203.50 432Q160 389 160 302L160 0L74 0L74 530L160 530L160 447L208 518Q243 542 282 542M86-51L155-51L155-63L95-195L34-195L86-51Z"  horiz-adv-x="330" vert-adv-y="1000"  />

      
      <glyph glyph-name="uni0158" unicode="&#x0158;" d="M293 736L226 830L293 830L323 775L353 830L419 830L352 736L293 736M554 181Q566 45 600 0L505 0Q480 57 468 173Q455 289 365 296Q349 297 316 297L186 297L186 0L100 0L100 690L326 690Q385 690 416 686Q496 676 542 630.50Q588 585 588 502Q588 438 553 397Q518 356 465 339Q543 303 554 181M186 367L318 367Q366 367 385 369Q435 374 465.50 406Q496 438 496 494Q496 600 395 616Q370 620 326 620L186 620L186 367Z"  horiz-adv-x="619" vert-adv-y="1000"  />

      
      <glyph glyph-name="uni0159" unicode="&#x0159;" d="M155 580L88 690L152 690L185 627L218 690L281 690L214 580L155 580M282 542Q304 542 318 535L318 470Q247 475 203.50 432Q160 389 160 302L160 0L74 0L74 530L160 530L160 447L208 518Q243 542 282 542Z"  horiz-adv-x="330" vert-adv-y="1000"  />

      
      <glyph glyph-name="uni015A" unicode="&#x015A;" d="M327 736L271 736L325 830L405 830L327 736M314 704Q417 704 476 648Q535 592 545 499L453 499Q447 565 409.50 600.50Q372 636 307 636Q249 636 212.50 609Q176 582 176 530Q176 475 209.50 446Q243 417 324 399Q441 372 496.50 321.50Q552 271 552 185Q552 96 484.50 41Q417-14 315-14Q201-14 132 41Q63 96 52 196L144 196Q159 128 204 91Q249 54 317 54Q378 54 419 85Q460 116 460 169Q460 231 421.50 264.50Q383 298 291 319Q191 342 137.50 386Q84 430 84 510Q84 597 150 650.50Q216 704 314 704Z"  horiz-adv-x="585" vert-adv-y="1000"  />

      
      <glyph glyph-name="uni015B" unicode="&#x015B;" d="M339 690L254 580L198 580L259 690L339 690M228 544Q315 544 364.50 499Q414 454 423 379L333 379Q314 478 221 478Q178 478 155.50 456.50Q133 435 133 399Q133 362 161 342Q189 322 249 306Q342 281 385.50 241.50Q429 202 429 136Q429 64 374.50 25Q320-14 232-14Q146-14 91 28Q36 70 24 156L114 156Q133 52 238 52Q283 52 312 72Q341 92 341 129Q341 167 312.50 190Q284 213 216 231Q134 253 89.50 289Q45 325 45 389Q45 461 95 502.50Q145 544 228 544Z"  horiz-adv-x="459" vert-adv-y="1000"  />

      
      <glyph glyph-name="uni015E" unicode="&#x015E;" d="M552 185Q552 98 488 44Q424-10 326-14L312-40Q393-51 393-123Q393-164 359.50-187Q326-210 270-210Q241-210 220-201L220-157Q241-168 273-168Q335-168 335-124Q335-71 239-78L275-12Q178-2 120 51.50Q62 105 52 196L144 196Q159 128 204 91Q249 54 317 54Q378 54 419 85Q460 116 460 169Q460 231 421.50 264.50Q383 298 291 319Q191 342 137.50 386Q84 430 84 510Q84 597 150 650.50Q216 704 314 704Q417 704 476 648Q535 592 545 499L453 499Q447 565 409.50 600.50Q372 636 307 636Q249 636 212.50 609Q176 582 176 530Q176 475 209.50 446Q243 417 324 399Q441 372 496.50 321.50Q552 271 552 185Z"  horiz-adv-x="585" vert-adv-y="1000"  />

      
      <glyph glyph-name="uni015F" unicode="&#x015F;" d="M385.50 241.50Q385.50 241.50 407.25 221.75Q429 202 429 136Q429 70 383.50 32Q338-6 263-13L248-40Q329-51 329-123Q329-164 295.50-187Q262-210 206-210Q177-210 156-201L156-157Q177-168 209-168Q271-168 271-124Q271-71 175-78L210-13Q133-8 84 33.50Q35 75 24 156L114 156Q133 52 238 52Q283 52 312 72Q341 92 341 129Q341 167 312.50 190Q284 213 216 231Q134 253 89.50 289Q45 325 45 389Q45 461 95 502.50Q145 544 228 544Q315 544 364.50 499Q414 454 423 379L333 379Q314 478 221 478Q178 478 155.50 456.50Q133 435 133 399Q133 362 161 342Q189 322 249 306Q342 281 385.50 241.50Z"  horiz-adv-x="459" vert-adv-y="1000"  />

      
      <glyph glyph-name="uni0160" unicode="&#x0160;" d="M275 736L208 830L275 830L305 775L335 830L401 830L334 736L275 736M324 399Q441 372 496.50 321.50Q552 271 552 185Q552 96 484.50 41Q417-14 315-14Q201-14 132 41Q63 96 52 196L144 196Q159 128 204 91Q249 54 317 54Q378 54 419 85Q460 116 460 169Q460 231 421.50 264.50Q383 298 291 319Q191 342 137.50 386Q84 430 84 510Q84 597 150 650.50Q216 704 314 704Q417 704 476 648Q535 592 545 499L453 499Q447 565 409.50 600.50Q372 636 307 636Q249 636 212.50 609Q176 582 176 530Q176 475 209.50 446Q243 417 324 399Z"  horiz-adv-x="585" vert-adv-y="1000"  />

      
      <glyph glyph-name="uni0161" unicode="&#x0161;" d="M262 580L203 580L136 690L200 690L233 627L266 690L329 690L262 580M249 306Q342 281 385.50 241.50Q429 202 429 136Q429 64 374.50 25Q320-14 232-14Q146-14 91 28Q36 70 24 156L114 156Q133 52 238 52Q283 52 312 72Q341 92 341 129Q341 167 312.50 190Q284 213 216 231Q134 253 89.50 289Q45 325 45 389Q45 461 95 502.50Q145 544 228 544Q315 544 364.50 499Q414 454 423 379L333 379Q314 478 221 478Q178 478 155.50 456.50Q133 435 133 399Q133 362 161 342Q189 322 249 306Z"  horiz-adv-x="459" vert-adv-y="1000"  />

      
      <glyph glyph-name="uni0162" unicode="&#x0162;" d="M353 0L331-40Q412-51 412-123Q412-164 378.50-187Q345-210 289-210Q260-210 239-201L239-157Q260-168 292-168Q354-168 354-124Q354-71 258-78L300 0L280 0L280 620L34 620L34 690L612 690L612 620L366 620L366 0L353 0Z"  horiz-adv-x="612" vert-adv-y="1000"  />

      
      <glyph glyph-name="uni0163" unicode="&#x0163;" d="M177 460L177 155Q177 128 178 114Q181 76 200 65Q219 54 270 60L270-3Q240-8 200-8L182-40Q263-51 263-123Q263-164 229.50-187Q196-210 140-210Q111-210 90-201L90-157Q111-168 143-168Q205-168 205-124Q205-71 109-78L150-2Q98 16 92 85Q91 99 91 151L91 460L20 460L20 526L91 526L91 649L177 649L177 526L276 526L276 460L177 460Z"  horiz-adv-x="313" vert-adv-y="1000"  />

      
      <glyph glyph-name="uni0164" unicode="&#x0164;" d="M294 736L227 830L294 830L324 775L354 830L420 830L353 736L294 736M612 620L366 620L366 0L280 0L280 620L34 620L34 690L612 690L612 620Z"  horiz-adv-x="612" vert-adv-y="1000"  />

      
      <glyph glyph-name="uni0165" unicode="&#x0165;" d="M337 735L337 723L277 591L216 591L268 735L337 735M177 526L276 526L276 460L177 460L177 155Q177 128 178 114Q181 76 200 65Q219 54 270 60L270-3Q239-8 197-8Q147-8 121.50 14Q96 36 92 85Q91 99 91 151L91 460L20 460L20 526L91 526L91 649L177 649L177 526Z"  horiz-adv-x="303" vert-adv-y="1000"  />

      
      <glyph glyph-name="uni0166" unicode="&#x0166;" d="M366 620L366 361L478 361L478 305L366 305L366 0L280 0L280 305L168 305L168 361L280 361L280 620L34 620L34 690L612 690L612 620L366 620Z"  horiz-adv-x="612" vert-adv-y="1000"  />

      
      </font>
</defs>
</svg>
