<?xml version="1.0" standalone="no"?>
  <!DOCTYPE svg PUBLIC "-//W3C//DTD SVG 1.1//EN" "http://www.w3.org/Graphics/SVG/1.1/DTD/svg11.dtd" >
  <svg>
  <metadata>
  Created by font-carrier
  </metadata>
  <defs>
  <font id="Extenda-30Deca" horiz-adv-x="1375" vert-adv-y="1375" >
    <font-face
      
      font-family="Extenda 30 Deca"
      
      font-weight="400"
      
      font-stretch="normal"
      
      units-per-em="2048"
      
      ascent="1632"
      
      descent="-416"
      
    />
      <missing-glyph />

      

      
      <glyph glyph-name="uni41" unicode="&#x41;" d="M275 0L474 0L353 1360L128 1360L7 0L207 0L213 212L269 212ZM216 330L236 1022L244 1022L265 330Z"  horiz-adv-x="481" vert-adv-y="2048"  />

      
      <glyph glyph-name="uni42" unicode="&#x42;" d="M26 0L250 0C403 0 466 42 466 142L466 566C466 621 444 661 401 678C442 695 462 734 462 793L462 1218C462 1318 399 1360 246 1360L26 1360ZM217 733L217 1236L242 1236C263 1236 273 1225 273 1200L273 777C273 746 260 733 232 733ZM217 125L217 625L232 625C260 625 273 612 273 581L273 160C273 136 263 125 242 125Z"  horiz-adv-x="490" vert-adv-y="2048"  />

      
      <glyph glyph-name="uni43" unicode="&#x43;" d="M22 201C22 57 100-16 255-16C406-16 484 55 488 194L488 649L283 649L283 179C283 160 274 150 255 150C236 150 226 160 226 179L226 1181C226 1200 236 1210 255 1210C274 1210 283 1200 283 1181L283 711L488 711L488 1165C484 1304 404 1376 255 1376C102 1376 22 1302 22 1159L22 201Z"  horiz-adv-x="510" vert-adv-y="2048"  />

      
      <glyph glyph-name="uni44" unicode="&#x44;" d="M26 0L249 0C400 0 478 72 478 209L478 1152C478 1289 400 1360 248 1360L26 1360ZM220 161L220 1199L246 1199C269 1199 276 1187 276 1151L276 208C276 173 269 161 246 161Z"  horiz-adv-x="500" vert-adv-y="2048"  />

      
      <glyph glyph-name="uni45" unicode="&#x45;" d="M26 0L368 0L368 137L228 137L228 620L337 620L337 730L228 730L228 1219L366 1219L366 1360L26 1360Z"  horiz-adv-x="375" vert-adv-y="2048"  />

      
      <glyph glyph-name="uni46" unicode="&#x46;" d="M26 0L225 0L225 553L337 553L337 691L225 691L225 1220L361 1220L361 1360L26 1360Z"  horiz-adv-x="380" vert-adv-y="2048"  />

      
      <glyph glyph-name="uni47" unicode="&#x47;" d="M22 199C22 56 102-16 255-16C352-16 429 2 485 37L485 714L259 714L259 607L284 607L284 121C277 116 268 113 255 113C236 112 226 121 226 142L226 1199C226 1218 236 1228 255 1228C274 1228 283 1218 283 1199L283 760L484 760L484 1187C484 1312 406 1376 255 1376C102 1376 22 1304 22 1161L22 199Z"  horiz-adv-x="510" vert-adv-y="2048"  />

      
      <glyph glyph-name="uni48" unicode="&#x48;" d="M26 0L221 0L221 608L277 608L277 0L472 0L472 1360L277 1360L277 747L221 747L221 1360L26 1360Z"  horiz-adv-x="498" vert-adv-y="2048"  />

      
      <glyph glyph-name="uni49" unicode="&#x49;" d="M26 0L225 0L225 1360L26 1360Z"  horiz-adv-x="251" vert-adv-y="2048"  />

      
      <glyph glyph-name="uni4a" unicode="&#x4a;" d="M11 0L125 0C231 0 284 55 284 165L284 1360L86 1360L86 176C86 152 75 140 53 140L11 140Z"  horiz-adv-x="309" vert-adv-y="2048"  />

      
      <glyph glyph-name="uni4b" unicode="&#x4b;" d="M26 0L225 0L222 607L246 607L285 0L495 0L426 680L491 1360L283 1360L246 747L222 747L225 1360L26 1360Z"  horiz-adv-x="509" vert-adv-y="2048"  />

      
      <glyph glyph-name="uni4c" unicode="&#x4c;" d="M26 0L336 0L336 147L225 147L225 1360L26 1360Z"  horiz-adv-x="350" vert-adv-y="2048"  />

      
      <glyph glyph-name="uni4d" unicode="&#x4d;" d="M26 0L199 0L165 952L177 952L258 0L401 0L479 951L490 951L460 0L633 0L633 1360L383 1360L334 387L325 387L276 1360L26 1360Z"  horiz-adv-x="659" vert-adv-y="2048"  />

      
      <glyph glyph-name="uni4e" unicode="&#x4e;" d="M26 0L199 0L162 948L174 948L238 198L260 0L468 0L468 1360L292 1360L325 442L315 442L255 1161L234 1360L26 1360Z"  horiz-adv-x="494" vert-adv-y="2048"  />

      
      <glyph glyph-name="uni4f" unicode="&#x4f;" d="M22 202C33 55 103-16 255-16C408-16 488 58 488 202L488 1159C488 1302 408 1376 255 1376C102 1376 22 1303 22 1166ZM255 150C236 150 227 160 227 179L227 1181C227 1200 236 1210 255 1210C274 1210 283 1200 283 1181L283 179C283 160 274 150 255 150Z"  horiz-adv-x="510" vert-adv-y="2048"  />

      
      <glyph glyph-name="uni50" unicode="&#x50;" d="M26 0L225 0L225 317L250 317C383 317 461 362 462 490L462 1187C462 1318 387 1360 238 1360L26 1360ZM217 448L217 1218L242 1218C263 1218 273 1207 273 1182L273 485C273 460 264 448 243 448Z"  horiz-adv-x="486" vert-adv-y="2048"  />

      
      <glyph glyph-name="uni51" unicode="&#x51;" d="M491-31L449-43C426-49 407-52 391-52C361-52 344-41 340-19L339-7C438 16 488 86 488 201L488 1159C488 1302 408 1376 255 1376C102 1376 22 1302 22 1159L22 201C22 85 72 15 173-8L174-19C179-130 243-185 365-185C376-185 384-185 390-184C450-183 495-174 526-158ZM226 1181C226 1200 236 1210 255 1210C274 1210 283 1200 283 1181L283 179C283 160 274 150 255 150C236 150 226 160 226 179Z"  horiz-adv-x="510" vert-adv-y="2048"  />

      
      <glyph glyph-name="uni52" unicode="&#x52;" d="M463 0L416 553C447 580 462 619 462 672L462 1187C462 1318 387 1360 238 1360L26 1360L26 0L217 0L217 509L250 509L253 509L273 0ZM273 667C273 639 264 627 243 627L217 627L217 1218L242 1218C263 1218 273 1207 273 1182Z"  horiz-adv-x="485" vert-adv-y="2048"  />

      
      <glyph glyph-name="uni53" unicode="&#x53;" d="M25 148C25 38 98-17 244-17C369-17 447 37 448 140L448 212C448 415 419 560 383 655C365 703 341 757 312 816C287 869 267 914 252 951C237 989 226 1032 219 1080C212 1123 209 1167 209 1212C209 1231 221 1241 238 1241C255 1241 266 1231 266 1212L266 982L441 982L441 1211C441 1315 371 1376 230 1376C97 1376 27 1325 26 1209L26 1155C26 1024 47 927 75 858C89 823 108 781 133 732C155 687 173 648 187 615C201 582 214 543 226 496C239 450 248 398 254 339C260 292 263 228 263 147C263 128 252 118 235 118C217 118 207 128 206 147L206 454L25 454L25 148Z"  horiz-adv-x="473" vert-adv-y="2048"  />

      
      <glyph glyph-name="uni54" unicode="&#x54;" d="M85 0L283 0L283 1208L362 1208L362 1360L6 1360L6 1208L85 1208Z"  horiz-adv-x="369" vert-adv-y="2048"  />

      
      <glyph glyph-name="uni55" unicode="&#x55;" d="M25 151C25 38 99-18 248-18C396-18 472 39 472 151L472 1360L277 1360L277 172C277 147 266 133 249 133C232 133 221 147 221 172L221 1360L25 1360L25 151Z"  horiz-adv-x="497" vert-adv-y="2048"  />

      
      <glyph glyph-name="uni56" unicode="&#x56;" d="M128 0L353 0L474 1360L275 1360L245 338L236 338L207 1360L7 1360Z"  horiz-adv-x="481" vert-adv-y="2048"  />

      
      <glyph glyph-name="uni57" unicode="&#x57;" d="M7 1360L118 0L343 0L372 938L379 938L408 0L633 0L744 1360L545 1360L515 338L507 338L476 1360L275 1360L245 338L236 338L207 1360Z"  horiz-adv-x="751" vert-adv-y="2048"  />

      
      <glyph glyph-name="uni58" unicode="&#x58;" d="M15 0L218 0L247 599L256 599L284 0L487 0L422 685L481 1360L282 1360L255 756L245 756L220 1360L21 1360L78 679Z"  horiz-adv-x="502" vert-adv-y="2048"  />

      
      <glyph glyph-name="uni59" unicode="&#x59;" d="M144 0L343 0L343 426L477 1360L273 1360L247 667L238 667L209 1360L8 1360L144 425Z"  horiz-adv-x="485" vert-adv-y="2048"  />

      
      <glyph glyph-name="uni5a" unicode="&#x5a;" d="M16 0L408 0L408 148L246 148L405 1237L405 1360L22 1360L22 1212L176 1212L16 124Z"  horiz-adv-x="425" vert-adv-y="2048"  />

      
      <glyph glyph-name="uni61" unicode="&#x61;" d="M23 119C23 35 73-16 145-16C197-16 232 8 251 56L271 0L436 0L436 935C436 1035 362 1083 249 1083C100 1083 38 1036 37 929L37 670L203 670L203 930C203 952 212 963 231 963C250 963 260 951 260 926L260 633L221 634C83 634 23 610 23 503ZM260 149C259 120 248 107 228 108C212 108 203 117 203 136L203 519C203 544 214 556 237 557L260 557Z"  horiz-adv-x="462" vert-adv-y="2048"  />

      
      <glyph glyph-name="uni62" unicode="&#x62;" d="M161 40C195 2 240-17 296-17C393-17 444 46 444 167L444 899C444 1020 400 1083 317 1083C270 1083 236 1072 216 1049L221 1074L221 1360L26 1360L26 0L146 0ZM260 131C254 122 246 118 235 118C214 118 204 134 204 165L204 934C214 943 224 947 235 947C252 947 260 935 260 910Z"  horiz-adv-x="466" vert-adv-y="2048"  />

      
      <glyph glyph-name="uni63" unicode="&#x63;" d="M23 168C23 47 93-16 232-16C368-16 439 45 442 164L442 515L261 515L261 155C261 136 251 126 232 126C213 126 204 136 204 155L204 912C204 931 213 941 232 941C251 941 261 931 261 912L261 561L442 561L442 904C439 1023 368 1083 232 1083C93 1083 23 1020 23 899L23 168Z"  horiz-adv-x="465" vert-adv-y="2048"  />

      
      <glyph glyph-name="uni64" unicode="&#x64;" d="M22 167C22 44 63-18 143-18C200-18 236 6 252 54L272 0L440 0L440 1360L245 1360L245 1074L249 1049C229 1072 196 1084 149 1084C65 1084 22 1022 22 899ZM259 160C259 133 249 120 228 120C212 120 203 140 203 172L203 900C203 931 211 947 228 947C238 947 248 943 259 936Z"  horiz-adv-x="466" vert-adv-y="2048"  />

      
      <glyph glyph-name="uni65" unicode="&#x65;" d="M438 485L442 904C442 1023 371 1083 232 1083C93 1083 23 1020 23 899L23 168C23 47 93-16 232-16C349-16 417 30 434 121L434 428L261 428L261 117C261 98 251 88 232 88C213 88 204 98 204 117L204 485ZM204 938C204 957 213 967 232 967C251 967 261 957 261 938L261 578L204 578Z"  horiz-adv-x="466" vert-adv-y="2048"  />

      
      <glyph glyph-name="uni66" unicode="&#x66;" d="M54 0L249 0L249 928L334 928L334 1065L249 1065L249 1242C249 1261 258 1270 276 1270C315 1270 334 1270 334 1269L334 1375C317 1380 273 1382 200 1382C103 1382 54 1341 54 1258L54 1065L-2 1065L-2 928L54 928Z"  horiz-adv-x="345" vert-adv-y="2048"  />

      
      <glyph glyph-name="uni67" unicode="&#x67;" d="M20-230C20-314 79-352 211-352C360-352 425-305 425-200L425 101C424 192 384 234 299 234C292 234 280 233 264 232C245 229 221 229 193 230C170 231 158 238 158 252L158 297L165 302C184 300 200 299 213 299C341 299 397 344 397 444L397 936C397 965 394 986 388 998C403 997 408 989 411 973L451 973L451 1085L386 1085C361 1085 343 1077 331 1061C302 1076 262 1083 213 1083C86 1083 30 1039 29 936L29 444C29 402 38 371 57 352C32 329 22 304 22 267L22 222C22 179 37 154 70 142C35 135 20 119 20 88ZM242 447C242 419 234 408 214 408C194 408 185 419 185 447L185 937C185 965 194 977 214 977C234 977 242 965 242 937ZM242-210C242-232 232-243 213-243C194-243 185-232 185-211L185 126L215 126C233 126 242 114 242 89Z"  horiz-adv-x="450" vert-adv-y="2048"  />

      
      <glyph glyph-name="uni68" unicode="&#x68;" d="M25 0L205 0L205 912C214 935 225 947 240 947C259 947 261 938 261 895L261 0L443 0L443 898C443 1033 413 1079 318 1079C285 1079 252 1073 221 1062L219 1360L25 1360Z"  horiz-adv-x="470" vert-adv-y="2048"  />

      
      <glyph glyph-name="uni69" unicode="&#x69;" d="M19 1226C22 1099 33 1095 124 1091C216 1095 227 1099 230 1226C227 1353 216 1360 124 1363C33 1360 22 1353 19 1226ZM26 0L222 0L222 1060C193 1056 160 1054 123 1054C93 1054 61 1056 26 1060Z"  horiz-adv-x="248" vert-adv-y="2048"  />

      
      <glyph glyph-name="uni6a" unicode="&#x6a;" d="M19 1226C22 1099 33 1095 124 1091C216 1095 227 1099 230 1226C227 1353 216 1360 124 1363C33 1360 22 1353 19 1226ZM-33-317L27-317C156-316 218-294 222-160L222 1060C215 1060 173 1054 120 1054C91 1054 60 1056 26 1060L26-167C26-194 14-203-10-203L-33-203Z"  horiz-adv-x="248" vert-adv-y="2048"  />

      
      <glyph glyph-name="uni6b" unicode="&#x6b;" d="M26 0L218 0L215 462L238 461L273 0L467 0L409 535L463 1065L272 1065L239 580L215 578L225 1360L26 1360Z"  horiz-adv-x="473" vert-adv-y="2048"  />

      
      <glyph glyph-name="uni6c" unicode="&#x6c;" d="M26 0L222 0L222 1360L26 1360Z"  horiz-adv-x="248" vert-adv-y="2048"  />

      
      <glyph glyph-name="uni6d" unicode="&#x6d;" d="M681 909C681 1022 637 1082 554 1082C491 1082 448 1060 425 1015C405 1060 370 1082 320 1082C267 1082 230 1060 209 1016L188 1065L26 1065L26 0L205 0L205 897C205 930 215 947 235 947C252 947 261 933 261 906L261 0L443 0L443 905C443 933 453 947 474 947C491 947 499 933 499 906L499 0L681 0L681 909Z"  horiz-adv-x="707" vert-adv-y="2048"  />

      
      <glyph glyph-name="uni6e" unicode="&#x6e;" d="M26 0L205 0L205 892C205 932 214 947 235 947C254 947 261 938 261 902L261 0L443 0L443 905C443 1024 404 1082 320 1082C265 1082 228 1057 209 1016L188 1065L26 1065Z"  horiz-adv-x="469" vert-adv-y="2048"  />

      
      <glyph glyph-name="uni6f" unicode="&#x6f;" d="M24 164C24 45 95-16 234-16C373-16 443 45 443 164L443 903C443 1022 373 1083 234 1083C95 1083 24 1022 24 903ZM262 155C262 132 253 121 234 121C215 121 205 132 205 155L205 912C205 934 215 945 234 945C253 945 262 934 262 912Z"  horiz-adv-x="468" vert-adv-y="2048"  />

      
      <glyph glyph-name="uni70" unicode="&#x70;" d="M444 898C444 1019 401 1083 321 1083C264 1083 227 1059 211 1010L192 1065L26 1065L25-295L213-295L213 7C247-9 280-17 312-17C399-17 444 47 444 168ZM260 131C255 123 247 119 237 119C224 119 213 127 204 143L204 902C204 931 215 946 237 946C252 946 260 935 260 912Z"  horiz-adv-x="464" vert-adv-y="2048"  />

      
      <glyph glyph-name="uni71" unicode="&#x71;" d="M322 1065L307 1025C274 1063 229 1082 172 1082C75 1082 24 1019 24 898L24 166C24 43 66-18 151-18C199-18 232-7 251 16L247-9L247-295L442-295L442 1065ZM264 140C257 125 246 118 232 118C215 118 207 130 207 153L207 935C214 943 222 947 233 947C254 947 264 932 264 902Z"  horiz-adv-x="468" vert-adv-y="2048"  />

      
      <glyph glyph-name="uni72" unicode="&#x72;" d="M26 0L222 0L222 871C222 915 242 937 283 937C294 937 315 934 320 930L320 1068C307 1074 292 1077 275 1077C245 1077 223 1058 209 1020L183 1065L26 1065Z"  horiz-adv-x="325" vert-adv-y="2048"  />

      
      <glyph glyph-name="uni73" unicode="&#x73;" d="M24 125C24 44 81-17 225-17C337-17 412 34 412 119L412 191C412 376 388 480 357 531C342 557 322 583 297 610C262 647 243 670 224 718C215 742 208 772 203 809C194 846 189 891 189 944C189 956 197 970 217 970C236 970 245 957 245 945L245 735L407 732L407 939C406 1028 337 1081 213 1081C92 1081 25 1033 25 938L25 882C25 746 51 655 83 600C99 573 120 542 147 508C174 474 194 444 208 417C222 391 231 357 236 316L239 278C244 217 247 165 247 123C247 104 236 94 219 94C200 94 191 106 191 122L191 363L24 367L24 125Z"  horiz-adv-x="436" vert-adv-y="2048"  />

      
      <glyph glyph-name="uni74" unicode="&#x74;" d="M51 156C51 56 105 0 197 0L311 0L311 138L276 138C257 138 245 152 245 171L245 929L311 929L311 1065L246 1065L246 1312L103 1311L58 1080L6 1050L6 929L51 929L51 156Z"  horiz-adv-x="307" vert-adv-y="2048"  />

      
      <glyph glyph-name="uni75" unicode="&#x75;" d="M25 155C25 42 95-16 232-16C368-16 438 41 438 152L438 1065L260 1065L260 155C260 132 251 121 232 121C213 121 203 132 203 155L203 1065L25 1065L25 155Z"  horiz-adv-x="463" vert-adv-y="2048"  />

      
      <glyph glyph-name="uni76" unicode="&#x76;" d="M108 0L351 0L446 1065L261 1065L239 382L236 211L224 211L221 382L199 1065L14 1065Z"  horiz-adv-x="460" vert-adv-y="2048"  />

      
      <glyph glyph-name="uni77" unicode="&#x77;" d="M108 0L320 0L343 843L355 843L380 0L591 0L686 1065L505 1065L483 396L480 213L468 213L466 396L443 1065L256 1065L233 396L231 213L219 213L216 396L194 1065L14 1065Z"  horiz-adv-x="700" vert-adv-y="2048"  />

      
      <glyph glyph-name="uni78" unicode="&#x78;" d="M15 0L213 0L241 469L250 469L277 0L474 0L411 536L468 1065L276 1065L249 591L239 591L214 1065L21 1065L78 532Z"  horiz-adv-x="488" vert-adv-y="2048"  />

      
      <glyph glyph-name="uni79" unicode="&#x79;" d="M78-308L199-308C291-308 344-265 367-132L446 1065L261 1065L239 382L236 211L224 211L221 382L199 1065L14 1065L100 29L179 29L173-112C173-147 169-177 142-177L78-177Z"  horiz-adv-x="460" vert-adv-y="2048"  />

      
      <glyph glyph-name="uni7a" unicode="&#x7a;" d="M16 0L394 0L394 147L255 147L392 973L392 1065L21 1065L21 919L154 919L16 94Z"  horiz-adv-x="411" vert-adv-y="2048"  />

      
      <glyph glyph-name="uni30" unicode="&#x30;" d="M22 202C22 57 96-16 243-16C388-16 464 58 464 202L464 1159C464 1302 388 1376 243 1376C98 1376 22 1303 22 1166ZM272 157C272 138 263 128 244 128C225 128 215 138 215 157L215 1203C215 1222 225 1232 244 1232C263 1232 272 1222 272 1203Z"  horiz-adv-x="486" vert-adv-y="2048"  />

      
      <glyph glyph-name="uni31" unicode="&#x31;" d="M51 0L242 0L242 1360L84 1360L-10 1327L-9 1175L54 1197Z"  horiz-adv-x="268" vert-adv-y="2048"  />

      
      <glyph glyph-name="uni32" unicode="&#x32;" d="M24 0L427 0L427 134L268 134L268 138C372 582 426 910 426 1081L426 1219C426 1324 359 1375 220 1375C91 1375 27 1321 26 1206C25 1204 25 1084 25 845L172 845L172 1207C173 1230 183 1242 200 1242C219 1242 229 1231 229 1210L229 1075C229 888 160 564 24 136Z"  horiz-adv-x="450" vert-adv-y="2048"  />

      
      <glyph glyph-name="uni33" unicode="&#x33;" d="M443 647C443 734 394 780 301 780L303 785L418 1205L418 1360L43 1360L43 1229L251 1230L139 809L49 802L49 687L220 686C244 686 256 674 256 651L256 151C255 127 245 115 227 115C210 115 200 128 200 151L200 423L23 423L22 147C22 39 93-17 228-17C369-17 443 39 443 148L443 647Z"  horiz-adv-x="465" vert-adv-y="2048"  />

      
      <glyph glyph-name="uni34" unicode="&#x34;" d="M235 0L420 0L420 335L461 334L461 470L420 470L418 1360L126 1360L8 470L8 335L235 335ZM165 470L225 1220L235 1220L235 470Z"  horiz-adv-x="471" vert-adv-y="2048"  />

      
      <glyph glyph-name="uni35" unicode="&#x35;" d="M443 650C443 750 389 798 274 801L216 802L216 1224L272 1224L272 1065L416 1065L416 1360L54 1360L31 727L57 687L216 687C243 687 256 674 256 647L256 153C256 128 247 115 228 115C209 115 200 129 200 156L200 423L23 423C22 416 22 324 22 147C22 36 85-17 218-17C371-17 443 39 443 156L443 650Z"  horiz-adv-x="467" vert-adv-y="2048"  />

      
      <glyph glyph-name="uni36" unicode="&#x36;" d="M22 154C22 38 94-17 243-17C390-17 459 39 459 156L459 677C458 786 403 838 288 838C264 835 241 815 233 791L228 792C243 1019 301 1209 400 1360L199 1360C83 1190 24 974 22 713ZM269 157C269 130 260 117 241 117C222 117 213 130 213 157L213 676C213 703 224 717 245 717C260 717 269 703 269 676Z"  horiz-adv-x="483" vert-adv-y="2048"  />

      
      <glyph glyph-name="uni37" unicode="&#x37;" d="M16 0L225 0L392 1232L392 1360L19 1360L19 1219L180 1219Z"  horiz-adv-x="409" vert-adv-y="2048"  />

      
      <glyph glyph-name="uni38" unicode="&#x38;" d="M26 143C26 34 96-18 241-18C388-18 457 34 457 143L457 609C457 662 447 691 418 716C441 733 454 767 454 804L454 1222C454 1326 386 1375 242 1375C97 1375 28 1326 28 1222L28 804C29 765 43 732 66 716C37 691 26 663 26 608ZM270 797C270 772 260 759 241 759C222 759 213 772 213 797L213 1211C213 1237 222 1250 241 1250C260 1250 270 1237 270 1211ZM270 149C270 124 260 111 241 111C222 111 213 124 213 149L213 616C213 645 221 657 241 657C261 657 270 645 270 616Z"  horiz-adv-x="479" vert-adv-y="2048"  />

      
      <glyph glyph-name="uni39" unicode="&#x39;" d="M254 567C249 356 188 167 71 0L273 0C398 159 460 375 460 646L460 1205C460 1321 389 1377 240 1377C93 1377 23 1320 23 1203L23 682C23 573 78 521 195 521C219 524 241 544 249 568ZM270 683C270 656 259 642 238 642C222 642 214 656 214 683L214 1202C214 1229 223 1242 242 1242C261 1242 270 1229 270 1202Z"  horiz-adv-x="483" vert-adv-y="2048"  />

      
      <glyph glyph-name="uni2e" unicode="&#x2e;" d="M22 120C25-1 37-14 116-17C196-13 209-2 211 120C208 255 196 266 117 270C37 266 24 255 22 120Z"  horiz-adv-x="233" vert-adv-y="2048"  />

      
      <glyph glyph-name="uni2c" unicode="&#x2c;" d="M-5-150L141-150L204 246L26 246Z"  horiz-adv-x="222" vert-adv-y="2048"  />

      
      <glyph glyph-name="uni2d" unicode="&#x2d;" d="M26 497L330 497L330 635L26 635Z"  horiz-adv-x="355" vert-adv-y="2048"  />

      
      <glyph glyph-name="unic1" unicode="&#xc1;" d="M275 0L474 0L353 1360L128 1360L7 0L207 0L213 212L269 212ZM216 330L236 1022L244 1022L265 330ZM163 1403L303 1403L379 1699L211 1701Z"  horiz-adv-x="481" vert-adv-y="2048"  />

      
      <glyph glyph-name="uni0102" unicode="&#x0102;" d="M275 0L474 0L353 1360L128 1360L7 0L207 0L213 212L269 212ZM216 330L236 1022L244 1022L265 330ZM90 1531C90 1439 132 1402 239 1402C344 1402 387 1439 387 1531L387 1685L263 1685L263 1531C263 1499 255 1483 239 1483C223 1483 215 1499 215 1531L215 1685L90 1685Z"  horiz-adv-x="481" vert-adv-y="2048"  />

      
      <glyph glyph-name="uni1EAE" unicode="&#x1EAE;" d="M275 0L474 0L353 1360L128 1360L7 0L207 0L213 212L269 212ZM216 330L236 1022L244 1022L265 330ZM90 1520C91 1433 130 1402 239 1402C347 1402 387 1433 388 1520L388 1653L263 1653L263 1523C263 1490 256 1478 239 1478C222 1478 215 1490 215 1523L215 1653L90 1653ZM162 1698L302 1698L378 1950L210 1953Z"  horiz-adv-x="481" vert-adv-y="2048"  />

      
      <glyph glyph-name="uni1EB6" unicode="&#x1EB6;" d="M275 0L474 0L353 1360L128 1360L7 0L207 0L213 212L269 212ZM216 330L236 1022L244 1022L265 330ZM160-174C163-277 172-283 239-286C305-286 318-274 318-174C318-61 305-51 239-51C173-51 160-61 160-174ZM91 1520C92 1433 131 1402 240 1402C348 1402 388 1433 389 1520L389 1653L264 1653L264 1523C264 1490 257 1478 240 1478C223 1478 216 1490 216 1523L216 1653L91 1653Z"  horiz-adv-x="481" vert-adv-y="2048"  />

      
      <glyph glyph-name="uni1EB0" unicode="&#x1EB0;" d="M275 0L474 0L353 1360L128 1360L7 0L207 0L213 212L269 212ZM216 330L236 1022L244 1022L265 330ZM90 1520C91 1433 130 1402 239 1402C347 1402 387 1433 388 1520L388 1653L263 1653L263 1523C263 1490 256 1478 239 1478C222 1478 215 1490 215 1523L215 1653L90 1653ZM173 1698L313 1698L265 1952L97 1950Z"  horiz-adv-x="481" vert-adv-y="2048"  />

      
      <glyph glyph-name="uni1EB2" unicode="&#x1EB2;" d="M275 0L474 0L353 1360L128 1360L7 0L207 0L213 212L269 212ZM216 330L236 1022L244 1022L265 330ZM90 1520C91 1433 130 1402 239 1402C347 1402 387 1433 388 1520L388 1653L263 1653L263 1523C263 1490 256 1478 239 1478C222 1478 215 1490 215 1523L215 1653L90 1653ZM177 1698C222 1698 255 1701 275 1706C326 1719 352 1749 352 1795L352 1921C352 1989 309 2023 222 2023C193 2023 161 2018 128 2009L142 1934C149 1936 164 1938 185 1939C214 1939 228 1931 228 1915L227 1789C227 1774 213 1768 176 1767Z"  horiz-adv-x="481" vert-adv-y="2048"  />

      
      <glyph glyph-name="uni1EB4" unicode="&#x1EB4;" d="M275 0L474 0L353 1360L128 1360L7 0L207 0L213 212L269 212ZM216 330L236 1022L244 1022L265 330ZM90 1520C91 1433 130 1402 239 1402C347 1402 387 1433 388 1520L388 1653L263 1653L263 1523C263 1490 256 1478 239 1478C222 1478 215 1490 215 1523L215 1653L90 1653ZM81 1776C82 1765 82 1739 82 1700L176 1700L176 1822C176 1841 180 1850 188 1850C195 1850 200 1842 203 1827L203 1750C208 1711 233 1696 286 1696C362 1696 394 1730 394 1809L394 1859C393 1870 393 1895 393 1934L299 1934L299 1811C299 1793 295 1784 287 1784C279 1784 275 1790 272 1806L272 1884C267 1923 244 1938 189 1938C113 1938 81 1904 81 1823Z"  horiz-adv-x="481" vert-adv-y="2048"  />

      
      <glyph glyph-name="uni01CD" unicode="&#x01CD;" d="M275 0L474 0L353 1360L128 1360L7 0L207 0L213 212L269 212ZM216 330L236 1022L244 1022L265 330ZM148 1403L331 1403L399 1697L276 1698L239 1494L202 1698L80 1697Z"  horiz-adv-x="481" vert-adv-y="2048"  />

      
      <glyph glyph-name="unic2" unicode="&#xc2;" d="M275 0L474 0L353 1360L128 1360L7 0L207 0L213 212L269 212ZM216 330L236 1022L244 1022L265 330ZM203 1403L239 1608L276 1403L391 1404L339 1658L140 1658L88 1404Z"  horiz-adv-x="481" vert-adv-y="2048"  />

      
      <glyph glyph-name="uni1EA4" unicode="&#x1EA4;" d="M275 0L474 0L353 1360L128 1360L7 0L207 0L213 212L269 212ZM216 330L236 1022L244 1022L265 330ZM202 1403L238 1608L275 1403L390 1404L338 1658L139 1658L87 1404ZM162 1701L302 1701L378 1953L210 1956Z"  horiz-adv-x="481" vert-adv-y="2048"  />

      
      <glyph glyph-name="uni1EAC" unicode="&#x1EAC;" d="M275 0L474 0L353 1360L128 1360L7 0L207 0L213 212L269 212ZM216 330L236 1022L244 1022L265 330ZM160-174C163-277 172-283 239-286C305-286 318-274 318-174C318-61 305-51 239-51C173-51 160-61 160-174ZM203 1403L239 1608L276 1403L391 1404L339 1658L140 1658L88 1404Z"  horiz-adv-x="481" vert-adv-y="2048"  />

      
      <glyph glyph-name="uni1EA6" unicode="&#x1EA6;" d="M275 0L474 0L353 1360L128 1360L7 0L207 0L213 212L269 212ZM216 330L236 1022L244 1022L265 330ZM203 1403L239 1608L276 1403L391 1404L339 1658L140 1658L88 1404ZM173 1701L313 1701L265 1955L97 1953Z"  horiz-adv-x="481" vert-adv-y="2048"  />

      
      <glyph glyph-name="uni1EA8" unicode="&#x1EA8;" d="M275 0L474 0L353 1360L128 1360L7 0L207 0L213 212L269 212ZM216 330L236 1022L244 1022L265 330ZM203 1403L239 1608L276 1403L391 1404L339 1658L140 1658L88 1404ZM178 1701C223 1701 256 1704 276 1709C327 1722 353 1752 353 1798L353 1924C353 1992 310 2026 223 2026C194 2026 162 2021 129 2012L143 1937C150 1939 165 1941 186 1942C215 1942 229 1934 229 1918L228 1792C228 1777 214 1771 177 1770Z"  horiz-adv-x="481" vert-adv-y="2048"  />

      
      <glyph glyph-name="uni1EAA" unicode="&#x1EAA;" d="M275 0L474 0L353 1360L128 1360L7 0L207 0L213 212L269 212ZM216 330L236 1022L244 1022L265 330ZM203 1403L239 1608L276 1403L391 1404L339 1658L140 1658L88 1404ZM82 1779C83 1768 83 1742 83 1703L177 1703L177 1825C177 1844 181 1853 189 1853C196 1853 201 1845 204 1830L204 1753C209 1714 234 1699 287 1699C363 1699 395 1733 395 1812L395 1862C394 1873 394 1898 394 1937L300 1937L300 1814C300 1796 296 1787 288 1787C280 1787 276 1793 273 1809L273 1887C268 1926 245 1941 190 1941C114 1941 82 1907 82 1826Z"  horiz-adv-x="481" vert-adv-y="2048"  />

      
      <glyph glyph-name="unic4" unicode="&#xc4;" d="M275 0L474 0L353 1360L128 1360L7 0L207 0L213 212L269 212ZM216 330L236 1022L244 1022L265 330ZM89 1522C89 1413 98 1403 152 1403C203 1403 215 1414 215 1522C212 1645 206 1650 151 1653C99 1653 89 1643 89 1522ZM260 1522C260 1414 272 1403 323 1403C374 1403 386 1414 386 1522C383 1645 377 1650 322 1653C270 1653 260 1642 260 1522Z"  horiz-adv-x="481" vert-adv-y="2048"  />

      
      <glyph glyph-name="uni01DE" unicode="&#x01DE;" d="M275 0L474 0L353 1360L128 1360L7 0L207 0L213 212L269 212ZM216 330L236 1022L244 1022L265 330ZM89 1522C89 1413 98 1403 152 1403C203 1403 215 1414 215 1522C212 1645 206 1650 151 1653C99 1653 89 1643 89 1522ZM260 1522C260 1414 272 1403 323 1403C374 1403 386 1414 386 1522C383 1645 377 1650 322 1653C270 1653 260 1642 260 1522ZM98 1697L377 1697L377 1799L98 1799Z"  horiz-adv-x="481" vert-adv-y="2048"  />

      
      <glyph glyph-name="uni1EA0" unicode="&#x1EA0;" d="M275 0L474 0L353 1360L128 1360L7 0L207 0L213 212L269 212ZM216 330L236 1022L244 1022L265 330ZM160-174C163-277 172-283 239-286C305-286 318-274 318-174C318-61 305-51 239-51C173-51 160-61 160-174Z"  horiz-adv-x="481" vert-adv-y="2048"  />

      
      <glyph glyph-name="unic0" unicode="&#xc0;" d="M275 0L474 0L353 1360L128 1360L7 0L207 0L213 212L269 212ZM216 330L236 1022L244 1022L265 330ZM171 1403L311 1403L263 1701L95 1699Z"  horiz-adv-x="481" vert-adv-y="2048"  />

      
      <glyph glyph-name="uni1EA2" unicode="&#x1EA2;" d="M275 0L474 0L353 1360L128 1360L7 0L207 0L213 212L269 212ZM216 330L236 1022L244 1022L265 330ZM178 1403C223 1403 256 1406 276 1411C327 1424 353 1454 353 1500L353 1626C353 1694 310 1728 223 1728C194 1728 162 1723 129 1714L143 1639C150 1641 165 1643 186 1644C215 1644 229 1636 229 1620L228 1494C228 1479 214 1473 177 1472Z"  horiz-adv-x="481" vert-adv-y="2048"  />

      
      <glyph glyph-name="uni0100" unicode="&#x0100;" d="M275 0L474 0L353 1360L128 1360L7 0L207 0L213 212L269 212ZM216 330L236 1022L244 1022L265 330ZM99 1403L378 1403L378 1505L99 1505Z"  horiz-adv-x="481" vert-adv-y="2048"  />

      
      <glyph glyph-name="uni0104" unicode="&#x0104;" d="M431-219C418-238 405-247 394-247C380-247 373-238 373-221C373-143 406-69 472 0L474 0L353 1360L128 1360L7 0L207 0L213 212L269 212L275 0L314 0C235-73 196-157 196-250C196-321 243-357 332-357C401-357 452-334 483-287ZM216 330L236 1022L244 1022L265 330Z"  horiz-adv-x="481" vert-adv-y="2048"  />

      
      <glyph glyph-name="unic5" unicode="&#xc5;" d="M275 0L474 0L353 1360L128 1360L7 0L207 0L213 212L269 212ZM216 330L236 1022L244 1022L265 330ZM113 1505C113 1438 156 1403 239 1403C322 1403 365 1438 365 1505L365 1583C365 1650 323 1684 239 1684C156 1684 113 1650 113 1583ZM271 1505C271 1486 259 1476 239 1476C217 1476 206 1486 206 1505L206 1583C206 1601 217 1610 239 1610C260 1610 271 1601 271 1583Z"  horiz-adv-x="481" vert-adv-y="2048"  />

      
      <glyph glyph-name="uni01FA" unicode="&#x01FA;" d="M275 0L474 0L353 1360L128 1360L7 0L207 0L213 212L269 212ZM216 330L236 1022L244 1022L265 330ZM113 1505C113 1438 156 1403 239 1403C322 1403 365 1438 365 1505L365 1583C365 1650 323 1684 239 1684C156 1684 113 1650 113 1583ZM271 1505C271 1486 259 1476 239 1476C217 1476 206 1486 206 1505L206 1583C206 1601 217 1610 239 1610C260 1610 271 1601 271 1583ZM162 1721L302 1721L378 1973L210 1976Z"  horiz-adv-x="481" vert-adv-y="2048"  />

      
      <glyph glyph-name="unic3" unicode="&#xc3;" d="M275 0L474 0L353 1360L128 1360L7 0L207 0L213 212L269 212ZM216 330L236 1022L244 1022L265 330ZM84 1409L178 1407L178 1529C178 1548 182 1557 190 1557C197 1557 202 1549 205 1534L205 1457C210 1418 233 1405 288 1405C367 1405 396 1428 396 1505L395 1627L301 1627L301 1504C301 1486 297 1477 289 1477C281 1477 277 1484 274 1500L274 1577C269 1617 246 1632 191 1632C112 1632 83 1611 83 1532Z"  horiz-adv-x="481" vert-adv-y="2048"  />

      
      <glyph glyph-name="unic6" unicode="&#xc6;" d="M16 0L215 0L229 214L284 214L284 0L626 0L626 137L483 137L483 620L595 620L595 730L483 730L483 1219L624 1219L624 1360L183 1360ZM239 332L271 821L278 1022L286 1022L284 332Z"  horiz-adv-x="635" vert-adv-y="2048"  />

      
      <glyph glyph-name="uni01FC" unicode="&#x01FC;" d="M16 0L215 0L229 214L284 214L284 0L626 0L626 137L483 137L483 620L595 620L595 730L483 730L483 1219L624 1219L624 1360L183 1360ZM239 332L271 821L278 1022L286 1022L284 332ZM363 1403L503 1403L579 1699L411 1701Z"  horiz-adv-x="643" vert-adv-y="2048"  />

      
      <glyph glyph-name="uni1E04" unicode="&#x1E04;" d="M26 0L250 0C403 0 466 42 466 142L466 566C466 621 444 661 401 678C442 695 462 734 462 793L462 1218C462 1318 399 1360 246 1360L26 1360ZM217 733L217 1236L242 1236C263 1236 273 1225 273 1200L273 777C273 746 260 733 232 733ZM217 125L217 625L232 625C260 625 273 612 273 581L273 160C273 136 263 125 242 125ZM165-174C168-277 177-283 244-286C310-286 323-274 323-174C323-61 310-51 244-51C178-51 165-61 165-174Z"  horiz-adv-x="490" vert-adv-y="2048"  />

      
      <glyph glyph-name="uni0106" unicode="&#x0106;" d="M22 201C22 57 100-16 255-16C406-16 484 55 488 194L488 649L283 649L283 179C283 160 274 150 255 150C236 150 226 160 226 179L226 1181C226 1200 236 1210 255 1210C274 1210 283 1200 283 1181L283 711L488 711L488 1165C484 1304 404 1376 255 1376C102 1376 22 1302 22 1159ZM179 1419L319 1419L395 1715L227 1717Z"  horiz-adv-x="510" vert-adv-y="2048"  />

      
      <glyph glyph-name="uni010C" unicode="&#x010C;" d="M22 201C22 57 100-16 255-16C406-16 484 55 488 194L488 649L283 649L283 179C283 160 274 150 255 150C236 150 226 160 226 179L226 1181C226 1200 236 1210 255 1210C274 1210 283 1200 283 1181L283 711L488 711L488 1165C484 1304 404 1376 255 1376C102 1376 22 1302 22 1159ZM163 1419L346 1419L414 1713L291 1714L254 1510L217 1714L95 1713Z"  horiz-adv-x="510" vert-adv-y="2048"  />

      
      <glyph glyph-name="unic7" unicode="&#xc7;" d="M488 711L488 1165C484 1304 404 1376 255 1376C102 1376 22 1302 22 1159L22 201C22 77 80 6 195-12L182-185C223-185 244-195 244-214L244-340C244-357 232-366 208-366C191-366 178-364 171-361L154-455C177-467 207-473 244-473C336-473 384-430 384-349L384-222C384-162 358-127 306-118L313-12C425 5 485 74 488 194L488 649L283 649L283 179C283 160 274 150 255 150C236 150 226 160 226 179L226 1181C226 1200 236 1210 255 1210C274 1210 283 1200 283 1181L283 711Z"  horiz-adv-x="510" vert-adv-y="2048"  />

      
      <glyph glyph-name="uni0108" unicode="&#x0108;" d="M22 201C22 57 100-16 255-16C406-16 484 55 488 194L488 649L283 649L283 179C283 160 274 150 255 150C236 150 226 160 226 179L226 1181C226 1200 236 1210 255 1210C274 1210 283 1200 283 1181L283 711L488 711L488 1165C484 1304 404 1376 255 1376C102 1376 22 1302 22 1159ZM219 1419L255 1624L292 1419L407 1420L355 1714L156 1714L104 1420Z"  horiz-adv-x="510" vert-adv-y="2048"  />

      
      <glyph glyph-name="uni010A" unicode="&#x010A;" d="M22 201C22 57 100-16 255-16C406-16 484 55 488 194L488 649L283 649L283 179C283 160 274 150 255 150C236 150 226 160 226 179L226 1181C226 1200 236 1210 255 1210C274 1210 283 1200 283 1181L283 711L488 711L488 1165C484 1304 404 1376 255 1376C102 1376 22 1302 22 1159ZM176 1534C176 1434 192 1418 255 1418C318 1418 334 1432 334 1534C332 1650 320 1660 255 1663C192 1663 176 1647 176 1534Z"  horiz-adv-x="510" vert-adv-y="2048"  />

      
      <glyph glyph-name="unid0" unicode="&#xd0;" d="M487 1152C487 1289 395 1360 258 1360L36 1360L36 728L8 728L8 609L36 609L36 0L258 0C406 0 487 76 487 208ZM288 208C288 152 281 139 257 139L231 139L231 609L248 609L248 728L231 728L231 1221L257 1221C281 1221 288 1208 288 1152Z"  horiz-adv-x="509" vert-adv-y="2048"  />

      
      <glyph glyph-name="uni010E" unicode="&#x010E;" d="M26 0L249 0C400 0 478 72 478 209L478 1152C478 1289 400 1360 248 1360L26 1360ZM220 161L220 1199L246 1199C269 1199 276 1187 276 1151L276 208C276 173 269 161 246 161ZM157 1403L340 1403L408 1697L285 1698L248 1494L211 1698L89 1697Z"  horiz-adv-x="500" vert-adv-y="2048"  />

      
      <glyph glyph-name="uni0110" unicode="&#x0110;" d="M487 1152C487 1289 395 1360 258 1360L36 1360L36 728L8 728L8 609L36 609L36 0L258 0C406 0 487 76 487 208ZM288 208C288 152 281 139 257 139L231 139L231 609L248 609L248 728L231 728L231 1221L257 1221C281 1221 288 1208 288 1152Z"  horiz-adv-x="509" vert-adv-y="2048"  />

      
      <glyph glyph-name="uni1E0C" unicode="&#x1E0C;" d="M26 0L249 0C400 0 478 72 478 209L478 1152C478 1289 400 1360 248 1360L26 1360ZM220 161L220 1199L246 1199C269 1199 276 1187 276 1151L276 208C276 173 269 161 246 161ZM170-174C173-277 182-283 249-286C315-286 328-274 328-174C328-61 315-51 249-51C183-51 170-61 170-174Z"  horiz-adv-x="500" vert-adv-y="2048"  />

      
      <glyph glyph-name="unic9" unicode="&#xc9;" d="M26 0L368 0L368 137L228 137L228 620L337 620L337 730L228 730L228 1219L366 1219L366 1360L26 1360ZM121 1403L261 1403L337 1699L169 1701Z"  horiz-adv-x="375" vert-adv-y="2048"  />

      
      <glyph glyph-name="uni0114" unicode="&#x0114;" d="M26 0L368 0L368 137L228 137L228 620L337 620L337 730L228 730L228 1219L366 1219L366 1360L26 1360ZM49 1531C49 1439 91 1402 198 1402C303 1402 346 1439 346 1531L346 1685L222 1685L222 1531C222 1499 214 1483 198 1483C182 1483 174 1499 174 1531L174 1685L49 1685Z"  horiz-adv-x="375" vert-adv-y="2048"  />

      
      <glyph glyph-name="uni011A" unicode="&#x011A;" d="M26 0L368 0L368 137L228 137L228 620L337 620L337 730L228 730L228 1219L366 1219L366 1360L26 1360ZM106 1403L289 1403L357 1697L234 1698L197 1494L160 1698L38 1697Z"  horiz-adv-x="375" vert-adv-y="2048"  />

      
      <glyph glyph-name="uni0228" unicode="&#x0228;" d="M368 0L368 137L228 137L228 620L337 620L337 730L228 730L228 1219L366 1219L366 1360L26 1360L26 0L137 0L124-168C166-169 187-179 187-197L187-324C187-341 175-350 151-350C134-350 122-348 114-344L97-439C121-450 151-456 187-456C279-456 327-413 327-332L327-206C327-146 300-110 249-101L255 0Z"  horiz-adv-x="375" vert-adv-y="2048"  />

      
      <glyph glyph-name="unica" unicode="&#xca;" d="M26 0L368 0L368 137L228 137L228 620L337 620L337 730L228 730L228 1219L366 1219L366 1360L26 1360ZM161 1403L197 1608L234 1403L349 1404L297 1698L98 1698L46 1404Z"  horiz-adv-x="375" vert-adv-y="2048"  />

      
      <glyph glyph-name="uni1EBE" unicode="&#x1EBE;" d="M26 0L368 0L368 137L228 137L228 620L337 620L337 730L228 730L228 1219L366 1219L366 1360L26 1360ZM161 1403L197 1608L234 1403L349 1404L297 1658L98 1658L46 1404ZM121 1701L261 1701L337 1953L169 1956Z"  horiz-adv-x="375" vert-adv-y="2048"  />

      
      <glyph glyph-name="uni1EC6" unicode="&#x1EC6;" d="M26 0L368 0L368 137L228 137L228 620L337 620L337 730L228 730L228 1219L366 1219L366 1360L26 1360ZM119-174C122-277 131-283 198-286C264-286 277-274 277-174C277-61 264-51 198-51C132-51 119-61 119-174ZM161 1403L197 1608L234 1403L349 1404L297 1658L98 1658L46 1404Z"  horiz-adv-x="375" vert-adv-y="2048"  />

      
      <glyph glyph-name="uni1EC0" unicode="&#x1EC0;" d="M26 0L368 0L368 137L228 137L228 620L337 620L337 730L228 730L228 1219L366 1219L366 1360L26 1360ZM161 1403L197 1608L234 1403L349 1404L297 1658L98 1658L46 1404ZM131 1701L271 1701L223 1955L55 1953Z"  horiz-adv-x="375" vert-adv-y="2048"  />

      
      <glyph glyph-name="uni1EC2" unicode="&#x1EC2;" d="M26 0L368 0L368 137L228 137L228 620L337 620L337 730L228 730L228 1219L366 1219L366 1360L26 1360ZM161 1403L197 1608L234 1403L349 1404L297 1658L98 1658L46 1404ZM136 1701C181 1701 214 1704 234 1709C285 1722 311 1752 311 1798L311 1924C311 1992 268 2026 181 2026C152 2026 120 2021 87 2012L101 1937C108 1939 123 1941 144 1942C173 1942 187 1934 187 1918L186 1792C186 1777 172 1771 135 1770Z"  horiz-adv-x="375" vert-adv-y="2048"  />

      
      <glyph glyph-name="uni1EC4" unicode="&#x1EC4;" d="M26 0L368 0L368 137L228 137L228 620L337 620L337 730L228 730L228 1219L366 1219L366 1360L26 1360ZM161 1403L197 1608L234 1403L349 1404L297 1658L98 1658L46 1404ZM40 1779C41 1768 41 1742 41 1703L135 1703L135 1825C135 1844 139 1853 147 1853C154 1853 159 1845 162 1830L162 1753C167 1714 192 1699 245 1699C321 1699 353 1733 353 1812L353 1862C352 1873 352 1898 352 1937L258 1937L258 1814C258 1796 254 1787 246 1787C238 1787 234 1793 231 1809L231 1887C226 1926 203 1941 148 1941C72 1941 40 1907 40 1826Z"  horiz-adv-x="375" vert-adv-y="2048"  />

      
      <glyph glyph-name="unicb" unicode="&#xcb;" d="M26 0L368 0L368 137L228 137L228 620L337 620L337 730L228 730L228 1219L366 1219L366 1360L26 1360ZM48 1522C48 1413 57 1403 111 1403C162 1403 174 1414 174 1522C171 1645 165 1650 110 1653C58 1653 48 1643 48 1522ZM219 1522C219 1414 231 1403 282 1403C333 1403 345 1414 345 1522C342 1645 336 1650 281 1653C229 1653 219 1642 219 1522Z"  horiz-adv-x="375" vert-adv-y="2048"  />

      
      <glyph glyph-name="uni0116" unicode="&#x0116;" d="M26 0L368 0L368 137L228 137L228 620L337 620L337 730L228 730L228 1219L366 1219L366 1360L26 1360ZM118 1518C118 1418 134 1402 197 1402C260 1402 276 1416 276 1518C274 1634 262 1644 197 1647C134 1647 118 1631 118 1518Z"  horiz-adv-x="375" vert-adv-y="2048"  />

      
      <glyph glyph-name="uni1EB8" unicode="&#x1EB8;" d="M26 0L368 0L368 137L228 137L228 620L337 620L337 730L228 730L228 1219L366 1219L366 1360L26 1360ZM119-174C122-277 131-283 198-286C264-286 277-274 277-174C277-61 264-51 198-51C132-51 119-61 119-174Z"  horiz-adv-x="375" vert-adv-y="2048"  />

      
      <glyph glyph-name="unic8" unicode="&#xc8;" d="M26 0L368 0L368 137L228 137L228 620L337 620L337 730L228 730L228 1219L366 1219L366 1360L26 1360ZM129 1403L269 1403L221 1701L53 1699Z"  horiz-adv-x="375" vert-adv-y="2048"  />

      
      <glyph glyph-name="uni1EBA" unicode="&#x1EBA;" d="M26 0L368 0L368 137L228 137L228 620L337 620L337 730L228 730L228 1219L366 1219L366 1360L26 1360ZM136 1403C181 1403 214 1406 234 1411C285 1424 311 1454 311 1500L311 1626C311 1694 268 1728 181 1728C152 1728 120 1723 87 1714L101 1639C108 1641 123 1643 144 1644C173 1644 187 1636 187 1620L186 1494C186 1479 172 1473 135 1472Z"  horiz-adv-x="375" vert-adv-y="2048"  />

      
      <glyph glyph-name="uni0112" unicode="&#x0112;" d="M26 0L368 0L368 137L228 137L228 620L337 620L337 730L228 730L228 1219L366 1219L366 1360L26 1360ZM58 1403L337 1403L337 1505L58 1505Z"  horiz-adv-x="375" vert-adv-y="2048"  />

      
      <glyph glyph-name="uni0118" unicode="&#x0118;" d="M327-219C312-238 300-247 289-247C275-247 268-238 268-221C268-142 301-69 368 0L368 137L228 137L228 620L337 620L337 730L228 730L228 1219L366 1219L366 1360L26 1360L26 0L210 0C131-74 91-157 91-250C91-321 138-357 227-357C296-357 347-334 378-287Z"  horiz-adv-x="375" vert-adv-y="2048"  />

      
      <glyph glyph-name="uni1EBC" unicode="&#x1EBC;" d="M26 0L368 0L368 137L228 137L228 620L337 620L337 730L228 730L228 1219L366 1219L366 1360L26 1360ZM42 1409L136 1407L136 1529C136 1548 140 1557 148 1557C155 1557 160 1549 163 1534L163 1457C168 1418 191 1405 246 1405C325 1405 354 1428 354 1505L353 1627L259 1627L259 1504C259 1486 255 1477 247 1477C239 1477 235 1484 232 1500L232 1577C227 1617 204 1632 149 1632C70 1632 41 1611 41 1532Z"  horiz-adv-x="375" vert-adv-y="2048"  />

      
      <glyph glyph-name="uni011E" unicode="&#x011E;" d="M22 199C22 56 102-16 255-16C352-16 429 2 485 37L485 714L259 714L259 607L284 607L284 121C277 116 268 113 255 113C236 112 226 121 226 142L226 1199C226 1218 236 1228 255 1228C274 1228 283 1218 283 1199L283 760L484 760L484 1187C484 1312 406 1376 255 1376C102 1376 22 1304 22 1161ZM106 1547C106 1455 148 1418 255 1418C360 1418 403 1455 403 1547L403 1701L279 1701L279 1547C279 1515 271 1499 255 1499C239 1499 231 1515 231 1547L231 1701L106 1701Z"  horiz-adv-x="510" vert-adv-y="2048"  />

      
      <glyph glyph-name="uni01E6" unicode="&#x01E6;" d="M22 199C22 56 102-16 255-16C352-16 429 2 485 37L485 714L259 714L259 607L284 607L284 121C277 116 268 113 255 113C236 112 226 121 226 142L226 1199C226 1218 236 1228 255 1228C274 1228 283 1218 283 1199L283 760L484 760L484 1187C484 1312 406 1376 255 1376C102 1376 22 1304 22 1161ZM163 1419L346 1419L414 1673L291 1674L254 1510L217 1674L95 1673Z"  horiz-adv-x="510" vert-adv-y="2048"  />

      
      <glyph glyph-name="uni011C" unicode="&#x011C;" d="M22 199C22 56 102-16 255-16C352-16 429 2 485 37L485 714L259 714L259 607L284 607L284 121C277 116 268 113 255 113C236 112 226 121 226 142L226 1199C226 1218 236 1228 255 1228C274 1228 283 1218 283 1199L283 760L484 760L484 1187C484 1312 406 1376 255 1376C102 1376 22 1304 22 1161ZM219 1419L255 1624L292 1419L407 1420L355 1714L156 1714L104 1420Z"  horiz-adv-x="510" vert-adv-y="2048"  />

      
      <glyph glyph-name="uni0122" unicode="&#x0122;" d="M22 199C22 56 102-16 255-16C352-16 429 2 485 37L485 714L259 714L259 607L284 607L284 121C277 116 268 113 255 113C236 112 226 121 226 142L226 1199C226 1218 236 1228 255 1228C274 1228 283 1218 283 1199L283 760L484 760L484 1187C484 1312 406 1376 255 1376C102 1376 22 1304 22 1161ZM139-398L284-398L345-64L166-64Z"  horiz-adv-x="510" vert-adv-y="2048"  />

      
      <glyph glyph-name="uni0120" unicode="&#x0120;" d="M22 199C22 56 102-16 255-16C352-16 429 2 485 37L485 714L259 714L259 607L284 607L284 121C277 116 268 113 255 113C236 112 226 121 226 142L226 1199C226 1218 236 1228 255 1228C274 1228 283 1218 283 1199L283 760L484 760L484 1187C484 1312 406 1376 255 1376C102 1376 22 1304 22 1161ZM176 1534C176 1434 192 1418 255 1418C318 1418 334 1432 334 1534C332 1650 320 1660 255 1663C192 1663 176 1647 176 1534Z"  horiz-adv-x="510" vert-adv-y="2048"  />

      
      <glyph glyph-name="uni0126" unicode="&#x0126;" d="M27 0L221 0L221 625L278 625L278 0L473 0L473 1360L278 1360L278 1027L221 1027L221 1360L27 1360ZM221 727L221 926L278 926L278 727Z"  horiz-adv-x="499" vert-adv-y="2048"  />

      
      <glyph glyph-name="uni0124" unicode="&#x0124;" d="M26 0L221 0L221 608L277 608L277 0L472 0L472 1360L277 1360L277 747L221 747L221 1360L26 1360ZM212 1403L248 1608L285 1403L400 1404L348 1698L149 1698L97 1404Z"  horiz-adv-x="498" vert-adv-y="2048"  />

      
      <glyph glyph-name="uni1E24" unicode="&#x1E24;" d="M26 0L221 0L221 608L277 608L277 0L472 0L472 1360L277 1360L277 747L221 747L221 1360L26 1360ZM170-174C173-277 182-283 249-286C315-286 328-274 328-174C328-61 315-51 249-51C183-51 170-61 170-174Z"  horiz-adv-x="498" vert-adv-y="2048"  />

      
      <glyph glyph-name="uniA78D" unicode="&#xA78D;" d="M262 0L472 0L472 1360L276 1360L276 459C267 436 256 424 242 424C222 424 220 429 220 476L220 1360L25 1360L25 462C25 331 70 280 163 280C196 280 229 287 260 300Z"  horiz-adv-x="498" vert-adv-y="2048"  />

      
      <glyph glyph-name="uni0132" unicode="&#x0132;" d="M26 0L319 0C420 0 479 57 479 165L479 1360L280 1360L280 176C280 152 269 140 247 140L26 140ZM26 190L225 190L225 1360L26 1360Z"  horiz-adv-x="504" vert-adv-y="2048"  />

      
      <glyph glyph-name="unicd" unicode="&#xcd;" d="M26 0L225 0L225 1360L26 1360ZM50 1403L190 1403L266 1699L98 1701Z"  horiz-adv-x="251" vert-adv-y="2048"  />

      
      <glyph glyph-name="uni012C" unicode="&#x012C;" d="M26 0L225 0L225 1360L26 1360ZM-42 1531C-42 1439 0 1402 107 1402C212 1402 255 1439 255 1531L255 1685L131 1685L131 1531C131 1499 123 1483 107 1483C91 1483 83 1499 83 1531L83 1685L-42 1685Z"  horiz-adv-x="788" vert-adv-y="2048"  />

      
      <glyph glyph-name="uni01CF" unicode="&#x01CF;" d="M26 0L225 0L225 1360L26 1360ZM35 1403L218 1403L286 1697L163 1698L126 1494L89 1698L-33 1697Z"  horiz-adv-x="251" vert-adv-y="2048"  />

      
      <glyph glyph-name="unice" unicode="&#xce;" d="M26 0L225 0L225 1360L26 1360ZM90 1403L126 1608L163 1403L278 1404L226 1698L27 1698L-25 1404Z"  horiz-adv-x="251" vert-adv-y="2048"  />

      
      <glyph glyph-name="unicf" unicode="&#xcf;" d="M26 0L225 0L225 1360L26 1360ZM-24 1522C-24 1413-15 1403 39 1403C90 1403 102 1414 102 1522C99 1645 93 1650 38 1653C-14 1653-24 1643-24 1522ZM147 1522C147 1414 159 1403 210 1403C261 1403 273 1414 273 1522C270 1645 264 1650 209 1653C157 1653 147 1642 147 1522Z"  horiz-adv-x="251" vert-adv-y="2048"  />

      
      <glyph glyph-name="uni1E2E" unicode="&#x1E2E;" d="M26 0L225 0L225 1360L26 1360ZM-24 1522C-24 1413-15 1403 39 1403C90 1403 102 1414 102 1522C99 1645 93 1650 38 1653C-14 1653-24 1643-24 1522ZM147 1522C147 1414 159 1403 210 1403C261 1403 273 1414 273 1522C270 1645 264 1650 209 1653C157 1653 147 1642 147 1522ZM48 1697L188 1697L264 1949L96 1952Z"  horiz-adv-x="251" vert-adv-y="2048"  />

      
      <glyph glyph-name="uni0130" unicode="&#x0130;" d="M26 0L225 0L225 1360L26 1360ZM47 1518C47 1418 63 1402 126 1402C189 1402 205 1416 205 1518C203 1634 191 1644 126 1647C63 1647 47 1631 47 1518Z"  horiz-adv-x="251" vert-adv-y="2048"  />

      
      <glyph glyph-name="uni1ECA" unicode="&#x1ECA;" d="M26 0L225 0L225 1360L26 1360ZM47-174C50-277 59-283 126-286C192-286 205-274 205-174C205-61 192-51 126-51C60-51 47-61 47-174Z"  horiz-adv-x="251" vert-adv-y="2048"  />

      
      <glyph glyph-name="unicc" unicode="&#xcc;" d="M26 0L225 0L225 1360L26 1360ZM58 1403L198 1403L150 1701L-18 1699Z"  horiz-adv-x="251" vert-adv-y="2048"  />

      
      <glyph glyph-name="uni1EC8" unicode="&#x1EC8;" d="M26 0L225 0L225 1360L26 1360ZM65 1403C110 1403 143 1406 163 1411C214 1424 240 1454 240 1500L240 1626C240 1694 197 1728 110 1728C81 1728 49 1723 16 1714L30 1639C37 1641 52 1643 73 1644C102 1644 116 1636 116 1620L115 1494C115 1479 101 1473 64 1472Z"  horiz-adv-x="251" vert-adv-y="2048"  />

      
      <glyph glyph-name="uni012A" unicode="&#x012A;" d="M26 0L225 0L225 1360L26 1360ZM-14 1403L265 1403L265 1505L-14 1505Z"  horiz-adv-x="251" vert-adv-y="2048"  />

      
      <glyph glyph-name="uni012E" unicode="&#x012E;" d="M184-218C169-237 157-246 146-246C132-246 125-238 125-221C125-142 160-67 225 0L225 1360L26 1360L26 0L67 0C-12-74-52-157-52-249C-52-320-7-356 84-356C154-356 204-333 235-286Z"  horiz-adv-x="251" vert-adv-y="2048"  />

      
      <glyph glyph-name="uni0128" unicode="&#x0128;" d="M26 0L225 0L225 1360L26 1360ZM-31 1481C-30 1470-30 1444-30 1405L64 1405L64 1527C64 1546 68 1555 76 1555C83 1555 88 1547 91 1532L91 1455C96 1416 121 1401 174 1401C250 1401 282 1435 282 1514L282 1564C281 1575 281 1600 281 1639L187 1639L187 1516C187 1498 183 1489 175 1489C167 1489 163 1495 160 1511L160 1589C155 1628 132 1643 77 1643C1 1643-31 1609-31 1528Z"  horiz-adv-x="251" vert-adv-y="2048"  />

      
      <glyph glyph-name="uni0134" unicode="&#x0134;" d="M13 0L127 0C233 0 286 55 286 165L286 1360L88 1360L88 176C88 152 77 140 55 140L13 140ZM157 1403L193 1608L230 1403L345 1404L293 1698L94 1698L42 1404Z"  horiz-adv-x="357" vert-adv-y="2048"  />

      
      <glyph glyph-name="uni0136" unicode="&#x0136;" d="M26 0L225 0L222 607L246 607L285 0L495 0L426 680L491 1360L283 1360L246 747L222 747L225 1360L26 1360ZM136-381L281-381L342-47L163-47Z"  horiz-adv-x="509" vert-adv-y="2048"  />

      
      <glyph glyph-name="uni0139" unicode="&#x0139;" d="M26 0L336 0L336 147L225 147L225 1360L26 1360ZM55 1403L195 1403L271 1699L103 1701Z"  horiz-adv-x="350" vert-adv-y="2048"  />

      
      <glyph glyph-name="uni013D" unicode="&#x013D;" d="M26 0L336 0L336 147L225 147L225 1360L26 1360ZM288 1128C288 1079 275 1023 250 960L392 960C415 1008 434 1077 434 1154L434 1359L263 1359L264 1128Z"  horiz-adv-x="452" vert-adv-y="2048"  />

      
      <glyph glyph-name="uni013B" unicode="&#x013B;" d="M26 0L336 0L336 147L225 147L225 1360L26 1360ZM72-381L217-381L278-47L99-47Z"  horiz-adv-x="350" vert-adv-y="2048"  />

      
      <glyph glyph-name="uni013F" unicode="&#x013F;" d="M27 0L336 0L336 147L226 147L226 570C212 570 190 618 190 709C190 798 212 848 226 848L226 1360L27 1360ZM223 708C223 622 241 607 295 607C349 607 367 620 367 708C367 795 348 812 295 812C241 812 223 795 223 708Z"  horiz-adv-x="378" vert-adv-y="2048"  />

      
      <glyph glyph-name="uni1E36" unicode="&#x1E36;" d="M26 0L336 0L336 147L225 147L225 1360L26 1360ZM109-174C112-277 121-283 188-286C254-286 267-274 267-174C267-61 254-51 188-51C122-51 109-61 109-174Z"  horiz-adv-x="350" vert-adv-y="2048"  />

      
      <glyph glyph-name="uni0141" unicode="&#x0141;" d="M225 147L225 696L267 710L267 802L225 788L225 1360L26 1360L26 719L-1 710L-1 618L26 627L26 0L336 0L336 147Z"  horiz-adv-x="340" vert-adv-y="2048"  />

      
      <glyph glyph-name="uni1E3E" unicode="&#x1E3E;" d="M26 0L199 0L165 952L177 952L258 0L401 0L479 951L490 951L460 0L633 0L633 1360L383 1360L334 387L325 387L276 1360L26 1360ZM252 1403L392 1403L468 1655L300 1658Z"  horiz-adv-x="659" vert-adv-y="2048"  />

      
      <glyph glyph-name="uni0143" unicode="&#x0143;" d="M26 0L199 0L162 948L174 948L238 198L260 0L468 0L468 1360L292 1360L325 442L315 442L255 1161L234 1360L26 1360ZM175 1403L315 1403L391 1699L223 1701Z"  horiz-adv-x="494" vert-adv-y="2048"  />

      
      <glyph glyph-name="uni0147" unicode="&#x0147;" d="M26 0L199 0L162 948L174 948L238 198L260 0L468 0L468 1360L292 1360L325 442L315 442L255 1161L234 1360L26 1360ZM159 1403L342 1403L410 1697L287 1698L250 1494L213 1698L91 1697Z"  horiz-adv-x="494" vert-adv-y="2048"  />

      
      <glyph glyph-name="uni0145" unicode="&#x0145;" d="M26 0L199 0L162 948L174 948L238 198L260 0L468 0L468 1360L292 1360L325 442L315 442L255 1161L234 1360L26 1360ZM129-381L274-381L335-47L156-47Z"  horiz-adv-x="494" vert-adv-y="2048"  />

      
      <glyph glyph-name="uni1E44" unicode="&#x1E44;" d="M26 0L199 0L162 948L174 948L238 198L260 0L468 0L468 1360L292 1360L325 442L315 442L255 1161L234 1360L26 1360ZM172 1511C172 1410 185 1400 251 1400C317 1400 330 1410 330 1511C330 1626 317 1635 251 1635C185 1635 172 1625 172 1511Z"  horiz-adv-x="494" vert-adv-y="2048"  />

      
      <glyph glyph-name="uni1E46" unicode="&#x1E46;" d="M26 0L199 0L162 948L174 948L238 198L260 0L468 0L468 1360L292 1360L325 442L315 442L255 1161L234 1360L26 1360ZM166-174C169-277 178-283 245-286C311-286 324-274 324-174C324-61 311-51 245-51C179-51 166-61 166-174Z"  horiz-adv-x="494" vert-adv-y="2048"  />

      
      <glyph glyph-name="uni014A" unicode="&#x014A;" d="M193-264L306-264C407-264 466-207 466-99L468 1360L286 1360L340 430L334 431L247 1173L225 1360L26 1360L26 0L208 0L153 930L159 929L267 20L267-89C268-112 257-124 234-124L193-124Z"  horiz-adv-x="494" vert-adv-y="2048"  />

      
      <glyph glyph-name="unid1" unicode="&#xd1;" d="M26 0L199 0L162 948L174 948L238 198L260 0L468 0L468 1360L292 1360L325 442L315 442L255 1161L234 1360L26 1360ZM94 1481C95 1470 95 1444 95 1405L189 1405L189 1527C189 1546 193 1555 201 1555C208 1555 213 1547 216 1532L216 1455C221 1416 246 1401 299 1401C375 1401 407 1435 407 1514L407 1564C406 1575 406 1600 406 1639L312 1639L312 1516C312 1498 308 1489 300 1489C292 1489 288 1495 285 1511L285 1589C280 1628 257 1643 202 1643C126 1643 94 1609 94 1528Z"  horiz-adv-x="494" vert-adv-y="2048"  />

      
      <glyph glyph-name="unid3" unicode="&#xd3;" d="M22 202C33 55 103-16 255-16C408-16 488 58 488 202L488 1159C488 1302 408 1376 255 1376C102 1376 22 1303 22 1166ZM255 150C236 150 227 160 227 179L227 1181C227 1200 236 1210 255 1210C274 1210 283 1200 283 1181L283 179C283 160 274 150 255 150ZM179 1419L319 1419L395 1715L227 1717Z"  horiz-adv-x="510" vert-adv-y="2048"  />

      
      <glyph glyph-name="uni014E" unicode="&#x014E;" d="M22 202C33 55 103-16 255-16C408-16 488 58 488 202L488 1159C488 1302 408 1376 255 1376C102 1376 22 1303 22 1166ZM255 150C236 150 227 160 227 179L227 1181C227 1200 236 1210 255 1210C274 1210 283 1200 283 1181L283 179C283 160 274 150 255 150ZM110 1576C110 1484 152 1447 259 1447C364 1447 407 1484 407 1576L407 1730L283 1730L283 1576C283 1544 275 1528 259 1528C243 1528 235 1544 235 1576L235 1730L110 1730Z"  horiz-adv-x="510" vert-adv-y="2048"  />

      
      <glyph glyph-name="uni01D1" unicode="&#x01D1;" d="M22 202C33 55 103-16 255-16C408-16 488 58 488 202L488 1159C488 1302 408 1376 255 1376C102 1376 22 1303 22 1166ZM255 150C236 150 227 160 227 179L227 1181C227 1200 236 1210 255 1210C274 1210 283 1200 283 1181L283 179C283 160 274 150 255 150ZM164 1419L347 1419L415 1713L292 1714L255 1510L218 1714L96 1713Z"  horiz-adv-x="510" vert-adv-y="2048"  />

      
      <glyph glyph-name="unid4" unicode="&#xd4;" d="M22 202C33 55 103-16 255-16C408-16 488 58 488 202L488 1159C488 1302 408 1376 255 1376C102 1376 22 1303 22 1166ZM255 150C236 150 227 160 227 179L227 1181C227 1200 236 1210 255 1210C274 1210 283 1200 283 1181L283 179C283 160 274 150 255 150ZM219 1419L255 1624L292 1419L407 1420L355 1674L156 1674L104 1420Z"  horiz-adv-x="510" vert-adv-y="2048"  />

      
      <glyph glyph-name="uni1ED0" unicode="&#x1ED0;" d="M22 202C33 55 103-16 255-16C408-16 488 58 488 202L488 1159C488 1302 408 1376 255 1376C102 1376 22 1303 22 1166ZM255 150C236 150 227 160 227 179L227 1181C227 1200 236 1210 255 1210C274 1210 283 1200 283 1181L283 179C283 160 274 150 255 150ZM218 1419L254 1624L291 1419L406 1420L354 1674L155 1674L103 1420ZM178 1717L318 1717L394 1969L226 1972Z"  horiz-adv-x="510" vert-adv-y="2048"  />

      
      <glyph glyph-name="uni1ED8" unicode="&#x1ED8;" d="M22 202C33 55 103-16 255-16C408-16 488 58 488 202L488 1159C488 1302 408 1376 255 1376C102 1376 22 1303 22 1166ZM255 150C236 150 227 160 227 179L227 1181C227 1200 236 1210 255 1210C274 1210 283 1200 283 1181L283 179C283 160 274 150 255 150ZM176-191C179-294 188-300 255-303C321-303 334-291 334-191C334-78 321-68 255-68C189-68 176-78 176-191ZM219 1419L255 1624L292 1419L407 1420L355 1674L156 1674L104 1420Z"  horiz-adv-x="510" vert-adv-y="2048"  />

      
      <glyph glyph-name="uni1ED2" unicode="&#x1ED2;" d="M22 202C33 55 103-16 255-16C408-16 488 58 488 202L488 1159C488 1302 408 1376 255 1376C102 1376 22 1303 22 1166ZM255 150C236 150 227 160 227 179L227 1181C227 1200 236 1210 255 1210C274 1210 283 1200 283 1181L283 179C283 160 274 150 255 150ZM219 1419L255 1624L292 1419L407 1420L355 1674L156 1674L104 1420ZM189 1717L329 1717L281 1971L113 1969Z"  horiz-adv-x="510" vert-adv-y="2048"  />

      
      <glyph glyph-name="uni1ED4" unicode="&#x1ED4;" d="M22 202C33 55 103-16 255-16C408-16 488 58 488 202L488 1159C488 1302 408 1376 255 1376C102 1376 22 1303 22 1166ZM255 150C236 150 227 160 227 179L227 1181C227 1200 236 1210 255 1210C274 1210 283 1200 283 1181L283 179C283 160 274 150 255 150ZM219 1419L255 1624L292 1419L407 1420L355 1674L156 1674L104 1420ZM194 1717C239 1717 272 1720 292 1725C343 1738 369 1768 369 1814L369 1940C369 2008 326 2042 239 2042C210 2042 178 2037 145 2028L159 1953C166 1955 181 1957 202 1958C231 1958 245 1950 245 1934L244 1808C244 1793 230 1787 193 1786Z"  horiz-adv-x="510" vert-adv-y="2048"  />

      
      <glyph glyph-name="uni1ED6" unicode="&#x1ED6;" d="M22 202C33 55 103-16 255-16C408-16 488 58 488 202L488 1159C488 1302 408 1376 255 1376C102 1376 22 1303 22 1166ZM255 150C236 150 227 160 227 179L227 1181C227 1200 236 1210 255 1210C274 1210 283 1200 283 1181L283 179C283 160 274 150 255 150ZM219 1419L255 1624L292 1419L407 1420L355 1674L156 1674L104 1420ZM98 1795C99 1784 99 1758 99 1719L193 1719L193 1841C193 1860 197 1869 205 1869C212 1869 217 1861 220 1846L220 1769C225 1730 250 1715 303 1715C379 1715 411 1749 411 1828L411 1878C410 1889 410 1914 410 1953L316 1953L316 1830C316 1812 312 1803 304 1803C296 1803 292 1809 289 1825L289 1903C284 1942 261 1957 206 1957C130 1957 98 1923 98 1842Z"  horiz-adv-x="510" vert-adv-y="2048"  />

      
      <glyph glyph-name="unid6" unicode="&#xd6;" d="M22 202C33 55 103-16 255-16C408-16 488 58 488 202L488 1159C488 1302 408 1376 255 1376C102 1376 22 1303 22 1166ZM255 150C236 150 227 160 227 179L227 1181C227 1200 236 1210 255 1210C274 1210 283 1200 283 1181L283 179C283 160 274 150 255 150ZM105 1538C105 1429 114 1419 168 1419C219 1419 231 1430 231 1538C228 1661 222 1666 167 1669C115 1669 105 1659 105 1538ZM276 1538C276 1430 288 1419 339 1419C390 1419 402 1430 402 1538C399 1661 393 1666 338 1669C286 1669 276 1658 276 1538Z"  horiz-adv-x="510" vert-adv-y="2048"  />

      
      <glyph glyph-name="uni022A" unicode="&#x022A;" d="M22 202C33 55 103-16 255-16C408-16 488 58 488 202L488 1159C488 1302 408 1376 255 1376C102 1376 22 1303 22 1166ZM255 150C236 150 227 160 227 179L227 1181C227 1200 236 1210 255 1210C274 1210 283 1200 283 1181L283 179C283 160 274 150 255 150ZM105 1538C105 1429 114 1419 168 1419C219 1419 231 1430 231 1538C228 1661 222 1666 167 1669C115 1669 105 1659 105 1538ZM276 1538C276 1430 288 1419 339 1419C390 1419 402 1430 402 1538C399 1661 393 1666 338 1669C286 1669 276 1658 276 1538ZM115 1713L394 1713L394 1815L115 1815Z"  horiz-adv-x="510" vert-adv-y="2048"  />

      
      <glyph glyph-name="uni1ECC" unicode="&#x1ECC;" d="M22 202C33 55 103-16 255-16C408-16 488 58 488 202L488 1159C488 1302 408 1376 255 1376C102 1376 22 1303 22 1166ZM255 150C236 150 227 160 227 179L227 1181C227 1200 236 1210 255 1210C274 1210 283 1200 283 1181L283 179C283 160 274 150 255 150ZM176-191C179-294 188-300 255-303C321-303 334-291 334-191C334-78 321-68 255-68C189-68 176-78 176-191Z"  horiz-adv-x="510" vert-adv-y="2048"  />

      
      <glyph glyph-name="unid2" unicode="&#xd2;" d="M22 202C33 55 103-16 255-16C408-16 488 58 488 202L488 1159C488 1302 408 1376 255 1376C102 1376 22 1303 22 1166ZM255 150C236 150 227 160 227 179L227 1181C227 1200 236 1210 255 1210C274 1210 283 1200 283 1181L283 179C283 160 274 150 255 150ZM187 1419L327 1419L279 1717L111 1715Z"  horiz-adv-x="510" vert-adv-y="2048"  />

      
      <glyph glyph-name="uni1ECE" unicode="&#x1ECE;" d="M22 202C33 55 103-16 255-16C408-16 488 58 488 202L488 1159C488 1302 408 1376 255 1376C102 1376 22 1303 22 1166ZM255 150C236 150 227 160 227 179L227 1181C227 1200 236 1210 255 1210C274 1210 283 1200 283 1181L283 179C283 160 274 150 255 150ZM194 1419C239 1419 272 1422 292 1427C343 1440 369 1470 369 1516L369 1642C369 1710 326 1744 239 1744C210 1744 178 1739 145 1730L159 1655C166 1657 181 1659 202 1660C231 1660 245 1652 245 1636L244 1510C244 1495 230 1489 193 1488Z"  horiz-adv-x="510" vert-adv-y="2048"  />

      
      <glyph glyph-name="uni01A0" unicode="&#x01A0;" d="M438 1418L437 1332C437 1327 435 1323 431 1319C392 1357 334 1376 255 1376C102 1376 22 1303 22 1166L22 202C33 55 103-16 255-16C408-16 488 58 488 202L488 1159C488 1189 484 1217 477 1243L486 1245C537 1258 562 1286 562 1331L562 1418ZM283 179C283 160 274 150 255 150C236 150 227 160 227 179L227 1181C227 1200 236 1210 255 1210C274 1210 283 1200 283 1181Z"  horiz-adv-x="566" vert-adv-y="2048"  />

      
      <glyph glyph-name="uni1EDA" unicode="&#x1EDA;" d="M438 1418L437 1332C437 1327 435 1323 431 1319C392 1357 334 1376 255 1376C102 1376 22 1303 22 1166L22 202C33 55 103-16 255-16C408-16 488 58 488 202L488 1159C488 1189 484 1217 477 1243L486 1245C537 1258 562 1286 562 1331L562 1418ZM283 179C283 160 274 150 255 150C236 150 227 160 227 179L227 1181C227 1200 236 1210 255 1210C274 1210 283 1200 283 1181ZM178 1419L318 1419L394 1671L226 1674Z"  horiz-adv-x="566" vert-adv-y="2048"  />

      
      <glyph glyph-name="uni1EE2" unicode="&#x1EE2;" d="M438 1418L437 1332C437 1327 435 1323 431 1319C392 1357 334 1376 255 1376C102 1376 22 1303 22 1166L22 202C33 55 103-16 255-16C408-16 488 58 488 202L488 1159C488 1189 484 1217 477 1243L486 1245C537 1258 562 1286 562 1331L562 1418ZM283 179C283 160 274 150 255 150C236 150 227 160 227 179L227 1181C227 1200 236 1210 255 1210C274 1210 283 1200 283 1181ZM176-191C179-294 188-300 255-303C321-303 334-291 334-191C334-78 321-68 255-68C189-68 176-78 176-191Z"  horiz-adv-x="566" vert-adv-y="2048"  />

      
      <glyph glyph-name="uni1EDC" unicode="&#x1EDC;" d="M438 1418L437 1332C437 1327 435 1323 431 1319C392 1357 334 1376 255 1376C102 1376 22 1303 22 1166L22 202C33 55 103-16 255-16C408-16 488 58 488 202L488 1159C488 1189 484 1217 477 1243L486 1245C537 1258 562 1286 562 1331L562 1418ZM283 179C283 160 274 150 255 150C236 150 227 160 227 179L227 1181C227 1200 236 1210 255 1210C274 1210 283 1200 283 1181ZM190 1419L330 1419L282 1673L114 1671Z"  horiz-adv-x="566" vert-adv-y="2048"  />

      
      <glyph glyph-name="uni1EDE" unicode="&#x1EDE;" d="M438 1418L437 1332C437 1327 435 1323 431 1319C392 1357 334 1376 255 1376C102 1376 22 1303 22 1166L22 202C33 55 103-16 255-16C408-16 488 58 488 202L488 1159C488 1189 484 1217 477 1243L486 1245C537 1258 562 1286 562 1331L562 1418ZM283 179C283 160 274 150 255 150C236 150 227 160 227 179L227 1181C227 1200 236 1210 255 1210C274 1210 283 1200 283 1181ZM194 1419C239 1419 272 1422 292 1427C343 1440 369 1470 369 1516L369 1642C369 1710 326 1744 239 1744C210 1744 178 1739 145 1730L159 1655C166 1657 181 1659 202 1660C231 1660 245 1652 245 1636L244 1510C244 1495 230 1489 193 1488Z"  horiz-adv-x="566" vert-adv-y="2048"  />

      
      <glyph glyph-name="uni1EE0" unicode="&#x1EE0;" d="M438 1418L437 1332C437 1327 435 1323 431 1319C392 1357 334 1376 255 1376C102 1376 22 1303 22 1166L22 202C33 55 103-16 255-16C408-16 488 58 488 202L488 1159C488 1189 484 1217 477 1243L486 1245C537 1258 562 1286 562 1331L562 1418ZM283 179C283 160 274 150 255 150C236 150 227 160 227 179L227 1181C227 1200 236 1210 255 1210C274 1210 283 1200 283 1181ZM100 1425L194 1423L194 1545C194 1564 198 1573 206 1573C213 1573 218 1565 221 1550L221 1473C226 1434 249 1421 304 1421C383 1421 412 1444 412 1521L411 1643L317 1643L317 1520C317 1502 313 1493 305 1493C297 1493 293 1500 290 1516L290 1593C285 1633 262 1648 207 1648C128 1648 99 1627 99 1548Z"  horiz-adv-x="566" vert-adv-y="2048"  />

      
      <glyph glyph-name="uni0150" unicode="&#x0150;" d="M22 202C33 55 103-16 255-16C408-16 488 58 488 202L488 1159C488 1302 408 1376 255 1376C102 1376 22 1303 22 1166ZM255 150C236 150 227 160 227 179L227 1181C227 1200 236 1210 255 1210C274 1210 283 1200 283 1181L283 179C283 160 274 150 255 150ZM137 1419L231 1419L307 1715L185 1717ZM282 1419L375 1419L451 1715L330 1717Z"  horiz-adv-x="510" vert-adv-y="2048"  />

      
      <glyph glyph-name="uni014C" unicode="&#x014C;" d="M22 202C33 55 103-16 255-16C408-16 488 58 488 202L488 1159C488 1302 408 1376 255 1376C102 1376 22 1303 22 1166ZM255 150C236 150 227 160 227 179L227 1181C227 1200 236 1210 255 1210C274 1210 283 1200 283 1181L283 179C283 160 274 150 255 150ZM115 1419L394 1419L394 1521L115 1521Z"  horiz-adv-x="510" vert-adv-y="2048"  />

      
      <glyph glyph-name="uni1E52" unicode="&#x1E52;" d="M22 202C33 55 103-16 255-16C408-16 488 58 488 202L488 1159C488 1302 408 1376 255 1376C102 1376 22 1303 22 1166ZM255 150C236 150 227 160 227 179L227 1181C227 1200 236 1210 255 1210C274 1210 283 1200 283 1181L283 179C283 160 274 150 255 150ZM116 1419L395 1419L395 1521L116 1521ZM178 1564L318 1564L394 1816L226 1819Z"  horiz-adv-x="510" vert-adv-y="2048"  />

      
      <glyph glyph-name="uni1E50" unicode="&#x1E50;" d="M22 202C33 55 103-16 255-16C408-16 488 58 488 202L488 1159C488 1302 408 1376 255 1376C102 1376 22 1303 22 1166ZM255 150C236 150 227 160 227 179L227 1181C227 1200 236 1210 255 1210C274 1210 283 1200 283 1181L283 179C283 160 274 150 255 150ZM116 1419L395 1419L395 1521L116 1521ZM189 1564L329 1564L281 1818L113 1816Z"  horiz-adv-x="510" vert-adv-y="2048"  />

      
      <glyph glyph-name="unid8" unicode="&#xd8;" d="M488 1159C488 1218 475 1265 448 1300L467 1385L374 1424L360 1361C330 1371 295 1376 255 1376C102 1376 22 1303 22 1166L22 202C26 138 42 88 71 53L52-34L144-68L158-3C185-12 217-16 255-16C408-16 488 58 488 202ZM227 1181C227 1200 236 1210 255 1210C274 1210 283 1200 283 1181L283 1012L227 758ZM283 179C283 160 274 150 255 150C236 150 227 160 227 179L227 305L283 557Z"  horiz-adv-x="514" vert-adv-y="2048"  />

      
      <glyph glyph-name="uni01FE" unicode="&#x01FE;" d="M488 1159C488 1218 475 1265 448 1300L467 1385L374 1424L360 1361C330 1371 295 1376 255 1376C102 1376 22 1303 22 1166L22 202C26 138 42 88 71 53L52-34L144-68L158-3C185-12 217-16 255-16C408-16 488 58 488 202ZM227 1181C227 1200 236 1210 255 1210C274 1210 283 1200 283 1181L283 1012L227 758ZM283 179C283 160 274 150 255 150C236 150 227 160 227 179L227 305L283 557ZM179 1419L319 1419L395 1715L227 1717Z"  horiz-adv-x="514" vert-adv-y="2048"  />

      
      <glyph glyph-name="unid5" unicode="&#xd5;" d="M22 202C33 55 103-16 255-16C408-16 488 58 488 202L488 1159C488 1302 408 1376 255 1376C102 1376 22 1303 22 1166ZM255 150C236 150 227 160 227 179L227 1181C227 1200 236 1210 255 1210C274 1210 283 1200 283 1181L283 179C283 160 274 150 255 150ZM98 1497C99 1486 99 1460 99 1421L193 1421L193 1543C193 1562 197 1571 205 1571C212 1571 217 1563 220 1548L220 1471C225 1432 250 1417 303 1417C379 1417 411 1451 411 1530L411 1580C410 1591 410 1616 410 1655L316 1655L316 1532C316 1514 312 1505 304 1505C296 1505 292 1511 289 1527L289 1605C284 1644 261 1659 206 1659C130 1659 98 1625 98 1544Z"  horiz-adv-x="510" vert-adv-y="2048"  />

      
      <glyph glyph-name="uni1E4C" unicode="&#x1E4C;" d="M22 202C33 55 103-16 255-16C408-16 488 58 488 202L488 1159C488 1302 408 1376 255 1376C102 1376 22 1303 22 1166ZM255 150C236 150 227 160 227 179L227 1181C227 1200 236 1210 255 1210C274 1210 283 1200 283 1181L283 179C283 160 274 150 255 150ZM100 1425L194 1423L194 1545C194 1564 198 1573 206 1573C213 1573 218 1565 221 1550L221 1473C226 1434 249 1421 304 1421C383 1421 412 1444 412 1521L411 1643L317 1643L317 1520C317 1502 313 1493 305 1493C297 1493 293 1500 290 1516L290 1593C285 1633 262 1648 207 1648C128 1648 99 1627 99 1548ZM178 1690L318 1690L394 1942L226 1945Z"  horiz-adv-x="510" vert-adv-y="2048"  />

      
      <glyph glyph-name="uni0152" unicode="&#x0152;" d="M22 202C22 58 102-16 255-16C269-16 292-13 324-8C356-3 379 0 394 0L630 0L630 137L489 137L489 620L599 620L599 730L489 730L489 1219L628 1219L628 1360L393 1360C379 1360 356 1363 324 1368C292 1373 269 1376 255 1376C103 1376 23 1304 22 1163ZM283 179C283 160 274 150 255 150C236 150 226 160 226 179L226 1181C226 1200 236 1210 255 1210C274 1210 283 1200 283 1181Z"  horiz-adv-x="637" vert-adv-y="2048"  />

      
      <glyph glyph-name="unide" unicode="&#xde;" d="M26-5L225-5L225 203L239 203C376 203 461 249 462 382L462 974C462 1043 442 1091 403 1118C364 1145 309 1158 239 1158L225 1158L225 1360L26 1360ZM217 339L217 1021L231 1021C259 1021 273 1010 273 975L273 383C273 351 259 339 232 339Z"  horiz-adv-x="483" vert-adv-y="2048"  />

      
      <glyph glyph-name="uni0154" unicode="&#x0154;" d="M463 0L416 553C447 580 462 619 462 672L462 1187C462 1318 387 1360 238 1360L26 1360L26 0L217 0L217 509L250 509L253 509L273 0ZM273 667C273 639 264 627 243 627L217 627L217 1218L242 1218C263 1218 273 1207 273 1182ZM167 1443L307 1443L383 1739L215 1741Z"  horiz-adv-x="485" vert-adv-y="2048"  />

      
      <glyph glyph-name="uni0158" unicode="&#x0158;" d="M463 0L416 553C447 580 462 619 462 672L462 1187C462 1318 387 1360 238 1360L26 1360L26 0L217 0L217 509L250 509L253 509L273 0ZM273 667C273 639 264 627 243 627L217 627L217 1218L242 1218C263 1218 273 1207 273 1182ZM152 1443L335 1443L403 1737L280 1738L243 1534L206 1738L84 1737Z"  horiz-adv-x="485" vert-adv-y="2048"  />

      
      <glyph glyph-name="uni0156" unicode="&#x0156;" d="M463 0L416 553C447 580 462 619 462 672L462 1187C462 1318 387 1360 238 1360L26 1360L26 0L217 0L217 509L250 509L253 509L273 0ZM273 667C273 639 264 627 243 627L217 627L217 1218L242 1218C263 1218 273 1207 273 1182ZM128-426L273-426L334-92L155-92Z"  horiz-adv-x="485" vert-adv-y="2048"  />

      
      <glyph glyph-name="uni015A" unicode="&#x015A;" d="M25 148C25 38 98-17 244-17C369-17 447 37 448 140L448 212C448 415 419 560 383 655C365 703 341 757 312 816C287 869 267 914 252 951C237 989 226 1032 219 1080C212 1123 209 1167 209 1212C209 1231 221 1241 238 1241C255 1241 266 1231 266 1212L266 982L441 982L441 1211C441 1315 371 1376 230 1376C97 1376 27 1325 26 1209L26 1155C26 1024 47 927 75 858C89 823 108 781 133 732C155 687 173 648 187 615C201 582 214 543 226 496C239 450 248 398 254 339C260 292 263 228 263 147C263 128 252 118 235 118C217 118 207 128 206 147L206 454L25 454ZM161 1420L301 1420L377 1716L209 1718Z"  horiz-adv-x="473" vert-adv-y="2048"  />

      
      <glyph glyph-name="uni0160" unicode="&#x0160;" d="M25 148C25 38 98-17 244-17C369-17 447 37 448 140L448 212C448 415 419 560 383 655C365 703 341 757 312 816C287 869 267 914 252 951C237 989 226 1032 219 1080C212 1123 209 1167 209 1212C209 1231 221 1241 238 1241C255 1241 266 1231 266 1212L266 982L441 982L441 1211C441 1315 371 1376 230 1376C97 1376 27 1325 26 1209L26 1155C26 1024 47 927 75 858C89 823 108 781 133 732C155 687 173 648 187 615C201 582 214 543 226 496C239 450 248 398 254 339C260 292 263 228 263 147C263 128 252 118 235 118C217 118 207 128 206 147L206 454L25 454ZM145 1420L328 1420L396 1714L273 1715L236 1511L199 1715L77 1714Z"  horiz-adv-x="473" vert-adv-y="2048"  />

      
      <glyph glyph-name="uni015E" unicode="&#x015E;" d="M312 816C287 869 267 914 252 951C237 989 226 1032 219 1080C212 1123 209 1167 209 1212C209 1231 221 1241 238 1241C255 1241 266 1231 266 1212L266 982L441 982L441 1211C441 1315 371 1376 230 1376C97 1376 27 1325 26 1209L26 1155C26 1024 47 927 75 858C89 823 108 781 133 732C155 687 173 648 187 615C201 582 214 543 226 496C239 450 248 398 254 339C260 292 263 228 263 147C263 128 252 118 235 118C217 118 207 128 206 147L206 454L25 454L25 148C25 56 76 3 177-12L164-185C205-186 226-196 226-214L226-341C226-358 214-367 190-367C175-367 162-365 153-361L136-456C160-467 190-473 227-473C320-473 366-432 366-349L366-223C366-163 340-128 288-118L295-14C390-1 447 52 448 140L448 212C448 415 419 560 383 655C365 703 341 757 312 816Z"  horiz-adv-x="473" vert-adv-y="2048"  />

      
      <glyph glyph-name="uni015C" unicode="&#x015C;" d="M25 148C25 38 98-17 244-17C369-17 447 37 448 140L448 212C448 415 419 560 383 655C365 703 341 757 312 816C287 869 267 914 252 951C237 989 226 1032 219 1080C212 1123 209 1167 209 1212C209 1231 221 1241 238 1241C255 1241 266 1231 266 1212L266 982L441 982L441 1211C441 1315 371 1376 230 1376C97 1376 27 1325 26 1209L26 1155C26 1024 47 927 75 858C89 823 108 781 133 732C155 687 173 648 187 615C201 582 214 543 226 496C239 450 248 398 254 339C260 292 263 228 263 147C263 128 252 118 235 118C217 118 207 128 206 147L206 454L25 454ZM207 1421L243 1626L280 1421L395 1422L343 1716L144 1716L92 1422Z"  horiz-adv-x="476" vert-adv-y="2048"  />

      
      <glyph glyph-name="uni0218" unicode="&#x0218;" d="M25 148C25 38 98-17 244-17C369-17 447 37 448 140L448 212C448 415 419 560 383 655C365 703 341 757 312 816C287 869 267 914 252 951C237 989 226 1032 219 1080C212 1123 209 1167 209 1212C209 1231 221 1241 238 1241C255 1241 266 1231 266 1212L266 982L441 982L441 1211C441 1315 371 1376 230 1376C97 1376 27 1325 26 1209L26 1155C26 1024 47 927 75 858C89 823 108 781 133 732C155 687 173 648 187 615C201 582 214 543 226 496C239 450 248 398 254 339C260 292 263 228 263 147C263 128 252 118 235 118C217 118 207 128 206 147L206 454L25 454ZM121-398L266-398L327-64L148-64Z"  horiz-adv-x="473" vert-adv-y="2048"  />

      
      <glyph glyph-name="uni1E62" unicode="&#x1E62;" d="M25 148C25 38 98-17 244-17C369-17 447 37 448 140L448 212C448 415 419 560 383 655C365 703 341 757 312 816C287 869 267 914 252 951C237 989 226 1032 219 1080C212 1123 209 1167 209 1212C209 1231 221 1241 238 1241C255 1241 266 1231 266 1212L266 982L441 982L441 1211C441 1315 371 1376 230 1376C97 1376 27 1325 26 1209L26 1155C26 1024 47 927 75 858C89 823 108 781 133 732C155 687 173 648 187 615C201 582 214 543 226 496C239 450 248 398 254 339C260 292 263 228 263 147C263 128 252 118 235 118C217 118 207 128 206 147L206 454L25 454ZM158-191C161-294 170-300 237-303C303-303 316-291 316-191C316-78 303-68 237-68C171-68 158-78 158-191Z"  horiz-adv-x="473" vert-adv-y="2048"  />

      
      <glyph glyph-name="uni1E9E" unicode="&#x1E9E;" d="M31 0L230 0L230 1191C230 1214 241 1226 264 1225L294 1224L264 764L264 658L278 658C297 658 306 649 306 631L306 163C306 146 296 135 277 135L259 135L259 0L299 0C349 0 392 11 428 34C464 57 482 98 482 156L482 624C481 671 465 704 432 725L476 1220L476 1360L221 1361C94 1361 31 1312 31 1214Z"  horiz-adv-x="507" vert-adv-y="2048"  />

      
      <glyph glyph-name="uni0166" unicode="&#x0166;" d="M362 1208L362 1360L6 1360L6 1208L85 1208L85 686L48 686L48 626L85 626L85 0L283 0L283 626L322 626L322 686L283 686L283 1208Z"  horiz-adv-x="369" vert-adv-y="2048"  />

      
      <glyph glyph-name="uni0164" unicode="&#x0164;" d="M85 0L283 0L283 1208L362 1208L362 1360L6 1360L6 1208L85 1208ZM94 1403L277 1403L345 1697L222 1698L185 1494L148 1698L26 1697Z"  horiz-adv-x="369" vert-adv-y="2048"  />

      
      <glyph glyph-name="uni0162" unicode="&#x0162;" d="M283 0L283 1208L362 1208L362 1360L6 1360L6 1208L85 1208L85 0L123 0L110-168C152-169 173-179 173-197L173-324C173-341 161-350 137-350C120-350 108-348 100-344L83-439C107-450 137-456 173-456C265-456 313-413 313-332L313-206C313-146 286-110 235-101L241 0Z"  horiz-adv-x="369" vert-adv-y="2048"  />

      
      <glyph glyph-name="uni021A" unicode="&#x021A;" d="M85 0L283 0L283 1208L362 1208L362 1360L6 1360L6 1208L85 1208ZM71-381L216-381L277-47L98-47Z"  horiz-adv-x="370" vert-adv-y="2048"  />

      
      <glyph glyph-name="uni1E6C" unicode="&#x1E6C;" d="M85 0L283 0L283 1208L362 1208L362 1360L6 1360L6 1208L85 1208ZM105-174C108-277 117-283 184-286C250-286 263-274 263-174C263-61 250-51 184-51C118-51 105-61 105-174Z"  horiz-adv-x="369" vert-adv-y="2048"  />

      
      <glyph glyph-name="unida" unicode="&#xda;" d="M25 151C25 38 99-18 248-18C396-18 472 39 472 151L472 1360L277 1360L277 172C277 147 266 133 249 133C232 133 221 147 221 172L221 1360L25 1360ZM173 1403L313 1403L389 1699L221 1701Z"  horiz-adv-x="497" vert-adv-y="2048"  />

      
      <glyph glyph-name="uni016C" unicode="&#x016C;" d="M25 151C25 38 99-18 248-18C396-18 472 39 472 151L472 1360L277 1360L277 172C277 147 266 133 249 133C232 133 221 147 221 172L221 1360L25 1360ZM101 1531C101 1439 143 1402 250 1402C355 1402 398 1439 398 1531L398 1685L274 1685L274 1531C274 1499 266 1483 250 1483C234 1483 226 1499 226 1531L226 1685L101 1685Z"  horiz-adv-x="497" vert-adv-y="2048"  />

      
      <glyph glyph-name="uni01D3" unicode="&#x01D3;" d="M25 151C25 38 99-18 248-18C396-18 472 39 472 151L472 1360L277 1360L277 172C277 147 266 133 249 133C232 133 221 147 221 172L221 1360L25 1360ZM158 1403L341 1403L409 1697L286 1698L249 1494L212 1698L90 1697Z"  horiz-adv-x="497" vert-adv-y="2048"  />

      
      <glyph glyph-name="unidb" unicode="&#xdb;" d="M25 151C25 38 99-18 248-18C396-18 472 39 472 151L472 1360L277 1360L277 172C277 147 266 133 249 133C232 133 221 147 221 172L221 1360L25 1360ZM213 1403L249 1608L286 1403L401 1404L349 1698L150 1698L98 1404Z"  horiz-adv-x="497" vert-adv-y="2048"  />

      
      <glyph glyph-name="unidc" unicode="&#xdc;" d="M25 151C25 38 99-18 248-18C396-18 472 39 472 151L472 1360L277 1360L277 172C277 147 266 133 249 133C232 133 221 147 221 172L221 1360L25 1360ZM100 1522C100 1413 109 1403 163 1403C214 1403 226 1414 226 1522C223 1645 217 1650 162 1653C110 1653 100 1643 100 1522ZM271 1522C271 1414 283 1403 334 1403C385 1403 397 1414 397 1522C394 1645 388 1650 333 1653C281 1653 271 1642 271 1522Z"  horiz-adv-x="497" vert-adv-y="2048"  />

      
      <glyph glyph-name="uni01D7" unicode="&#x01D7;" d="M25 151C25 38 99-18 248-18C396-18 472 39 472 151L472 1360L277 1360L277 172C277 147 266 133 249 133C232 133 221 147 221 172L221 1360L25 1360ZM100 1522C100 1413 109 1403 163 1403C214 1403 226 1414 226 1522C223 1645 217 1650 162 1653C110 1653 100 1643 100 1522ZM271 1522C271 1414 283 1403 334 1403C385 1403 397 1414 397 1522C394 1645 388 1650 333 1653C281 1653 271 1642 271 1522ZM172 1697L312 1697L388 1993L220 1995Z"  horiz-adv-x="497" vert-adv-y="2048"  />

      
      <glyph glyph-name="uni01D9" unicode="&#x01D9;" d="M25 151C25 38 99-18 248-18C396-18 472 39 472 151L472 1360L277 1360L277 172C277 147 266 133 249 133C232 133 221 147 221 172L221 1360L25 1360ZM100 1522C100 1413 109 1403 163 1403C214 1403 226 1414 226 1522C223 1645 217 1650 162 1653C110 1653 100 1643 100 1522ZM271 1522C271 1414 283 1403 334 1403C385 1403 397 1414 397 1522C394 1645 388 1650 333 1653C281 1653 271 1642 271 1522ZM157 1697L340 1697L408 1991L285 1992L248 1788L211 1992L89 1991Z"  horiz-adv-x="497" vert-adv-y="2048"  />

      
      <glyph glyph-name="uni01DB" unicode="&#x01DB;" d="M25 151C25 38 99-18 248-18C396-18 472 39 472 151L472 1360L277 1360L277 172C277 147 266 133 249 133C232 133 221 147 221 172L221 1360L25 1360ZM100 1522C100 1413 109 1403 163 1403C214 1403 226 1414 226 1522C223 1645 217 1650 162 1653C110 1653 100 1643 100 1522ZM271 1522C271 1414 283 1403 334 1403C385 1403 397 1414 397 1522C394 1645 388 1650 333 1653C281 1653 271 1642 271 1522ZM180 1697L320 1697L272 1995L104 1993Z"  horiz-adv-x="497" vert-adv-y="2048"  />

      
      <glyph glyph-name="uni01D5" unicode="&#x01D5;" d="M25 151C25 38 99-18 248-18C396-18 472 39 472 151L472 1360L277 1360L277 172C277 147 266 133 249 133C232 133 221 147 221 172L221 1360L25 1360ZM100 1522C100 1413 109 1403 163 1403C214 1403 226 1414 226 1522C223 1645 217 1650 162 1653C110 1653 100 1643 100 1522ZM271 1522C271 1414 283 1403 334 1403C385 1403 397 1414 397 1522C394 1645 388 1650 333 1653C281 1653 271 1642 271 1522ZM109 1697L388 1697L388 1799L109 1799Z"  horiz-adv-x="497" vert-adv-y="2048"  />

      
      <glyph glyph-name="uni1EE4" unicode="&#x1EE4;" d="M25 151C25 38 99-18 248-18C396-18 472 39 472 151L472 1360L277 1360L277 172C277 147 266 133 249 133C232 133 221 147 221 172L221 1360L25 1360ZM169-193C172-296 181-302 248-305C314-305 327-293 327-193C327-80 314-70 248-70C182-70 169-80 169-193Z"  horiz-adv-x="497" vert-adv-y="2048"  />

      
      <glyph glyph-name="unid9" unicode="&#xd9;" d="M25 151C25 38 99-18 248-18C396-18 472 39 472 151L472 1360L277 1360L277 172C277 147 266 133 249 133C232 133 221 147 221 172L221 1360L25 1360ZM181 1403L321 1403L273 1701L105 1699Z"  horiz-adv-x="497" vert-adv-y="2048"  />

      
      <glyph glyph-name="uni1EE6" unicode="&#x1EE6;" d="M25 151C25 38 99-18 248-18C396-18 472 39 472 151L472 1360L277 1360L277 172C277 147 266 133 249 133C232 133 221 147 221 172L221 1360L25 1360ZM188 1403C233 1403 266 1406 286 1411C337 1424 363 1454 363 1500L363 1626C363 1694 320 1728 233 1728C204 1728 172 1723 139 1714L153 1639C160 1641 175 1643 196 1644C225 1644 239 1636 239 1620L238 1494C238 1479 224 1473 187 1472Z"  horiz-adv-x="497" vert-adv-y="2048"  />

      
      <glyph glyph-name="uni01AF" unicode="&#x01AF;" d="M496 1398L495 1312C495 1301 487 1294 472 1291L472 1360L277 1360L277 172C277 147 266 133 249 133C232 133 221 147 221 172L221 1360L25 1360L25 151C25 38 99-18 248-18C396-18 472 39 472 151L472 1218C505 1219 529 1222 544 1225C596 1238 620 1266 620 1311L620 1398Z"  horiz-adv-x="597" vert-adv-y="2048"  />

      
      <glyph glyph-name="uni1EE8" unicode="&#x1EE8;" d="M496 1398L495 1312C495 1301 487 1294 472 1291L472 1360L277 1360L277 172C277 147 266 133 249 133C232 133 221 147 221 172L221 1360L25 1360L25 151C25 38 99-18 248-18C396-18 472 39 472 151L472 1218C505 1219 529 1222 544 1225C596 1238 620 1266 620 1311L620 1398ZM173 1403L313 1403L389 1655L221 1658Z"  horiz-adv-x="597" vert-adv-y="2048"  />

      
      <glyph glyph-name="uni1EF0" unicode="&#x1EF0;" d="M496 1398L495 1312C495 1301 487 1294 472 1291L472 1360L277 1360L277 172C277 147 266 133 249 133C232 133 221 147 221 172L221 1360L25 1360L25 151C25 38 99-18 248-18C396-18 472 39 472 151L472 1218C505 1219 529 1222 544 1225C596 1238 620 1266 620 1311L620 1398ZM169-193C172-296 181-302 248-305C314-305 327-293 327-193C327-80 314-70 248-70C182-70 169-80 169-193Z"  horiz-adv-x="597" vert-adv-y="2048"  />

      
      <glyph glyph-name="uni1EEA" unicode="&#x1EEA;" d="M496 1398L495 1312C495 1301 487 1294 472 1291L472 1360L277 1360L277 172C277 147 266 133 249 133C232 133 221 147 221 172L221 1360L25 1360L25 151C25 38 99-18 248-18C396-18 472 39 472 151L472 1218C505 1219 529 1222 544 1225C596 1238 620 1266 620 1311L620 1398ZM184 1403L324 1403L276 1657L108 1655Z"  horiz-adv-x="597" vert-adv-y="2048"  />

      
      <glyph glyph-name="uni1EEC" unicode="&#x1EEC;" d="M496 1398L495 1312C495 1301 487 1294 472 1291L472 1360L277 1360L277 172C277 147 266 133 249 133C232 133 221 147 221 172L221 1360L25 1360L25 151C25 38 99-18 248-18C396-18 472 39 472 151L472 1218C505 1219 529 1222 544 1225C596 1238 620 1266 620 1311L620 1398ZM188 1403C233 1403 266 1406 286 1411C337 1424 363 1454 363 1500L363 1626C363 1694 320 1728 233 1728C204 1728 172 1723 139 1714L153 1639C160 1641 175 1643 196 1644C225 1644 239 1636 239 1620L238 1494C238 1479 224 1473 187 1472Z"  horiz-adv-x="597" vert-adv-y="2048"  />

      
      <glyph glyph-name="uni1EEE" unicode="&#x1EEE;" d="M496 1398L495 1312C495 1301 487 1294 472 1291L472 1360L277 1360L277 172C277 147 266 133 249 133C232 133 221 147 221 172L221 1360L25 1360L25 151C25 38 99-18 248-18C396-18 472 39 472 151L472 1218C505 1219 529 1222 544 1225C596 1238 620 1266 620 1311L620 1398ZM94 1409L188 1407L188 1529C188 1548 192 1557 200 1557C207 1557 212 1549 215 1534L215 1457C220 1418 243 1405 298 1405C377 1405 406 1428 406 1505L405 1627L311 1627L311 1504C311 1486 307 1477 299 1477C291 1477 287 1484 284 1500L284 1577C279 1617 256 1632 201 1632C122 1632 93 1611 93 1532Z"  horiz-adv-x="597" vert-adv-y="2048"  />

      
      <glyph glyph-name="uni0170" unicode="&#x0170;" d="M25 151C25 38 99-18 248-18C396-18 472 39 472 151L472 1360L277 1360L277 172C277 147 266 133 249 133C232 133 221 147 221 172L221 1360L25 1360ZM131 1403L225 1403L301 1699L179 1701ZM276 1403L369 1403L445 1699L324 1701Z"  horiz-adv-x="497" vert-adv-y="2048"  />

      
      <glyph glyph-name="uni016A" unicode="&#x016A;" d="M25 151C25 38 99-18 248-18C396-18 472 39 472 151L472 1360L277 1360L277 172C277 147 266 133 249 133C232 133 221 147 221 172L221 1360L25 1360ZM110 1403L389 1403L389 1505L110 1505Z"  horiz-adv-x="497" vert-adv-y="2048"  />

      
      <glyph glyph-name="uni0172" unicode="&#x0172;" d="M277 1360L277 172C277 147 266 133 249 133C232 133 221 147 221 172L221 1360L25 1360L25 151C25 51 85-7 204-16C145-83 115-156 115-235C115-306 162-342 251-342C320-342 371-319 402-272L351-204C336-223 324-232 313-232C299-232 292-223 292-206C292-131 322-61 383 6C442 32 472 80 472 151L472 1360Z"  horiz-adv-x="497" vert-adv-y="2048"  />

      
      <glyph glyph-name="uni016E" unicode="&#x016E;" d="M25 151C25 38 99-18 248-18C396-18 472 39 472 151L472 1360L277 1360L277 172C277 147 266 133 249 133C232 133 221 147 221 172L221 1360L25 1360ZM123 1505C123 1438 166 1403 249 1403C332 1403 375 1438 375 1505L375 1583C375 1650 333 1684 249 1684C166 1684 123 1650 123 1583ZM281 1505C281 1486 269 1476 249 1476C227 1476 216 1486 216 1505L216 1583C216 1601 227 1610 249 1610C270 1610 281 1601 281 1583Z"  horiz-adv-x="497" vert-adv-y="2048"  />

      
      <glyph glyph-name="uni0168" unicode="&#x0168;" d="M25 151C25 38 99-18 248-18C396-18 472 39 472 151L472 1360L277 1360L277 172C277 147 266 133 249 133C232 133 221 147 221 172L221 1360L25 1360ZM92 1481C93 1470 93 1444 93 1405L187 1405L187 1527C187 1546 191 1555 199 1555C206 1555 211 1547 214 1532L214 1455C219 1416 244 1401 297 1401C373 1401 405 1435 405 1514L405 1564C404 1575 404 1600 404 1639L310 1639L310 1516C310 1498 306 1489 298 1489C290 1489 286 1495 283 1511L283 1589C278 1628 255 1643 200 1643C124 1643 92 1609 92 1528Z"  horiz-adv-x="497" vert-adv-y="2048"  />

      
      <glyph glyph-name="uni1E82" unicode="&#x1E82;" d="M7 1360L118 0L343 0L372 938L379 938L408 0L633 0L744 1360L545 1360L515 338L507 338L476 1360L275 1360L245 338L236 338L207 1360ZM299 1403L439 1403L515 1699L347 1701Z"  horiz-adv-x="751" vert-adv-y="2048"  />

      
      <glyph glyph-name="uni0174" unicode="&#x0174;" d="M7 1360L118 0L343 0L372 938L379 938L408 0L633 0L744 1360L545 1360L515 338L507 338L476 1360L275 1360L245 338L236 338L207 1360ZM339 1403L375 1608L412 1403L527 1404L475 1698L276 1698L224 1404Z"  horiz-adv-x="751" vert-adv-y="2048"  />

      
      <glyph glyph-name="uni1E84" unicode="&#x1E84;" d="M7 1360L118 0L343 0L372 938L379 938L408 0L633 0L744 1360L545 1360L515 338L507 338L476 1360L275 1360L245 338L236 338L207 1360ZM226 1522C226 1413 235 1403 289 1403C340 1403 352 1414 352 1522C349 1645 343 1650 288 1653C236 1653 226 1643 226 1522ZM397 1522C397 1414 409 1403 460 1403C511 1403 523 1414 523 1522C520 1645 514 1650 459 1653C407 1653 397 1642 397 1522Z"  horiz-adv-x="751" vert-adv-y="2048"  />

      
      <glyph glyph-name="uni1E80" unicode="&#x1E80;" d="M7 1360L118 0L343 0L372 938L379 938L408 0L633 0L744 1360L545 1360L515 338L507 338L476 1360L275 1360L245 338L236 338L207 1360ZM307 1403L447 1403L399 1701L231 1699Z"  horiz-adv-x="751" vert-adv-y="2048"  />

      
      <glyph glyph-name="unidd" unicode="&#xdd;" d="M144 0L343 0L343 426L477 1360L273 1360L247 667L238 667L209 1360L8 1360L144 425ZM165 1403L305 1403L381 1655L213 1658Z"  horiz-adv-x="485" vert-adv-y="2048"  />

      
      <glyph glyph-name="uni0176" unicode="&#x0176;" d="M144 0L343 0L343 426L477 1360L273 1360L247 667L238 667L209 1360L8 1360L144 425ZM206 1403L242 1608L279 1403L394 1404L342 1698L143 1698L91 1404Z"  horiz-adv-x="485" vert-adv-y="2048"  />

      
      <glyph glyph-name="uni0178" unicode="&#x0178;" d="M144 0L343 0L343 426L477 1360L273 1360L247 667L238 667L209 1360L8 1360L144 425ZM92 1522C92 1413 101 1403 155 1403C206 1403 218 1414 218 1522C215 1645 209 1650 154 1653C102 1653 92 1643 92 1522ZM263 1522C263 1414 275 1403 326 1403C377 1403 389 1414 389 1522C386 1645 380 1650 325 1653C273 1653 263 1642 263 1522Z"  horiz-adv-x="485" vert-adv-y="2048"  />

      
      <glyph glyph-name="uni1EF4" unicode="&#x1EF4;" d="M144 0L343 0L343 426L477 1360L273 1360L247 667L238 667L209 1360L8 1360L144 425ZM163-174C166-277 175-283 242-286C308-286 321-274 321-174C321-61 308-51 242-51C176-51 163-61 163-174Z"  horiz-adv-x="485" vert-adv-y="2048"  />

      
      <glyph glyph-name="uni1EF2" unicode="&#x1EF2;" d="M144 0L343 0L343 426L477 1360L273 1360L247 667L238 667L209 1360L8 1360L144 425ZM177 1403L317 1403L269 1657L101 1655Z"  horiz-adv-x="485" vert-adv-y="2048"  />

      
      <glyph glyph-name="uni1EF6" unicode="&#x1EF6;" d="M144 0L343 0L343 426L477 1360L273 1360L247 667L238 667L209 1360L8 1360L144 425ZM181 1403C226 1403 259 1406 279 1411C330 1424 356 1454 356 1500L356 1626C356 1694 313 1728 226 1728C197 1728 165 1723 132 1714L146 1639C153 1641 168 1643 189 1644C218 1644 232 1636 232 1620L231 1494C231 1479 217 1473 180 1472Z"  horiz-adv-x="485" vert-adv-y="2048"  />

      
      <glyph glyph-name="uni1EF8" unicode="&#x1EF8;" d="M144 0L343 0L343 426L477 1360L273 1360L247 667L238 667L209 1360L8 1360L144 425ZM87 1409L181 1407L181 1529C181 1548 185 1557 193 1557C200 1557 205 1549 208 1534L208 1457C213 1418 236 1405 291 1405C370 1405 399 1428 399 1505L398 1627L304 1627L304 1504C304 1486 300 1477 292 1477C284 1477 280 1484 277 1500L277 1577C272 1617 249 1632 194 1632C115 1632 86 1611 86 1532Z"  horiz-adv-x="485" vert-adv-y="2048"  />

      
      <glyph glyph-name="uni0179" unicode="&#x0179;" d="M16 0L408 0L408 148L246 148L405 1237L405 1360L22 1360L22 1212L176 1212L16 124ZM140 1403L280 1403L356 1699L188 1701Z"  horiz-adv-x="425" vert-adv-y="2048"  />

      
      <glyph glyph-name="uni017D" unicode="&#x017D;" d="M16 0L408 0L408 148L246 148L405 1237L405 1360L22 1360L22 1212L176 1212L16 124ZM125 1403L308 1403L376 1697L253 1698L216 1494L179 1698L57 1697Z"  horiz-adv-x="425" vert-adv-y="2048"  />

      
      <glyph glyph-name="uni017B" unicode="&#x017B;" d="M16 0L408 0L408 148L246 148L405 1237L405 1360L22 1360L22 1212L176 1212L16 124ZM138 1518C138 1418 154 1402 217 1402C280 1402 296 1416 296 1518C294 1634 282 1644 217 1647C154 1647 138 1631 138 1518Z"  horiz-adv-x="425" vert-adv-y="2048"  />

      
      <glyph glyph-name="uni1E92" unicode="&#x1E92;" d="M16 0L408 0L408 148L246 148L405 1237L405 1360L22 1360L22 1212L176 1212L16 124ZM133-174C136-277 145-283 212-286C278-286 291-274 291-174C291-61 278-51 212-51C146-51 133-61 133-174Z"  horiz-adv-x="425" vert-adv-y="2048"  />

      
      <glyph glyph-name="unie1" unicode="&#xe1;" d="M23 119C23 35 73-16 145-16C197-16 232 8 251 56L271 0L436 0L436 935C436 1035 362 1083 249 1083C100 1083 38 1036 37 929L37 670L203 670L203 930C203 952 212 963 231 963C250 963 260 951 260 926L260 633L221 634C83 634 23 610 23 503ZM260 149C259 120 248 107 228 108C212 108 203 117 203 136L203 519C203 544 214 556 237 557L260 557ZM158 1126L298 1126L374 1422L206 1424Z"  horiz-adv-x="462" vert-adv-y="2048"  />

      
      <glyph glyph-name="uni0103" unicode="&#x0103;" d="M23 119C23 35 73-16 145-16C197-16 232 8 251 56L271 0L436 0L436 935C436 1035 362 1083 249 1083C100 1083 38 1036 37 929L37 670L203 670L203 930C203 952 212 963 231 963C250 963 260 951 260 926L260 633L221 634C83 634 23 610 23 503ZM260 149C259 120 248 107 228 108C212 108 203 117 203 136L203 519C203 544 214 556 237 557L260 557ZM86 1254C86 1162 128 1125 235 1125C340 1125 383 1162 383 1254L383 1408L259 1408L259 1254C259 1222 251 1206 235 1206C219 1206 211 1222 211 1254L211 1408L86 1408Z"  horiz-adv-x="462" vert-adv-y="2048"  />

      
      <glyph glyph-name="uni1EAF" unicode="&#x1EAF;" d="M23 119C23 35 73-16 145-16C197-16 232 8 251 56L271 0L436 0L436 935C436 1035 362 1083 249 1083C100 1083 38 1036 37 929L37 670L203 670L203 930C203 952 212 963 231 963C250 963 260 951 260 926L260 633L221 634C83 634 23 610 23 503ZM260 149C259 120 248 107 228 108C212 108 203 117 203 136L203 519C203 544 214 556 237 557L260 557ZM86 1243C87 1156 126 1125 235 1125C343 1125 383 1156 384 1243L384 1376L259 1376L259 1246C259 1213 252 1201 235 1201C218 1201 211 1213 211 1246L211 1376L86 1376ZM158 1421L298 1421L374 1673L206 1676Z"  horiz-adv-x="462" vert-adv-y="2048"  />

      
      <glyph glyph-name="uni1EB7" unicode="&#x1EB7;" d="M23 119C23 35 73-16 145-16C197-16 232 8 251 56L271 0L436 0L436 935C436 1035 362 1083 249 1083C100 1083 38 1036 37 929L37 670L203 670L203 930C203 952 212 963 231 963C250 963 260 951 260 926L260 633L221 634C83 634 23 610 23 503ZM260 149C259 120 248 107 228 108C212 108 203 117 203 136L203 519C203 544 214 556 237 557L260 557ZM152-184C155-287 164-293 231-296C297-296 310-284 310-184C310-71 297-61 231-61C165-61 152-71 152-184ZM86 1243C87 1156 126 1125 235 1125C343 1125 383 1156 384 1243L384 1376L259 1376L259 1246C259 1213 252 1201 235 1201C218 1201 211 1213 211 1246L211 1376L86 1376Z"  horiz-adv-x="462" vert-adv-y="2048"  />

      
      <glyph glyph-name="uni1EB1" unicode="&#x1EB1;" d="M23 119C23 35 73-16 145-16C197-16 232 8 251 56L271 0L436 0L436 935C436 1035 362 1083 249 1083C100 1083 38 1036 37 929L37 670L203 670L203 930C203 952 212 963 231 963C250 963 260 951 260 926L260 633L221 634C83 634 23 610 23 503ZM260 149C259 120 248 107 228 108C212 108 203 117 203 136L203 519C203 544 214 556 237 557L260 557ZM86 1243C87 1156 126 1125 235 1125C343 1125 383 1156 384 1243L384 1376L259 1376L259 1246C259 1213 252 1201 235 1201C218 1201 211 1213 211 1246L211 1376L86 1376ZM169 1421L309 1421L261 1675L93 1673Z"  horiz-adv-x="462" vert-adv-y="2048"  />

      
      <glyph glyph-name="uni1EB3" unicode="&#x1EB3;" d="M23 119C23 35 73-16 145-16C197-16 232 8 251 56L271 0L436 0L436 935C436 1035 362 1083 249 1083C100 1083 38 1036 37 929L37 670L203 670L203 930C203 952 212 963 231 963C250 963 260 951 260 926L260 633L221 634C83 634 23 610 23 503ZM260 149C259 120 248 107 228 108C212 108 203 117 203 136L203 519C203 544 214 556 237 557L260 557ZM86 1243C87 1156 126 1125 235 1125C343 1125 383 1156 384 1243L384 1376L259 1376L259 1246C259 1213 252 1201 235 1201C218 1201 211 1213 211 1246L211 1376L86 1376ZM173 1421C218 1421 251 1424 271 1429C322 1442 348 1472 348 1518L348 1644C348 1712 305 1746 218 1746C189 1746 157 1741 124 1732L138 1657C145 1659 160 1661 181 1662C210 1662 224 1654 224 1638L223 1512C223 1497 209 1491 172 1490Z"  horiz-adv-x="462" vert-adv-y="2048"  />

      
      <glyph glyph-name="uni1EB5" unicode="&#x1EB5;" d="M23 119C23 35 73-16 145-16C197-16 232 8 251 56L271 0L436 0L436 935C436 1035 362 1083 249 1083C100 1083 38 1036 37 929L37 670L203 670L203 930C203 952 212 963 231 963C250 963 260 951 260 926L260 633L221 634C83 634 23 610 23 503ZM260 149C259 120 248 107 228 108C212 108 203 117 203 136L203 519C203 544 214 556 237 557L260 557ZM86 1243C87 1156 126 1125 235 1125C343 1125 383 1156 384 1243L384 1376L259 1376L259 1246C259 1213 252 1201 235 1201C218 1201 211 1213 211 1246L211 1376L86 1376ZM77 1499C78 1488 78 1462 78 1423L172 1423L172 1545C172 1564 176 1573 184 1573C191 1573 196 1565 199 1550L199 1473C204 1434 229 1419 282 1419C358 1419 390 1453 390 1532L390 1582C389 1593 389 1618 389 1657L295 1657L295 1534C295 1516 291 1507 283 1507C275 1507 271 1513 268 1529L268 1607C263 1646 240 1661 185 1661C109 1661 77 1627 77 1546Z"  horiz-adv-x="462" vert-adv-y="2048"  />

      
      <glyph glyph-name="uni01CE" unicode="&#x01CE;" d="M23 119C23 35 73-16 145-16C197-16 232 8 251 56L271 0L436 0L436 935C436 1035 362 1083 249 1083C100 1083 38 1036 37 929L37 670L203 670L203 930C203 952 212 963 231 963C250 963 260 951 260 926L260 633L221 634C83 634 23 610 23 503ZM260 149C259 120 248 107 228 108C212 108 203 117 203 136L203 519C203 544 214 556 237 557L260 557ZM143 1126L326 1126L394 1420L271 1421L234 1217L197 1421L75 1420Z"  horiz-adv-x="462" vert-adv-y="2048"  />

      
      <glyph glyph-name="unie2" unicode="&#xe2;" d="M23 119C23 35 73-16 145-16C197-16 232 8 251 56L271 0L436 0L436 935C436 1035 362 1083 249 1083C100 1083 38 1036 37 929L37 670L203 670L203 930C203 952 212 963 231 963C250 963 260 951 260 926L260 633L221 634C83 634 23 610 23 503ZM260 149C259 120 248 107 228 108C212 108 203 117 203 136L203 519C203 544 214 556 237 557L260 557ZM199 1126L235 1331L272 1126L387 1127L335 1381L136 1381L84 1127Z"  horiz-adv-x="462" vert-adv-y="2048"  />

      
      <glyph glyph-name="uni1EA5" unicode="&#x1EA5;" d="M23 119C23 35 73-16 145-16C197-16 232 8 251 56L271 0L436 0L436 935C436 1035 362 1083 249 1083C100 1083 38 1036 37 929L37 670L203 670L203 930C203 952 212 963 231 963C250 963 260 951 260 926L260 633L221 634C83 634 23 610 23 503ZM260 149C259 120 248 107 228 108C212 108 203 117 203 136L203 519C203 544 214 556 237 557L260 557ZM198 1126L234 1331L271 1126L386 1127L334 1381L135 1381L83 1127ZM158 1424L298 1424L374 1676L206 1679Z"  horiz-adv-x="462" vert-adv-y="2048"  />

      
      <glyph glyph-name="uni1EAD" unicode="&#x1EAD;" d="M23 119C23 35 73-16 145-16C197-16 232 8 251 56L271 0L436 0L436 935C436 1035 362 1083 249 1083C100 1083 38 1036 37 929L37 670L203 670L203 930C203 952 212 963 231 963C250 963 260 951 260 926L260 633L221 634C83 634 23 610 23 503ZM260 149C259 120 248 107 228 108C212 108 203 117 203 136L203 519C203 544 214 556 237 557L260 557ZM152-184C155-287 164-293 231-296C297-296 310-284 310-184C310-71 297-61 231-61C165-61 152-71 152-184ZM199 1126L235 1331L272 1126L387 1127L335 1381L136 1381L84 1127Z"  horiz-adv-x="462" vert-adv-y="2048"  />

      
      <glyph glyph-name="uni1EA7" unicode="&#x1EA7;" d="M23 119C23 35 73-16 145-16C197-16 232 8 251 56L271 0L436 0L436 935C436 1035 362 1083 249 1083C100 1083 38 1036 37 929L37 670L203 670L203 930C203 952 212 963 231 963C250 963 260 951 260 926L260 633L221 634C83 634 23 610 23 503ZM260 149C259 120 248 107 228 108C212 108 203 117 203 136L203 519C203 544 214 556 237 557L260 557ZM198 1126L234 1331L271 1126L386 1127L334 1381L135 1381L83 1127ZM168 1424L308 1424L260 1678L92 1676Z"  horiz-adv-x="462" vert-adv-y="2048"  />

      
      <glyph glyph-name="uni1EA9" unicode="&#x1EA9;" d="M23 119C23 35 73-16 145-16C197-16 232 8 251 56L271 0L436 0L436 935C436 1035 362 1083 249 1083C100 1083 38 1036 37 929L37 670L203 670L203 930C203 952 212 963 231 963C250 963 260 951 260 926L260 633L221 634C83 634 23 610 23 503ZM260 149C259 120 248 107 228 108C212 108 203 117 203 136L203 519C203 544 214 556 237 557L260 557ZM198 1126L234 1331L271 1126L386 1127L334 1381L135 1381L83 1127ZM173 1424C218 1424 251 1427 271 1432C322 1445 348 1475 348 1521L348 1647C348 1715 305 1749 218 1749C189 1749 157 1744 124 1735L138 1660C145 1662 160 1664 181 1665C210 1665 224 1657 224 1641L223 1515C223 1500 209 1494 172 1493Z"  horiz-adv-x="462" vert-adv-y="2048"  />

      
      <glyph glyph-name="uni1EAB" unicode="&#x1EAB;" d="M23 119C23 35 73-16 145-16C197-16 232 8 251 56L271 0L436 0L436 935C436 1035 362 1083 249 1083C100 1083 38 1036 37 929L37 670L203 670L203 930C203 952 212 963 231 963C250 963 260 951 260 926L260 633L221 634C83 634 23 610 23 503ZM260 149C259 120 248 107 228 108C212 108 203 117 203 136L203 519C203 544 214 556 237 557L260 557ZM198 1126L234 1331L271 1126L386 1127L334 1381L135 1381L83 1127ZM77 1502C78 1491 78 1465 78 1426L172 1426L172 1548C172 1567 176 1576 184 1576C191 1576 196 1568 199 1553L199 1476C204 1437 229 1422 282 1422C358 1422 390 1456 390 1535L390 1585C389 1596 389 1621 389 1660L295 1660L295 1537C295 1519 291 1510 283 1510C275 1510 271 1516 268 1532L268 1610C263 1649 240 1664 185 1664C109 1664 77 1630 77 1549Z"  horiz-adv-x="462" vert-adv-y="2048"  />

      
      <glyph glyph-name="unie4" unicode="&#xe4;" d="M23 119C23 35 73-16 145-16C197-16 232 8 251 56L271 0L436 0L436 935C436 1035 362 1083 249 1083C100 1083 38 1036 37 929L37 670L203 670L203 930C203 952 212 963 231 963C250 963 260 951 260 926L260 633L221 634C83 634 23 610 23 503ZM260 149C259 120 248 107 228 108C212 108 203 117 203 136L203 519C203 544 214 556 237 557L260 557ZM85 1245C85 1136 94 1126 148 1126C199 1126 211 1137 211 1245C208 1368 202 1373 147 1376C95 1376 85 1366 85 1245ZM256 1245C256 1137 268 1126 319 1126C370 1126 382 1137 382 1245C379 1368 373 1373 318 1376C266 1376 256 1365 256 1245Z"  horiz-adv-x="462" vert-adv-y="2048"  />

      
      <glyph glyph-name="uni01DF" unicode="&#x01DF;" d="M23 119C23 35 73-16 145-16C197-16 232 8 251 56L271 0L436 0L436 935C436 1035 362 1083 249 1083C100 1083 38 1036 37 929L37 670L203 670L203 930C203 952 212 963 231 963C250 963 260 951 260 926L260 633L221 634C83 634 23 610 23 503ZM260 149C259 120 248 107 228 108C212 108 203 117 203 136L203 519C203 544 214 556 237 557L260 557ZM85 1245C85 1136 94 1126 148 1126C199 1126 211 1137 211 1245C208 1368 202 1373 147 1376C95 1376 85 1366 85 1245ZM256 1245C256 1137 268 1126 319 1126C370 1126 382 1137 382 1245C379 1368 373 1373 318 1376C266 1376 256 1365 256 1245ZM94 1420L373 1420L373 1522L94 1522Z"  horiz-adv-x="462" vert-adv-y="2048"  />

      
      <glyph glyph-name="uni1EA1" unicode="&#x1EA1;" d="M23 119C23 35 73-16 145-16C197-16 232 8 251 56L271 0L436 0L436 935C436 1035 362 1083 249 1083C100 1083 38 1036 37 929L37 670L203 670L203 930C203 952 212 963 231 963C250 963 260 951 260 926L260 633L221 634C83 634 23 610 23 503ZM260 149C259 120 248 107 228 108C212 108 203 117 203 136L203 519C203 544 214 556 237 557L260 557ZM152-184C155-287 164-293 231-296C297-296 310-284 310-184C310-71 297-61 231-61C165-61 152-71 152-184Z"  horiz-adv-x="462" vert-adv-y="2048"  />

      
      <glyph glyph-name="unie0" unicode="&#xe0;" d="M23 119C23 35 73-16 145-16C197-16 232 8 251 56L271 0L436 0L436 935C436 1035 362 1083 249 1083C100 1083 38 1036 37 929L37 670L203 670L203 930C203 952 212 963 231 963C250 963 260 951 260 926L260 633L221 634C83 634 23 610 23 503ZM260 149C259 120 248 107 228 108C212 108 203 117 203 136L203 519C203 544 214 556 237 557L260 557ZM166 1126L306 1126L258 1424L90 1422Z"  horiz-adv-x="462" vert-adv-y="2048"  />

      
      </font>
</defs>
</svg>
